<svg xmlns="http://www.w3.org/2000/svg" width="285" height="270" viewBox="0 0 285 270">
  <g fill="none" fill-rule="evenodd" opacity=".103" transform="translate(.5)">
    <path stroke="#F26C63" stroke-width="11" d="M3.02867099,88.2942203 L3.08792395,88.2942203 L2.99639009,88.3536878 L3.02867099,88.2942203 Z M5.5,88.2942203 L267.884988,88.2942203 L267.884988,86.7214149 L143.306751,5.5 L130.526885,5.5 L5.5,86.7271489 L5.5,88.2942203 Z M270.297373,88.2942203 L270.351571,88.2942203 L270.381171,88.348854 L270.297373,88.2942203 Z"/>
    <polygon fill="#FAB909" fill-rule="nonzero" points="0 127.56 273.385 127.56 273.385 120.057 0 120.057"/>
    <polygon fill="#F26C63" fill-rule="nonzero" points="37.45 127.56 37.45 232.61 44.94 232.61 44.94 127.56"/>
    <polygon fill="#F26C63" fill-rule="nonzero" points="86.135 127.56 86.135 232.61 93.625 232.61 93.625 127.56"/>
    <polygon fill="#F26C63" fill-rule="nonzero" points="131.075 127.56 131.075 232.61 138.565 232.61 138.565 127.56"/>
    <polygon fill="#F26C63" fill-rule="nonzero" points="179.76 127.56 179.76 232.61 187.25 232.61 187.25 127.56"/>
    <polygon fill="#F26C63" fill-rule="nonzero" points="228.445 127.56 228.445 172.581 235.935 172.581 235.935 127.56"/>
    <path fill="#F26C63" fill-rule="nonzero" d="M187.249,225.106129 L187.249,232.609129 L7.48999967,232.609666 L7.48999967,281.382661 L187.249,281.382129 L187.249,288.886129 L0,288.886199 L0,225.106129 L187.249,225.106129 Z"/>
    <g fill="#FAB909" fill-rule="nonzero" transform="translate(203.63 147.966)">
      <path d="M134.621017,9.97018654 C121.616325,-2.69497977 100.445121,-2.7003934 87.4348684,9.97018654 L61.8759362,34.8511886 C60.7887362,35.9095515 60.7887362,37.6202558 61.8759362,38.6786187 C62.9631362,39.7369816 64.7204518,39.7369816 65.8076518,38.6786187 L91.366584,13.7976166 C96.5940419,8.70881285 103.576035,5.90726398 111.025162,5.90726398 C118.479851,5.90726398 125.459063,8.71151966 130.686521,13.8003234 C135.913979,18.8891271 138.794642,25.6859283 138.794642,32.9401804 C138.794642,40.1944326 135.913979,46.9885269 130.686521,52.0773306 L97.266938,84.6186064 C86.4283047,95.1697537 68.7828539,95.1697537 57.94144,84.6186064 C56.85424,83.5602435 55.0969243,83.5602435 54.0097243,84.6186064 C52.9225243,85.6769693 52.9225243,87.3876736 54.0097243,88.4460365 C60.516241,94.7772662 69.0581296,97.9442345 77.6027987,97.9442345 C86.1474679,97.9442345 94.692137,94.7772662 101.195873,88.4460365 L134.621017,55.9047607 C140.899528,49.7927826 144.358548,41.6371625 144.358548,32.9374736 C144.358548,24.2377847 140.899528,16.0821646 134.621017,9.97018654 Z"/>
      <path d="M73.1012638,109.224697 L51.9183956,129.8786 C46.79834,134.870801 39.9597977,137.621822 32.6609951,137.621822 C25.3621925,137.621822 18.5263736,134.870801 13.4035946,129.8786 C2.78764966,119.52775 2.78764966,102.679072 13.4035946,92.3255656 L44.2165248,62.2820758 C54.8351932,51.9312252 72.1153807,51.9365361 82.7313257,62.2820758 C83.7961883,63.3203474 85.5173985,63.3203474 86.5822611,62.2820758 C87.6471237,61.2438042 87.6471237,59.565575 86.5822611,58.5273034 C73.8447612,46.1025652 53.1085362,46.0972543 40.3655894,58.5273034 L9.54993581,88.5734486 C3.40042226,94.5694005 0.0151940372,102.570199 0.0151940372,111.104738 C0.0151940372,119.639277 3.4031457,127.640076 9.55265924,133.633372 C15.7021728,139.626669 23.9078789,142.932674 32.6582717,142.932674 C41.4141114,142.932674 49.6198175,139.629324 55.7666076,133.633372 L76.9494757,112.979469 C78.0143384,111.941197 78.0143384,110.262968 76.9494757,109.224697 C75.8846131,108.186425 74.1661264,108.189081 73.1012638,109.224697 Z"/>
    </g>
  </g>
</svg>
