<svg xmlns="http://www.w3.org/2000/svg" width="18" height="18" viewBox="0 0 18 18">
  <g fill="none">
    <path fill="#B5B5B5" d="M18,2.06254579 C18,0.924774187 17.0752258,0 15.9374542,0 L2.06254579,0 C0.924774187,0 0,0.924774187 0,2.06254579 L0,15.9374542 C0,17.0752258 0.924774187,18 2.06254579,18 L15.9374542,18 C17.0752258,18 18,17.0752258 18,15.9374542 L18,2.06254579 Z"/>
    <path fill="#FAFAFA" d="M13.2532136,5.71739263 C13.5719067,6.03608568 13.5719067,6.55121909 13.2532136,6.87006144 L7.9542508,12.168875 C7.79527745,12.3278483 7.58659695,12.4078575 7.3779164,12.4078575 C7.16923585,12.4078575 6.96055535,12.3278483 6.801582,12.168875 L4.15217524,9.5194682 C3.83333289,9.20077515 3.83333289,8.68549244 4.15217524,8.36679939 C4.47086829,8.04795704 4.9860017,8.04795704 5.30484405,8.36679939 L7.3779164,10.4398717 L12.1005448,5.71739263 C12.4192379,5.39855028 12.9343713,5.39855028 13.2532136,5.71739263 Z"/>
  </g>
</svg>
