<svg xmlns="http://www.w3.org/2000/svg" width="45" height="39" viewBox="0 0 45 39">
  <g fill="none" fill-rule="evenodd">
    <path fill="#F26C63" fill-rule="nonzero" d="M43.3332703,0 L13.621226,0 C13.144481,0 12.7581829,0.388835925 12.7581829,0.868712968 L12.7581829,18.1390743 L4.8809003,18.1390743 C4.40415526,18.1390743 4.01785714,18.5279102 4.01785714,19.0077872 L4.01785714,33.7322404 C4.01785714,36.6367532 6.36533453,39 9.25100563,39 C9.32534241,39 38.9630499,39 38.9630499,39 C41.848606,39 44.1964286,36.6368691 44.1964286,33.7322404 L44.1964286,0.868712968 C44.1964286,0.388835925 43.8100154,0 43.3332703,0 Z M5.22423703,34.3404183 L5.22406442,19.5 L12.7581829,19.5 L12.7583555,34.3404183 C12.7583555,36.2869145 11.1850853,37.870752 9.25106317,37.870752 C7.31738621,37.870752 5.22423703,36.2869145 5.22423703,34.3404183 Z M42.9551821,34.1623665 C42.9551821,36.1088627 41.381912,37.6927002 39.4478898,37.6927002 L12.5656464,37.6927002 C13.40556,36.757965 13.9179775,35.5190645 13.9179775,34.1623665 L13.9216271,1.32285156 L42.9588318,1.32285156 L42.9551821,34.1623665 Z"/>
    <polyline stroke="#FAB909" stroke-linecap="round" stroke-linejoin="round" points="20.893 21.11 25.08 25.188 36.964 12.188"/>
    <path stroke="#ACACAC" d="M11.25 10.15625L4.01785714 10.15625M7.23214286 4.46875L0 4.46875"/>
  </g>
</svg>
