<svg xmlns="http://www.w3.org/2000/svg" width="275" height="196" viewBox="0 0 275 196">
  <g fill="none" fill-rule="evenodd">
    <g transform="translate(6 12)">
      <path stroke="#222" d="M0.5,11.3731241 L34.3036716,11.3731241 L34.3036716,10.8723229 L18.3040716,0.5 L16.5568926,0.5 L0.5,10.8728437 L0.5,11.3731241 Z"/>
      <polygon fill="#D5E6F9" fill-rule="nonzero" points="0 16.202 34.804 16.202 34.804 15.198 0 15.198"/>
      <polygon fill="#222" fill-rule="nonzero" points="4.768 16.147 4.768 29.445 5.768 29.445 5.768 16.147"/>
      <polygon fill="#222" fill-rule="nonzero" points="10.966 16.147 10.966 29.445 11.966 29.445 11.966 16.147"/>
      <polygon fill="#222" fill-rule="nonzero" points="16.687 16.147 16.687 29.445 17.687 29.445 17.687 16.147"/>
      <polygon fill="#222" fill-rule="nonzero" points="22.885 16.147 22.885 29.445 23.885 29.445 23.885 16.147"/>
      <polygon fill="#222" fill-rule="nonzero" points="29.083 16.147 29.083 21.847 30.083 21.847 30.083 16.147"/>
      <path fill="#222" fill-rule="nonzero" d="M23.838,28.4954979 L23.838,29.4444979 L0.953525249,29.4453478 L0.953525249,35.6193724 L23.838,35.6184979 L23.838,36.5684979 L0,36.5692223 L0,28.4954979 L23.838,28.4954979 Z"/>
      <g fill="#FFF" fill-rule="nonzero" stroke="#FFF" stroke-width=".3" transform="translate(24.566 20.694)">
        <path d="M14.9068599,0.0348537439 C15.2237622,0.154782721 15.5299056,0.318165477 15.8168643,0.526332364 C16.6588657,1.1368659 17.21254,2.04211291 17.3756755,3.07569052 C17.538811,4.10926813 17.2910031,5.14189875 16.6782238,5.98364789 L13.4159986,10.4652212 C13.2259599,10.7262694 13.0094093,10.9569902 12.7726904,11.1563666 C12.6877679,11.0071399 12.5321564,10.8541269 12.3065277,10.6965726 C12.5217435,10.5226568 12.7182511,10.3174546 12.8890444,10.0828429 L16.1506254,5.60137206 C16.6608224,4.90053576 16.8671566,4.04031236 16.7311258,3.17846171 C16.5950949,2.31661105 16.1339059,1.56215082 15.4328596,1.05382352 C15.2337529,0.909451647 15.0217313,0.789575265 14.8004055,0.695070528 C14.7876649,0.509252762 14.822116,0.293869354 14.9022604,0.0506974008 L14.9068599,0.0348537439 Z"/>
        <path d="M12.9177664,0.748914421 C13.7477623,1.33674065 14.292888,2.20921477 14.4525121,3.20597755 C14.6121294,4.20274139 14.3662803,5.19912095 13.7605679,6.01184951 L10.5359636,10.3389134 C9.90852279,11.1807965 8.98967426,11.6966898 8.01271916,11.8497323 C7.03576297,12.0027681 6.00101813,11.7929034 5.14093028,11.1840402 C4.99720645,11.082251 4.96581868,10.8862477 5.0707051,10.7455139 C5.17559153,10.6047802 5.37651439,10.5733058 5.52023822,10.675095 C6.95338349,11.6898134 8.97087796,11.3737749 10.0165232,9.97075631 L13.2404917,5.643792 C13.7448049,4.96711809 13.9495087,4.13709344 13.8164086,3.30594046 C13.6833085,2.47478748 13.2292408,1.74764083 12.5381902,1.25821952 C11.8471395,0.768798209 10.9977184,0.572502831 10.1453858,0.706019912 C9.29368906,0.839437391 8.54680462,1.28547458 8.04249138,1.96214849 L5.57672153,5.270652 C5.4718351,5.41138578 5.27091224,5.44286015 5.12718841,5.34107093 C4.98346457,5.23928172 4.9520768,5.04327848 5.05696322,4.9025447 L7.52273307,1.59404119 C8.77778356,-0.090705263 11.1984948,-0.469271518 12.9177664,0.748914421 Z"/>
        <path d="M8.6387283,13.5222607 C8.74181898,13.3832398 8.93890525,13.3518648 9.08017358,13.4526901 C9.22144191,13.5535155 9.25233599,13.7476036 9.14929419,13.8869316 L7.09952662,16.658525 C6.50477924,17.4630859 5.62427717,17.9934684 4.61985692,18.1517658 C3.61606041,18.309958 2.61388848,18.075965 1.7981218,17.4940121 C0.982355112,16.9120592 0.446423738,16.0480122 0.289310311,15.0609886 C0.132203619,14.073964 0.373253434,13.0874669 0.968313238,12.2828567 L3.95020061,8.25089743 C5.18317849,6.58297988 7.56201963,6.20871054 9.25191785,7.41536109 C9.39318618,7.51618645 9.42408025,7.71027457 9.32103846,7.84960255 C9.21799666,7.98893053 9.02054908,8.02004773 8.87928075,7.91922237 C7.47103083,6.91467736 5.48864692,7.2264661 4.46107891,8.61551907 L1.47945508,12.647122 C0.452248374,14.0364328 0.762411202,15.9849916 2.17075889,16.9901508 C2.85031545,17.4748885 3.68512505,17.669463 4.52240273,17.5375103 C5.35968041,17.4055576 6.09351679,16.9637687 6.58896074,16.2938541 L8.6387283,13.5222607 Z"/>
      </g>
    </g>
    <g transform="rotate(-14 689.388 -805.806)">
      <path fill="#000" fill-rule="nonzero" d="M42.7248359,0 L13.4299729,0 C12.9599218,0 12.5790476,0.347878541 12.5790476,0.777208536 L12.5790476,16.2284251 L4.81236848,16.2284251 C4.34231732,16.2284251 3.96144315,16.5763036 3.96144315,17.0056336 L3.96144315,30.1791111 C3.96144315,32.7776819 6.27596004,34.892 9.12111396,34.892 C9.19440699,34.892 38.4159769,34.892 38.4159769,34.892 C41.2610174,34.892 43.5758746,32.7777855 43.5758746,30.1791111 L43.5758746,0.777208536 C43.5758746,0.347878541 43.194887,0 42.7248359,0 Z M5.15088447,30.7232276 L5.15071429,17.446 L12.5790476,17.446 L12.5792178,30.7232276 C12.5792178,32.4646928 11.0280376,33.8816994 9.12117069,33.8816994 C7.21464413,33.8816994 5.15088447,32.4646928 5.15088447,30.7232276 Z M42.3520563,30.5639306 C42.3520563,32.3053958 40.8008761,33.7224024 38.8940092,33.7224024 L12.3892144,33.7224024 C13.217335,32.8861261 13.7225577,31.7777231 13.7225577,30.5639306 L13.7261561,1.1835112 L42.3556547,1.1835112 L42.3520563,30.5639306 Z"/>
      <polyline stroke="#FFF" stroke-linecap="round" stroke-linejoin="round" stroke-width="1.22" points="20.6 18.887 24.728 22.534 36.445 10.904"/>
      <line x1="11.092" x2="3.961" y1="9.086" y2="9.086" stroke="#FFF" stroke-width="1.22" opacity=".498"/>
      <line x1="7.131" y1="3.998" y2="3.998" stroke="#FFF" stroke-width="1.22" opacity=".498"/>
    </g>
    <path fill="#FFF" fill-rule="nonzero" d="M5.4980016,0 C7.01625366,0 8.39088729,0.617118644 9.38875566,1.61058111 C10.3826272,2.60830508 11,3.98237288 11,5.5 C11,7.01762712 10.3826272,8.39169492 9.38875566,9.38941889 C8.39062084,10.3828814 7.01625366,11 5.4980016,11 C3.97974953,11 2.60538236,10.3828814 1.61151079,9.38941889 C0.613375966,8.39169492 0,7.01789346 0,5.5 C0,3.98237288 0.613109512,2.60830508 1.61124434,1.61058111 C2.60538236,0.617118644 3.97974953,0 5.4980016,0 L5.4980016,0 Z M8.30215827,5.19983051 C8.46709299,5.19983051 8.59818812,5.33513317 8.59818812,5.5 C8.59818812,5.66486683 8.46709299,5.80016949 8.30215827,5.80016949 L5.50652811,5.80016949 L5.4980016,5.80016949 C5.3879563,5.80016949 5.29070077,5.73677966 5.24007461,5.64808717 L5.23581135,5.64382567 L5.23581135,5.64382567 L5.23154809,5.63530266 L5.23154809,5.63530266 L5.23154809,5.63104116 L5.23154809,5.63104116 L5.22728484,5.62251816 L5.22728484,5.62251816 L5.22302158,5.61399516 L5.22302158,5.61399516 L5.22302158,5.60973366 L5.22302158,5.60973366 L5.21875833,5.60121065 L5.21875833,5.60121065 L5.21449507,5.59694915 L5.21449507,5.59694915 L5.21449507,5.58842615 L5.21449507,5.58842615 L5.21023181,5.57990315 L5.21023181,5.57990315 L5.21023181,5.57564165 L5.21023181,5.57564165 L5.20596856,5.56711864 L5.20596856,5.56711864 L5.20596856,5.55859564 L5.20596856,5.55859564 L5.20596856,5.55433414 L5.20596856,5.55007264 L5.2017053,5.54581114 L5.2017053,5.54581114 L5.2017053,5.53728814 L5.2017053,5.53728814 L5.2017053,5.52876513 L5.2017053,5.52876513 L5.2017053,5.52130751 L5.2017053,5.52130751 L5.2017053,5.517046 L5.2017053,5.517046 L5.2017053,5.508523 L5.2017053,5.508523 L5.2017053,5.5 L5.2017053,5.5 L5.2017053,1.91927361 C5.2017053,1.75440678 5.33280043,1.62336562 5.49773515,1.62336562 C5.66266986,1.62336562 5.79802824,1.75440678 5.79802824,1.91927361 L5.79802824,5.19983051 L8.30215827,5.19983051 Z M5.4980016,0.600338983 C4.14468425,0.600338983 2.91819877,1.14554479 2.03010925,2.03353511 C1.14628297,2.92125908 0.596322942,4.14723971 0.596322942,5.5 C0.596322942,6.85276029 1.14601652,8.07874092 2.03010925,8.96673123 C2.91819877,9.85445521 4.14468425,10.3999274 5.4980016,10.3999274 C6.85131894,10.3999274 8.07780442,9.85445521 8.96589395,8.96673123 C9.85398348,8.07900726 10.4039435,6.85302663 10.4039435,5.5 C10.4039435,4.14723971 9.85424993,2.92125908 8.96589395,2.03353511 C8.07780442,1.14581114 6.85131894,0.600338983 5.4980016,0.600338983 Z" opacity=".501" transform="translate(242 99)"/>
    <circle cx="42.5" cy="75.5" r="2.5" fill="#FFC4A4"/>
    <circle cx="273" cy="140" r="2" fill="#FFC4A4"/>
    <circle cx="49" cy="8" r="3" fill="#73FACC" opacity=".669"/>
    <circle cx="272" cy="180" r="3" fill="#D7DC92"/>
    <circle cx="4.5" cy="60.5" r="4.5" fill="#D7DC92"/>
    <circle cx="228" cy="187" r="4" fill="#73FACC" opacity=".669"/>
    <polygon fill="#FFF" fill-rule="nonzero" points="174 190 207 190 207 189 174 189" opacity=".2"/>
    <polygon fill="#FFF" fill-rule="nonzero" points="60 1 113 1 113 0 60 0" opacity=".2"/>
    <polygon fill="#FFF" fill-rule="nonzero" points="174 196 185 196 185 195 174 195" opacity=".5"/>
    <polygon fill="#FFF" fill-rule="nonzero" points="60 7 78 7 78 6 60 6" opacity=".5"/>
    <g fill="#FFF" fill-rule="nonzero" stroke="#FFF" stroke-width=".2" opacity=".495" transform="rotate(-16 312.903 22.039)">
      <path d="M12.2952282,3.28968889 L6.50336209,0.285652992 C6.41743746,0.241015346 6.31445664,0.2416418 6.22917568,0.287219205 L0.597573438,3.29125511 C0.505212502,3.34059147 0.447929446,3.43487875 0.447929446,3.53746702 L0.447929446,7.46150851 C0.451308514,10.6871665 2.41470203,13.6053728 5.45102692,14.897672 L6.23271562,15.2292437 C6.30576766,15.2602551 6.38895684,15.2604117 6.46216977,15.2295569 L7.3429775,14.8592993 C10.43562,13.5950356 12.4476076,10.6486371 12.4479294,7.38366667 L12.4479294,3.53746702 C12.4479294,3.43378238 12.3891982,3.33839877 12.2952282,3.28968889 L12.2952282,3.28968889 Z M11.8712369,7.38366667 C11.8705933,10.4235694 9.99682523,13.1665141 7.11722428,14.3429121 L7.11529335,14.3438518 L6.34824724,14.6661827 L5.68176828,14.3831643 C2.85542773,13.180297 1.02767922,10.4641348 1.02446107,7.46150851 L1.02446107,3.70364438 L6.36964793,0.852159648 L11.8712369,3.70568052 L11.8712369,7.38366667 Z"/>
      <path d="M4.96555261,7.50313846 C4.85562515,7.39816476 4.66226907,7.38575752 4.533536,7.47539639 C4.40480292,7.5648959 4.38958743,7.72270497 4.49951489,7.82753926 L6.11782484,9.37286924 C6.22587173,9.47603064 6.41512472,9.49011081 6.54402879,9.40451471 L9.5223612,6.39615437 C9.65365869,6.30916421 9.67349013,6.15177337 9.56663992,6.04470856 C9.45996071,5.93778315 9.26694658,5.9214725 9.13564909,6.00860206 L6.3894807,8.8627779 L4.96555261,7.50313846 Z"/>
    </g>
    <path stroke="#000" d="M25.1404603,53 C19.828311,171.646281 166.699057,75.9516448 210.180368,88.3341393 C232.178225,94.5986318 230.822651,110.235728 236,132" opacity=".159"/>
  </g>
</svg>
