<svg xmlns="http://www.w3.org/2000/svg" width="30" height="38" viewBox="0 0 30 38">
  <g fill="#666" stroke="#666" stroke-width=".3" transform="translate(1 1)">
    <path d="M27.643697,7.28901224 L14.1293428,0.0793260804 C13.928852,-0.0278042686 13.6885635,-0.0263007807 13.4895745,0.0830849928 L0.349169315,7.29277116 C0.133660464,7.41117843 0,7.6374679 0,7.88367974 L0,17.3013793 C0.00788449242,25.0429584 4.58913603,32.0466535 11.6738941,35.1481717 L13.4978344,35.9439438 C13.6682892,36.0183711 13.8623972,36.018747 14.0332274,35.9446955 L16.0884455,35.0560772 C23.3046113,32.0218444 27.9992491,24.9504879 28,17.1145589 L28,7.88367974 C28,7.63483661 27.8629604,7.40591594 27.643697,7.28901224 L27.643697,7.28901224 Z M26.6543841,17.1145589 C26.6528823,24.4103253 22.2807568,30.9933928 15.561688,33.816748 L15.5571824,33.8190033 L13.7674082,34.5925974 L12.2122906,33.9133533 C5.61749601,31.0264716 1.35274948,24.5076824 1.34524046,17.3013793 L1.34524046,8.28250542 L13.8173431,1.43894205 L26.6543841,8.28739214 L26.6543841,17.1145589 Z"/>
    <path d="M9.25877632,16.7803368 C9.0022789,16.500407 8.55111472,16.467321 8.25073755,16.706358 C7.95036038,16.9450233 7.91485755,17.3658475 8.17135497,17.6454056 L11.9474115,21.7662856 C12.1995209,22.0413827 12.6411112,22.0789298 12.9418874,21.8506735 L21.7361977,15.182915 C22.0425585,14.9509412 22.0888318,14.5312323 21.8395147,14.2457262 C21.5905965,13.9605917 21.1402302,13.9170967 20.8338694,14.1494422 L12.5812752,20.406042 L9.25877632,16.7803368 Z"/>
  </g>
</svg>
