<svg xmlns="http://www.w3.org/2000/svg" width="41" height="41" viewBox="0 0 41 41">
  <g fill="#666" stroke="#666" stroke-width=".2" transform="translate(1 1)">
    <path d="M35.8007812,13.7110421 L25.0876236,13.7110421 C25.1215439,13.3352381 25.1399918,12.9546734 25.1399918,12.569943 C25.1399918,5.63884461 19.5008927,0 12.5698471,0 C10.3620529,0 8.19026188,0.580814978 6.28923796,1.67936462 C5.92504118,1.88973154 5.8003693,2.3556927 6.01073454,2.71989225 C6.22139738,3.08438941 6.68735506,3.20876471 7.05155184,2.99839779 C8.72108463,2.03344748 10.6292496,1.52344912 12.5698471,1.52344912 C18.6609192,1.52344912 23.6165543,6.47882449 23.6165543,12.569943 C23.6165543,18.6610616 18.6609192,23.6167344 12.5698471,23.6167344 C10.0201721,23.6167344 7.62492367,22.7719938 5.64296721,21.1741575 C5.44420622,21.0140763 5.18087769,20.966171 4.94105534,21.0396656 L2.91922762,21.5684095 L3.71129606,19.8277498 C3.82525635,19.5778089 3.79550171,19.2862113 3.633934,19.0639425 C2.25331877,17.1676648 1.5234375,14.9220652 1.5234375,12.569943 C1.5234375,10.6242723 2.03610994,8.711332 3.00611116,7.03821596 C3.21707153,6.67401641 3.09299471,6.20805517 2.72909546,5.99709319 C2.36519621,5.78613122 1.89923861,5.90991146 1.68798063,6.27411101 C0.583785973,8.17901748 0,10.356181 0,12.569943 C0,15.0958336 0.739997883,17.5146066 2.14441683,19.5929839 L0.869132977,22.3949996 C0.747138996,22.6624959 0.790283203,22.9761121 0.979522705,23.201059 C1.16876221,23.4260057 1.47047428,23.5218164 1.75492855,23.4474292 L4.99431608,22.6006058 C7.16580965,24.2409915 9.8404541,25.1401836 12.5698471,25.1401836 C13.1640472,25.1401836 13.7481308,25.0976341 14.3203125,25.0175935 L14.3203125,31.6877417 C14.3203125,33.4516102 15.7553787,34.8869849 17.5192337,34.8869849 L28.2924958,34.8869849 L33.1094742,38.8280168 C33.2481308,38.9416805 33.41922,39 33.5917969,39 C33.7027817,39 33.814064,38.9758986 33.9179077,38.926803 C34.1839142,38.8006424 34.3535156,38.5328486 34.3535156,38.2382754 L34.3535156,34.8869849 L35.8007812,34.8869849 C37.5649338,34.8869849 39,33.4516102 39,31.6877417 L39,16.9102853 C39,15.1461193 37.5649338,13.7110421 35.8007812,13.7110421 Z M37.4765625,31.6877417 C37.4765625,32.6116303 36.7249603,33.3635358 35.8007812,33.3635358 L33.5917969,33.3635358 C33.1710662,33.3635358 32.8300781,33.7045265 32.8300781,34.1252603 L32.8300781,36.6309176 L29.0679016,33.5527767 C28.8605118,33.3635358 28.6790085,33.3635358 28.2710724,33.3635358 L17.5192337,33.3635358 C16.5953522,33.3635358 15.84375,32.6116303 15.84375,31.6877417 L15.84375,24.7066551 C20.349495,23.4899787 23.8599472,19.8259646 24.8546448,15.2344912 L35.8007812,15.2344912 C36.7249603,15.2344912 37.4765625,15.9860992 37.4765625,16.9102853 L37.4765625,31.6877417 Z"/>
    <path d="M31.6101489 27.7692554C31.8447913 27.6702958 32.0075271 27.4571335 32.0075271 27.2093716 32.0075271 26.8674892 31.6977343 26.5899668 31.3154942 26.5899668L31.0321932 26.5899668 28.8003868 22.0373417C28.6898238 21.8120817 28.4411244 21.6666667 28.1664739 21.6666667 27.8918233 21.6666667 27.6431239 21.8120817 27.5328312 22.0373417L25.3010248 26.5899668 25.0177238 26.5899668C24.6354837 26.5899668 24.3256909 26.8674892 24.3256909 27.2093716 24.3256909 27.4571335 24.4884267 27.6702958 24.7230692 27.7692554L23.8918187 29.464876C23.7382739 29.7782077 23.8974955 30.1435597 24.2472966 30.2809902 24.5973679 30.4184206 25.0055592 30.2759091 25.159104 29.9625774L26.2052632 27.8287763 30.1279548 27.8287763 31.174114 29.9625774C31.287921 30.1948542 31.5417566 30.3333333 31.8082973 30.3333333 31.901019 30.3333333 31.9953625 30.3165576 32.0859215 30.2809902 32.4357225 30.1435597 32.5952145 29.7782077 32.4413994 29.464876L31.6101489 27.7692554zM26.8124141 26.5899668L28.1664739 23.8278086 29.5205337 26.5899668 26.8124141 26.5899668zM6.84693718 16.0562914C6.52345592 16.2369798 6.40502007 16.6504374 6.58241302 16.979928 6.70397933 17.2055229 6.93276405 17.3333333 7.16859233 17.3333333 7.27711508 17.3333333 7.38720309 17.30623 7.48920399 17.2493664 8.97852222 16.4174025 10.124272 15.1233545 10.7944521 13.5973347 11.4648931 15.1233545 12.610382 16.4174025 14.0997003 17.2493664 14.2017012 17.30623 14.3117892 17.3333333 14.4203119 17.3333333 14.6561402 17.3333333 14.8849249 17.2055229 15.0064912 16.979928 15.1838842 16.6504374 15.0654483 16.2369798 14.7419671 16.0562914 12.9985595 15.082434 11.8251574 13.3419794 11.5337633 11.3753986L14.4988344 11.3753986C14.8677074 11.3753986 15.1666667 11.0708855 15.1666667 10.6951598 15.1666667 10.3194342 14.8677074 10.0149211 14.4988344 10.0149211L11.4622844 10.0149211 11.4622844 7.18023874C11.4622844 6.80451316 11.1633252 6.5 10.7944521 6.5 10.4255791 6.5 10.1266198 6.80451316 10.1266198 7.18023874L10.1266198 10.0149211 7.71407567 10.0149211C7.34520265 10.0149211 7.04624338 10.3194342 7.04624338 10.6951598 7.04624338 11.0708855 7.34520265 11.3753986 7.71407567 11.3753986L10.0551409 11.3753986C9.76374688 13.3419794 8.5903447 15.0826997 6.84693718 16.0562914z"/>
  </g>
</svg>
