<svg xmlns="http://www.w3.org/2000/svg" width="336" height="254" viewBox="0 0 336 254">
  <g fill="none" fill-rule="evenodd" opacity=".1" transform="rotate(-15 249.057 43.545)">
    <path fill="#F26C63" fill-rule="nonzero" d="M251.805628,0 L79.1516853,0 C76.3813639,0 74.1366213,2.07299879 74.1366213,4.63136458 L74.1366213,96.704745 L28.3624604,96.704745 C25.5921391,96.704745 23.3473964,98.7777438 23.3473964,101.33611 L23.3473964,179.836504 C23.3473964,195.321317 36.9883705,207.920482 53.7567385,207.920482 C54.1887027,207.920482 226.410681,207.920482 226.410681,207.920482 C243.178381,207.920482 256.821361,195.321935 256.821361,179.836504 L256.821361,4.63136458 C256.821361,2.07299879 254.575949,0 251.805628,0 Z M30.3575584,183.07888 L30.3565554,103.960241 L74.1366213,103.960241 L74.1376243,183.07888 C74.1376243,193.456224 64.995497,201.900128 53.7570729,201.900128 C42.5206548,201.900128 30.3575584,193.456224 30.3575584,183.07888 Z M249.608592,182.129633 C249.608592,192.506978 240.466465,200.950881 229.228041,200.950881 L73.0178095,200.950881 C77.8984698,195.967533 80.8760804,189.36259 80.8760804,182.129633 L80.8972884,7.05251112 L249.6298,7.05251112 L249.608592,182.129633 Z"/>
    <polyline stroke="#FAB909" stroke-linecap="round" stroke-linejoin="round" stroke-width="10" points="121.406 112.545 145.737 134.282 214.796 64.975"/>
    <line x1="65.373" x2="23.347" y1="54.146" y2="54.146" stroke="#ACACAC" stroke-linecap="round" stroke-linejoin="round" stroke-width="5"/>
    <line x1="334.752" x2="292.727" y1="210.938" y2="210.938" stroke="#ACACAC" stroke-linecap="round" stroke-linejoin="round" stroke-width="5"/>
    <line x1="42.025" y1="23.824" y2="23.824" stroke="#ACACAC" stroke-linecap="round" stroke-linejoin="round" stroke-width="5"/>
    <line x1="311.405" x2="269.38" y1="180.616" y2="180.616" stroke="#ACACAC" stroke-linecap="round" stroke-linejoin="round" stroke-width="5"/>
  </g>
</svg>
