<svg xmlns="http://www.w3.org/2000/svg" width="30" height="29" viewBox="0 0 30 29">
  <g fill="#666" opacity=".8" transform="translate(1)">
    <path stroke="#666" stroke-width=".6" d="M27.4499759,0.477819556 L6.70506103,0.477819556 C6.37219819,0.477819556 6.1024853,0.757508559 6.1024853,1.10268328 L6.1024853,13.525224 L0.602575732,13.525224 C0.269712898,13.525224 0,13.804913 0,14.1500878 L0,24.7413613 C0,26.8305723 1.63900599,28.5304516 3.65377821,28.5304516 C3.70568006,28.5304516 24.3986931,28.5304516 24.3986931,28.5304516 C26.413385,28.5304516 28.052632,26.8306556 28.052632,24.7413613 L28.052632,1.10268328 C28.052632,0.757508559 27.7828388,0.477819556 27.4499759,0.477819556 Z M1.20515146,24.7413613 L1.20515146,14.7749515 L6.1024853,14.7749515 L6.1024853,24.7413613 C6.1024853,26.1414726 5.00402991,27.2807241 3.65369786,27.2807241 C2.30360685,27.2807241 1.20515146,26.1414726 1.20515146,24.7413613 Z M26.8474002,24.7413613 C26.8474002,26.1414726 25.7489448,27.2807241 24.3986128,27.2807241 L6.36344076,27.2807241 C6.94986746,26.6083707 7.30763676,25.7172318 7.30763676,24.7413613 L7.30763676,1.727547 L26.8474002,1.727547 L26.8474002,24.7413613 Z"/>
    <path d="M13.57398,19.7796221 C13.7757852,19.9965146 14.0565762,20.1194203 14.3500335,20.1194203 C14.6558722,20.1168176 14.9382287,19.9889956 15.1384685,19.7661748 L23.0981173,11.0256207 C23.4956081,10.5833047 23.8333249,10.2187364 23.3981202,9.81488266 C22.9627731,9.41131808 22.5611933,9.643494 22.1637025,10.0856654 L14.3500335,18.1207492 L12.4255231,16.1399839 C12.0204896,15.7044639 11.6290788,15.7289004 11.2007053,16.1399839 C10.7720471,16.5512121 10.7960986,16.7908439 11.2007053,17.226364 L13.57398,19.7796221 Z"/>
  </g>
</svg>
