<svg xmlns="http://www.w3.org/2000/svg" width="33" height="33" viewBox="0 0 33 33">
  <g fill="#666" stroke="#666" opacity=".8" transform="translate(1 1)">
    <path stroke-width=".3" d="M17.6419639,0 C17.2853173,0 17,0.285317277 17,0.641963872 L17,13.3580361 C17,13.7146827 17.2853173,14 17.6419639,14 L30.3580361,14 C30.7146827,14 31,13.7146827 31,13.3580361 C31,10.0963409 29.8133395,6.95785086 27.6540065,4.51320056 C25.1185734,1.64705882 21.4678092,0 17.6419639,0 Z M18.2839277,12.7160723 L18.2839277,1.30338119 C21.5067161,1.47846225 24.5414544,2.93747105 26.6943029,5.36915239 C28.5034738,7.41176471 29.5539602,10.0055581 29.7031033,12.7160723 L18.2839277,12.7160723 Z"/>
    <path stroke-width=".6" d="M28,17 C28,16.6529968 27.7223349,16.3753943 27.3752535,16.3753943 L14.6279017,16.3753943 L14.6279017,3.62460568 C14.6279017,3.27760252 14.3502366,3 14.0031553,3 C6.27901735,3 0,9.27760252 0,17 C0,24.7160883 6.27901735,31 14.0031553,31 C21.7272932,31 28,24.7160883 28,17 Z M14.0031553,29.7507886 C6.97318008,29.7507886 1.2494929,24.0283912 1.2494929,17 C1.2494929,10.1798107 6.63240929,4.58990536 13.3784088,4.26182965 L13.3784088,16.9936909 C13.3784088,17.340694 13.6560739,17.6182965 14.0031553,17.6182965 L26.737886,17.6182965 C26.4097363,24.362776 20.8248817,29.7507886 14.0031553,29.7507886 Z"/>
  </g>
</svg>
