<svg xmlns="http://www.w3.org/2000/svg" width="53" height="55" viewBox="0 0 53 55">
  <g fill="none" fill-rule="evenodd">
    <rect width="44.529" height="46.514" x="8.021" y="8.036" stroke="#ACACAC" stroke-width=".9" rx="2"/>
    <rect width="34.071" height="32.241" fill="#FFF"/>
    <g fill-rule="nonzero" transform="matrix(0 1 1 0 7.53 3.837)">
      <path fill="#F26C63" stroke="#F16D5E" stroke-width=".3" d="M7.38192787,13.748432 C7.98491562,14.3158202 8.79997667,14.6238148 9.64182972,14.6024019 C9.88302911,14.6018512 10.1237477,14.5816042 10.3614096,14.5418774 C11.5255527,14.324064 12.5922917,13.7664233 13.4173352,12.9443838 C15.343081,11.0857954 15.7092794,8.52653649 14.2508943,7.11945211 C12.7925092,5.71236774 10.140775,6.06491196 8.21502922,7.92350033 C6.2892834,9.78253048 5.92354275,12.3413477 7.38192787,13.748432 Z M8.01492942,12.9006085 C7.1596449,12.0732477 7.69062941,9.8500909 9.03197188,8.55362262 C9.66930509,7.91469953 11.0184928,7.52249529 11.9181818,7.34191049 C12.0753323,7.31596999 12.2344556,7.30276103 12.3938876,7.30242173 C12.8445974,7.28182583 13.285132,7.43599766 13.6174128,7.73061308 C14.4746691,8.56035278 13.7372019,10.920495 12.3938876,12.2169632 C11.0505733,13.514383 8.87021395,13.7279694 8.01492942,12.9006085 Z"/>
      <path fill="#ACACAC" stroke="#ACACAC" stroke-width=".3" d="M30.4856354,25.7373831 L20.0187201,15.3876731 C19.0688133,14.4846594 18.8337388,13.0992308 19.4362624,11.9549175 C21.4401262,8.15187795 21.1826837,4.20855859 18.7800457,1.90623942 C15.4052174,-1.32338377 8.89825127,-0.350078912 4.27570713,4.07511061 C2.15634106,6.03332681 0.716351994,8.56720314 0.150441003,11.3341339 C-0.325423125,14.0049153 0.336503878,16.3577898 2.01011802,17.959621 C4.41228013,20.2596629 8.53278762,20.5060634 12.506729,18.5876918 C13.7025439,18.010903 15.1503435,18.2360934 16.0937927,19.1456228 L38.5167943,40.9363333 C39.2167939,41.6131919 40.241787,41.8796435 41.2033657,41.6347198 C42.1649445,41.3897961 42.9159814,40.6709719 43.1718809,39.7506362 C43.4277804,38.8303006 43.1493882,37.8492705 42.4421975,37.1792945 L41.2363578,36.0251745 L30.4856354,25.7373831 Z M40.8191418,40.481888 C40.4042546,40.646288 39.7088891,40.3901642 39.3914326,40.0862058 L17.2200107,18.5876918 C15.7688399,17.1905756 13.8527163,16.4837757 12.0152622,17.371598 C8.69515819,18.9747955 4.71210258,18.8672931 2.82672891,17.062785 C0.101930912,14.4544008 1.17008858,8.7432636 5.14402991,4.93976857 C9.11797124,1.13627354 15.1235289,0.155569657 17.8507063,2.76258745 C19.7356041,4.56709557 19.8552601,8.15643248 18.1806943,11.3341339 C17.2542495,13.093101 17.6455062,14.8177286 19.1041943,16.2073532 L41.504382,38.2039585 C41.7139603,38.4027286 42.0491613,38.8386488 42.0491613,39.1210413 C42.0491613,39.5503645 41.2340291,40.317488 40.8191418,40.481888 Z"/>
      <path stroke="#FAB909" stroke-width=".8" d="M41.9036782,37.5517241 L32.4489796,28.3576977 L36.0338375,25.0344828 L38.8125867,27.7176538 L38.3076472,31.0072171 C38.2962859,31.3534242 38.502707,31.6712893 38.828337,31.8090204 C39.1539669,31.9467515 39.5327512,31.8764096 39.7838068,31.6315855 L41.4423772,30.288313 L45.4285714,34.1449493 L41.9036782,37.5517241 Z"/>
    </g>
  </g>
</svg>
