<svg xmlns="http://www.w3.org/2000/svg" width="61" height="65" viewBox="0 0 61 65">
  <g fill="none" fill-rule="evenodd" transform="translate(1 1)">
    <path fill="#ACACAC" fill-rule="nonzero" stroke="#FFF" stroke-width="1.5" d="M47.1890872,33.7642022 L47.1890872,10.6025467 C47.1882634,6.90137327 44.2377097,3.9018143 40.5984326,3.90055765 L35.1940958,3.90055765 L35.1940958,1.34039782 C35.1940958,0.599828024 34.6042322,0 33.8759649,0 C33.1481094,0 32.5578339,0.599828024 32.5578339,1.34039782 L32.5578339,3.90055765 L14.6312533,3.90055765 L14.6312533,1.34039782 C14.6312533,0.599828024 14.0413897,0 13.3131224,0 C12.5852669,0 11.9949914,0.599828024 11.9949914,1.34039782 L11.9949914,3.90055765 L6.59065464,3.90055765 C2.95137751,3.9018143 0.00164766366,6.90137327 0,10.6025467 L0,46.9139237 C0.00164766366,50.6146783 2.95137751,53.6142373 6.59065464,53.6159128 L30.98967,53.6159128 C33.5258363,60.2215607 40.3273919,64.0559363 47.180437,62.7440219 C54.0334821,61.4325264 58.9987165,55.3458636 58.9999762,48.2543215 C59.0127217,41.0563852 53.911555,35.051403 47.1890872,33.7642022 Z M6.60424784,6.58135329 L12.0085846,6.58135329 L12.0085846,9.14151313 C12.0085846,9.88166407 12.5984482,10.4819109 13.3267156,10.4819109 C14.054571,10.4819109 14.6448465,9.88166407 14.6448465,9.14151313 L14.6448465,6.58135329 L32.5714271,6.58135329 L32.5714271,9.14151313 C32.5714271,9.88166407 33.1612907,10.4819109 33.8895581,10.4819109 C34.6174135,10.4819109 35.207689,9.88166407 35.207689,9.14151313 L35.207689,6.58135329 L40.6120258,6.58135329 C42.7931206,6.58763643 44.5598279,8.38418836 44.5664186,10.6025467 L44.5664186,13.8463095 L2.64985506,13.8463095 L2.64985506,10.6025467 C2.65150272,8.38209401 4.42109349,6.58302879 6.60424784,6.58135329 Z M6.60424784,50.9351171 C4.42274115,50.928834 2.65603382,49.1318632 2.64985506,46.9139237 L2.64985506,16.5137011 L44.5528254,16.5137011 L44.5528254,33.5099455 L44.5132815,33.5099455 C40.2083482,33.5166475 36.1283211,35.464832 33.3742512,38.8300682 C30.6197696,42.1948857 29.476291,46.6290891 30.2511048,50.9351171 L6.60424784,50.9351171 Z M44.5132815,60.3179019 C37.9617589,60.3179019 32.6501031,54.9169363 32.6501031,48.2543215 C32.6501031,41.5917066 37.9617589,36.1907411 44.5132815,36.1907411 C51.0652161,36.1907411 56.3764598,41.5917066 56.3764598,48.2543215 C56.3665738,54.9127477 51.0610968,60.3078489 44.5132815,60.3179019 Z"/>
    <path fill="#FFF" d="M32.6501031,36.1907411 C37.9179602,30.9407411 46.7012592,29.3771607 59,31.5 L59,63 L27.3928571,63 C25.6298306,50.3771607 27.382246,41.4407411 32.6501031,36.1907411 Z"/>
    <path fill="#F26C63" fill-rule="nonzero" d="M43.1686801,42 C42.6020155,42 42.1428571,42.4205362 42.1428571,42.9395357 L42.1428571,51.5604643 C42.1428571,52.0794638 42.6020155,52.5 43.1686801,52.5 L49.5456057,52.5 C50.1121335,52.5 50.5714286,52.0794638 50.5714286,51.5604643 C50.5714286,51.0414648 50.1121335,50.6209287 49.5456057,50.6209287 L44.194503,50.6209287 L44.194503,42.9395357 C44.194503,42.4205362 43.7352079,42 43.1686801,42 Z"/>
    <ellipse cx="44.25" cy="48.3" stroke="#F26C63" rx="13.196" ry="13.15"/>
    <line x1="8.429" x2="35.821" y1="24.15" y2="24.15" stroke="#FAB909" stroke-linecap="round"/>
    <line x1="8.429" x2="29.5" y1="34.65" y2="34.65" stroke="#FAB909" stroke-linecap="round"/>
  </g>
</svg>
