<svg xmlns="http://www.w3.org/2000/svg" width="26" height="30" viewBox="0 0 26 30">
  <g fill="none" fill-rule="evenodd" transform="translate(0 1)">
    <path stroke="#ACACAC" d="M2,2.96875 C1.17157288,2.96875 0.5,3.64032288 0.5,4.46875 L0.5,26.46875 C0.5,27.2971771 1.17157288,27.96875 2,27.96875 L24,27.96875 C24.8284271,27.96875 25.5,27.2971771 25.5,26.46875 L25.5,4.46875 C25.5,3.64032288 24.8284271,2.96875 24,2.96875 L2,2.96875 Z"/>
    <g transform="translate(8 10.469)">
      <path fill="#F26C63" fill-rule="nonzero" stroke="#FFF" stroke-width=".3" d="M10.4635198,13.7090914 L9.61729515,13.7090914 L9.61729515,12.1578304 C9.61729515,10.5883811 8.77514097,9.14575441 7.24594714,8.09558921 C7.05579736,7.965 6.93760793,7.68305617 6.93760793,7.35953194 C6.93760793,7.03600771 7.05579736,6.754163 7.24604405,6.62347467 C8.77514097,5.57340859 9.61729515,4.13078194 9.61739207,2.5613326 L9.61739207,1.01007159 L10.4635198,1.01007159 C10.7361938,1.01007159 10.9572599,0.783981278 10.9572599,0.505011013 C10.9572599,0.226040749 10.7361938,0 10.4635198,0 L0.536480176,0 C0.263806167,0 0.04269163,0.226040749 0.04269163,0.504961454 C0.04269163,0.783931718 0.263806167,1.01002203 0.536480176,1.01002203 L1.38270485,1.01002203 L1.38270485,2.56138216 C1.38270485,4.1308315 2.22476211,5.57345815 3.75405286,6.62352423 C3.94420264,6.75421256 4.06239207,7.03605727 4.06239207,7.3595815 C4.06239207,7.68315529 3.94420264,7.96504956 3.75395595,8.09573789 C2.22476211,9.14580396 1.38270485,10.5884306 1.38270485,12.15788 L1.38270485,13.709141 L0.536480176,13.709141 C0.263806167,13.709141 0.04269163,13.9352808 0.04269163,14.2142015 C0.04269163,14.4931718 0.263806167,14.7192126 0.536480176,14.7192126 L10.4634714,14.7192126 C10.7361454,14.7192126 10.9572599,14.4932214 10.9572599,14.2142015 C10.9572599,13.9352313 10.7361938,13.7090914 10.4635198,13.7090914 Z M2.3703304,12.1578304 C2.3703304,10.508739 3.58207489,9.43032489 4.30448899,8.9343337 C4.77128634,8.6138326 5.05001762,8.02511564 5.05001762,7.3595815 C5.05001762,6.69409692 4.77128634,6.10537996 4.30448899,5.78492841 C3.58207489,5.28893722 2.3703304,4.21052313 2.3703304,2.56143172 L2.3703304,1.01007159 L8.6296696,1.01007159 L8.62957269,2.56143172 C8.62957269,4.21052313 7.41782819,5.28893722 6.69551101,5.7848293 C6.22861674,6.10542952 5.94988546,6.69414648 5.94988546,7.3595815 C5.94988546,8.0251652 6.22861674,8.61378304 6.6954141,8.9343337 C7.41782819,9.43032489 8.62957269,10.508739 8.6296696,12.1578304 L8.6296696,13.7090914 L2.3703304,13.7090914 L2.3703304,12.1578304 Z"/>
      <line x1="3.276" x2="7.627" y1="12.76" y2="12.76" stroke="#F9BD0B" stroke-linecap="round" stroke-linejoin="round" stroke-width=".8"/>
      <line x1="4.376" x2="5.977" y1="4.683" y2="4.683" stroke="#F9BD0B" stroke-linecap="round" stroke-linejoin="round" stroke-width=".8"/>
    </g>
    <line x1="6" x2="6" y1=".469" y2="4.469" stroke="#ACACAC" stroke-linecap="round" stroke-linejoin="round"/>
    <line x1="21" x2="21" y1=".469" y2="4.469" stroke="#ACACAC" stroke-linecap="round" stroke-linejoin="round"/>
    <line x1=".5" x2="25" y1="8.969" y2="8.969" stroke="#ACACAC" stroke-linecap="round" stroke-linejoin="round"/>
  </g>
</svg>
