<svg xmlns="http://www.w3.org/2000/svg" width="61" height="57" viewBox="0 0 61 57">
  <g fill="none" fill-rule="evenodd">
    <g fill="#FAB909" stroke="#FFF" transform="translate(8.714 13.071)">
      <path stroke-width="1.4" d="M30.0655335,2.41029419e-13 L1.60754323,2.41029419e-13 C0.719972281,2.41029419e-13 -2.7533531e-13,0.697865373 -2.7533531e-13,1.55765931 C-2.7533531e-13,2.41745325 0.719972281,3.11489362 1.60754323,3.11489362 L30.0655335,3.11489362 C30.9531044,3.11489362 31.6730769,2.41745325 31.6730769,1.55765931 C31.6735155,0.697865373 30.9531044,2.41029419e-13 30.0655335,2.41029419e-13"/>
      <path d="M12.322966,14.0077508 L1.25086844,14.0077508 C0.560227925,14.0077508 1.36335387e-13,14.7055209 1.36335387e-13,15.5651976 C1.36335387e-13,16.4252992 0.560227925,17.1226444 1.25086844,17.1226444 L12.322966,17.1226444 C13.0139479,17.1226444 13.5741758,16.4252992 13.5741758,15.5651976 C13.5741758,14.705096 13.0139479,14.0077508 12.322966,14.0077508"/>
    </g>
    <rect width="47.129" height="44.95" x=".4" y=".4" stroke="#ACACAC" stroke-width=".8" rx="2"/>
    <rect width="32.679" height="32.679" x="28.321" y="23.964" fill="#FFF"/>
    <path fill="#F26C63" fill-rule="nonzero" stroke="#F16D5E" stroke-width=".2" d="M21.3852547,9.03959163 L21.3404236,9.03959163 C20.7282568,9.03657597 20.1368015,9.23561033 19.6814123,9.59772288 C19.3128014,8.69510916 18.3760682,8.04627583 17.2788871,8.04627583 C16.6064213,8.05045134 15.9641049,8.29472079 15.498229,8.72410598 C15.0698433,7.95673355 14.2104503,7.43618223 13.2223319,7.43618223 L13.1746169,7.43618223 C12.6450336,7.428991 12.1282968,7.58139845 11.7093492,7.86811923 L11.7093492,2.39745894 C11.7093492,1.07543489 10.5461012,0 9.13117016,0 C7.71781207,0 6.56059398,1.07473895 6.55980752,2.3958351 L6.54800983,13.2499332 L5.85378386,12.5039024 C5.24502533,11.8332634 4.34892848,11.4168688 3.37942413,11.3540036 C2.42984462,11.2964738 1.49573316,11.5887621 0.798361218,12.1622036 L0.194321707,12.6050434 C-0.000470564856,12.7479398 -0.0560505893,12.9915133 0.0606150113,13.1900837 L5.93348352,23.178684 C7.00733154,25.0040932 9.05042176,26.1428571 11.2654955,26.1428571 L17.8839753,26.1428571 L17.8839753,26.1377537 C21.2397504,26.1377537 23.9605498,23.5612103 23.9641456,20.3975388 C23.9652689,18.9820289 23.959239,17.9270078 23.9602877,17.071949 C23.9636959,14.7842141 23.9610742,13.940058 23.95452,11.4196525 C23.9511118,10.1006441 22.7962532,9.03959163 21.3852547,9.03959163 Z M22.7631304,17.0230534 C22.7620866,17.868528 22.7605208,18.9155681 22.7589551,20.314832 C22.7560846,22.9250944 20.5136854,25.0535714 17.7603334,25.0535714 L11.2040623,25.0535714 C9.39928717,25.0535714 7.72890464,24.1214168 6.84504496,22.6290521 L1.19820728,13.0940159 L1.47690882,12.8896986 C1.48395466,12.8846537 1.49073956,12.8786916 1.4975244,12.8734174 C1.97690147,12.4769363 2.62198593,12.273307 3.27881342,12.3111435 C3.95025454,12.3563181 4.56976524,12.644793 4.98964429,13.1073159 L6.62558056,14.8565104 C6.76858473,15.0099204 7.00605511,15.0674778 7.21847373,15.0007479 C7.43089228,14.934018 7.57285262,14.7569889 7.57285262,14.5588631 L7.58250806,2.51904815 C7.58302994,1.7306723 8.26151684,1.08928571 9.07987641,1.08928571 C9.89823599,1.08928571 10.5767229,1.73136026 10.5767229,2.52019469 L10.5767229,9.77953532 C10.5767229,9.8047597 10.5754181,9.83021339 10.5754181,9.85589637 C10.5754181,9.86690336 10.5767229,9.87813965 10.5767229,9.88891735 L10.5767229,12.9926598 C10.5767229,13.252012 10.81602,13.4622914 11.1111618,13.4622914 C11.4063036,13.4622914 11.6456007,13.252012 11.6456007,12.9926598 L11.6456007,9.79535791 C11.6456007,9.03472885 12.3068645,8.44035127 13.1040866,8.44035127 L13.1515807,8.44035127 C13.9704621,8.44035127 14.6518196,9.06752053 14.6518196,9.85635496 L14.6518196,12.6963882 C14.6518196,12.9557405 14.8911167,13.1660199 15.1862585,13.1660199 C15.4814003,13.1660199 15.7206974,12.9557405 15.7206974,12.6963882 L15.7206974,10.4681603 C15.7206974,9.67909654 16.3694353,9.0372513 17.192753,9.0372513 C18.0113735,9.0372513 18.6601114,9.67886719 18.6601114,10.4681603 L18.6601114,12.5702665 C18.6601114,12.8296187 18.8994085,13.0398981 19.1945503,13.0398981 C19.4896921,13.0398981 19.7289892,12.8296187 19.7289892,12.5702665 L19.7289892,11.43196 C19.7289892,10.6428963 20.4132172,10.0253581 21.2320986,10.0253581 L21.2767222,10.0253581 C22.093516,10.0253581 22.7592161,10.6534446 22.7613037,11.4399859 C22.7678276,13.92963 22.7665228,14.7631804 22.7631304,17.0230534 Z" transform="translate(30.5 28.321)"/>
  </g>
</svg>
