<svg xmlns="http://www.w3.org/2000/svg" width="53" height="51" viewBox="0 0 53 51">
  <g fill="none" fill-rule="evenodd">
    <path fill="#FAB909" stroke="#FFF" stroke-width="1.4" d="M28.1319368 2.40918396e-13L1.50415772 2.40918396e-13C.673668893 2.40918396e-13-2.7533531e-13.658967959-2.7533531e-13 1.47083896-2.7533531e-13 2.28270996.673668893 2.9412766 1.50415772 2.9412766L28.1319368 2.9412766C28.9624256 2.9412766 29.6360947 2.28270996 29.6360947 1.47083896 29.636505.658967959 28.9624256 2.40918396e-13 28.1319368 2.40918396e-13M11.5304423 13.2269909L1.17042167 13.2269909C.524198134 13.2269909 1.36335387e-13 13.8858689 1.36335387e-13 14.6976292 1.36335387e-13 15.5097907.524198134 16.1682675 1.17042167 16.1682675L11.5304423 16.1682675C12.1769853 16.1682675 12.7011834 15.5097907 12.7011834 14.6976292 12.7011834 13.8854677 12.1769853 13.2269909 11.5304423 13.2269909" transform="translate(8.154 10.286)"/>
    <rect width="44.046" height="42.4" x=".4" y=".4" stroke="#ACACAC" stroke-width=".8" rx="2"/>
    <rect width="26.5" height="22.629" x="26.5" y="26.743" fill="#FFF"/>
    <g transform="translate(28.538 28.8)">
      <ellipse cx="10.702" cy="10.8" stroke="#F26C63" stroke-linecap="round" stroke-linejoin="round" stroke-width=".8" rx="10.702" ry="10.8"/>
      <path fill="#F26C63" fill-rule="nonzero" d="M9.3516678,13.5771429 C9.27229368,13.0909067 9.28882971,12.6514305 9.40127638,12.2587013 C9.51372305,11.8659721 9.6691617,11.5044172 9.867597,11.174026 C9.99988721,10.9537651 10.1454049,10.7432034 10.3041521,10.5423379 L10.5521954,10.2483117 C10.8101613,9.96155701 11.0515873,9.67792348 11.2764806,9.3974026 C11.5013739,9.11688171 11.6898846,8.83324819 11.8420184,8.54649351 C11.9941521,8.25973883 12.0702178,7.94805363 12.0702178,7.61142857 C12.0702178,7.11272478 11.9081648,6.68571606 11.5840538,6.33038961 C11.2599428,5.97506316 10.780398,5.7974026 10.145405,5.7974026 C9.70884737,5.7974026 9.2954467,5.89402501 8.90519061,6.08727273 C8.51493451,6.28052045 8.16767795,6.54545286 7.86341048,6.88207792 L6.93076923,6.07792208 C7.35409787,5.62908866 7.84687148,5.25818328 8.40910483,4.96519481 C8.97133819,4.67220633 9.61624324,4.52571429 10.3438393,4.52571429 C11.3492449,4.52571429 12.1528958,4.7906467 12.7548162,5.32051948 C13.3567366,5.85039226 13.6576923,6.58285247 13.6576923,7.51792208 C13.6576923,7.92935271 13.5783194,8.30337494 13.4195711,8.64 C13.2608229,8.97662506 13.0656978,9.29454396 12.8341899,9.59376623 L12.4770082,10.0402598 L12.4770082,10.0402598 L12.099983,10.4820779 C11.8420171,10.7750664 11.6038983,11.077401 11.3856195,11.3890909 C11.1673406,11.7007808 10.9986732,12.0342839 10.879612,12.3896104 C10.7605508,12.7449368 10.7274787,13.140777 10.7803948,13.5771429 L9.3516678,13.5771429 Z M10.0624628,15.84 C9.81122262,15.84 9.600184,15.9238087 9.42934066,16.0914286 C9.25849731,16.2590485 9.17307692,16.472162 9.17307692,16.7307755 C9.17307692,17.0085456 9.25849731,17.2312373 9.42934066,17.3988571 C9.600184,17.566477 9.81122262,17.6502857 10.0624628,17.6502857 C10.313703,17.6502857 10.527254,17.566477 10.7031222,17.3988571 C10.8789903,17.2312373 10.9669231,17.0085456 10.9669231,16.7307755 C10.9669231,16.472162 10.8789903,16.2590485 10.7031222,16.0914286 C10.527254,15.9238087 10.313703,15.84 10.0624628,15.84 Z"/>
    </g>
  </g>
</svg>
