<?xml version="1.0" encoding="UTF-8"?>
<svg width="25px" height="27px" viewBox="0 0 25 27" version="1.1" xmlns="http://www.w3.org/2000/svg" xmlns:xlink="http://www.w3.org/1999/xlink">
    <!-- Generator: Sketch 61 (89581) - https://sketch.com -->
    <title>Group 9</title>
    <desc>Created with Sketch.</desc>
    <g id="authentications" stroke="none" stroke-width="1" fill="none" fill-rule="evenodd">
        <g id="Active-consent-Details" transform="translate(-18.000000, -992.000000)" fill-rule="nonzero">
            <g id="Group-9" transform="translate(19.000000, 993.000000)">
                <path d="M20.8045455,-0.5 C22.2341187,-0.5 23.4066119,0.598497106 23.4946889,1.98979335 L23.5,2.15810277 L23.5,21.1600791 C23.5,22.2144408 22.6841222,23.0782442 21.6492623,23.1545933 L21.5,23.1600791 L17.7969185,23.1600791 C17.5207761,23.1600791 17.2969185,22.9362214 17.2969185,22.6600791 C17.2969185,22.4146192 17.4737936,22.2104707 17.7070428,22.1681347 L17.7969185,22.1600791 L21.5,22.1600791 C22.0128358,22.1600791 22.4355072,21.7740389 22.4932723,21.2767002 L22.5,21.1600791 L22.5,2.15810277 C22.5,1.29239163 21.8204269,0.578816563 20.9511053,0.50610149 L20.8045455,0.5 L2.19545455,0.5 C1.30656157,0.5 0.580204668,1.16801133 0.506208354,2.01531005 L0.5,2.15810277 L0.5,20.5019763 C0.5,21.3676874 1.17957306,22.0812625 2.04889467,22.1539776 L2.19545455,22.1600791 L5.39393783,22.1600791 C5.67008021,22.1600791 5.89393783,22.3839367 5.89393783,22.6600791 C5.89393783,22.9055389 5.71706267,23.1096874 5.48381347,23.1520234 L5.39393783,23.1600791 L2.19545455,23.1600791 C0.765881267,23.1600791 -0.406611877,22.0615819 -0.494688904,20.6702857 L-0.5,20.5019763 L-0.5,2.15810277 C-0.5,0.744671712 0.617509556,-0.408188127 2.02519269,-0.494778779 L2.19545455,-0.5 L20.8045455,-0.5 Z" id="Path" fill="#ACACAC"></path>
                <path d="M5.75,13.0652174 L5.66758929,13.0716534 C5.29596425,13.1307967 5.11177885,13.5844834 5.36802575,13.887856 L10.31,19.738 L10.31,23.6972625 C10.31,23.8865628 10.4169053,24.0596313 10.5861804,24.1443696 L13.1161804,25.4108752 L13.1937434,25.4421631 C13.5065375,25.5393446 13.84,25.3069635 13.84,24.9637681 L13.84,19.737 L18.7819743,13.887856 C19.0565245,13.5628139 18.8254764,13.0652174 18.4,13.0652174 L5.75,13.0652174 Z M17.323,14.065 L12.9580257,19.2331504 L12.9074314,19.3050194 C12.863519,19.380768 12.84,19.4672061 12.84,19.555789 L12.84,24.154 L11.31,23.389 L11.31,19.555789 L11.3022761,19.4682375 C11.286944,19.3820338 11.2491348,19.3008233 11.1919743,19.2331504 L6.826,14.065 L17.323,14.065 Z" id="Path" fill="#F26C63"></path>
                <path d="M18.4,4.58695652 C18.6761424,4.58695652 18.9,4.81081415 18.9,5.08695652 C18.9,5.33241641 18.7231248,5.53656489 18.4898756,5.57890085 L18.4,5.58695652 L4.6,5.58695652 C4.32385763,5.58695652 4.1,5.3630989 4.1,5.08695652 C4.1,4.84149663 4.27687516,4.63734815 4.51012437,4.59501219 L4.6,4.58695652 L18.4,4.58695652 Z" id="Path-40" fill="#FAB909"></path>
                <path d="M15.4429377,8.54347826 C15.71908,8.54347826 15.9429377,8.76733589 15.9429377,9.04347826 C15.9429377,9.28893815 15.7660625,9.49308663 15.5328133,9.53542259 L15.4429377,9.54347826 L8.05,9.54347826 C7.77385763,9.54347826 7.55,9.31962064 7.55,9.04347826 C7.55,8.79801837 7.72687516,8.59386989 7.96012437,8.55153393 L8.05,8.54347826 L15.4429377,8.54347826 Z" id="Path-40-Copy" fill="#FAB909"></path>
            </g>
        </g>
    </g>
</svg>