<?xml version="1.0" encoding="UTF-8" standalone="no"?>
<svg
   xmlns:dc="http://purl.org/dc/elements/1.1/"
   xmlns:cc="http://creativecommons.org/ns#"
   xmlns:rdf="http://www.w3.org/1999/02/22-rdf-syntax-ns#"
   xmlns:svg="http://www.w3.org/2000/svg"
   xmlns="http://www.w3.org/2000/svg"
   xmlns:sodipodi="http://sodipodi.sourceforge.net/DTD/sodipodi-0.dtd"
   xmlns:inkscape="http://www.inkscape.org/namespaces/inkscape"
   inkscape:version="1.0 (4035a4f, 2020-05-01)"
   sodipodi:docname="deactiavte-account.svg"
   id="svg174"
   version="1.1"
   viewBox="0 0 379.69553 231.51375"
   height="231.51376"
   width="379.69553">
  <metadata
     id="metadata180">
    <rdf:RDF>
      <cc:Work
         rdf:about="">
        <dc:format>image/svg+xml</dc:format>
        <dc:type
           rdf:resource="http://purl.org/dc/dcmitype/StillImage" />
        <dc:title></dc:title>
      </cc:Work>
    </rdf:RDF>
  </metadata>
  <defs
     id="defs178" />
  <sodipodi:namedview
     inkscape:current-layer="svg174"
     inkscape:window-maximized="0"
     inkscape:window-y="23"
     inkscape:window-x="0"
     inkscape:cy="75.977962"
     inkscape:cx="139.87518"
     inkscape:zoom="0.79219907"
     showgrid="false"
     id="namedview176"
     inkscape:window-height="802"
     inkscape:window-width="1440"
     inkscape:pageshadow="2"
     inkscape:pageopacity="0"
     guidetolerance="10"
     gridtolerance="10"
     objecttolerance="10"
     borderopacity="1"
     bordercolor="#666666"
     pagecolor="#ffffff" />
  <g
     transform="matrix(2.9603078,0,0,2.9636195,44.044409,0.17571827)"
     id="g172"
     fill-rule="evenodd"
     fill="none">
    <line
       id="line138"
       opacity="0.3"
       stroke-linecap="square"
       stroke="#979797"
       y2="10.5"
       y1="10.5"
       x2="27"
       x1="0.5" />
    <line
       id="line140"
       opacity="0.2"
       stroke-linecap="square"
       stroke="#979797"
       y2="16.5"
       y1="16.5"
       x2="27"
       x1="20.5" />
    <line
       id="line142"
       opacity="0.2"
       stroke-linecap="square"
       stroke="#979797"
       y2="67.820999"
       y1="67.820999"
       x2="147.92"
       x1="118.5" />
    <line
       id="line144"
       opacity="0.5"
       stroke-linecap="square"
       stroke="#979797"
       y2="73.820999"
       y1="73.820999"
       x2="127.92"
       x1="118.5" />
    <g
       id="g152"
       transform="translate(86,51)"
       stroke-width="2"
       stroke-linejoin="round"
       stroke-linecap="round"
       stroke="#f26c63">
      <circle
         id="circle146"
         r="13"
         cy="13"
         cx="13" />
      <line
         id="line148"
         y2="17"
         y1="8"
         x2="9"
         x1="18" />
      <line
         id="line150"
         y2="17"
         y1="8"
         x2="18"
         x1="9" />
    </g>
    <g
       id="g170"
       transform="translate(30)">
      <path
         id="path154"
         d="M 1,24 H 72 V 22.862881 L 38.405878,1 H 34.714332 L 1,22.863923 Z"
         stroke-width="2"
         stroke="#acacac" />
      <polygon
         id="polygon156"
         points="73,32 0,32 0,34 73,34 "
         fill-rule="nonzero"
         fill="#fab909" />
      <polygon
         id="polygon158"
         points="12,62 12,34 10,34 10,62 "
         fill-rule="nonzero"
         fill="#acacac" />
      <polygon
         id="polygon160"
         points="25,62 25,34 23,34 23,62 "
         fill-rule="nonzero"
         fill="#acacac" />
      <polygon
         id="polygon162"
         points="37,62 37,34 35,34 35,62 "
         fill-rule="nonzero"
         fill="#acacac" />
      <polygon
         id="polygon164"
         points="50,62 50,34 48,34 48,62 "
         fill-rule="nonzero"
         fill="#acacac" />
      <polygon
         id="polygon166"
         points="63,46 63,34 61,34 61,46 "
         fill-rule="nonzero"
         fill="#acacac" />
      <path
         id="path168"
         d="m 50,60 v 2 H 2 v 13 h 48 v 2 H 0 V 60 Z"
         fill-rule="nonzero"
         fill="#acacac" />
    </g>
  </g>
</svg>
