<?xml version="1.0" encoding="UTF-8"?>
<svg width="22px" height="23px" viewBox="0 0 22 23" version="1.1" xmlns="http://www.w3.org/2000/svg" xmlns:xlink="http://www.w3.org/1999/xlink">
    <!-- Generator: Sketch 59.1 (86144) - https://sketch.com -->
    <title>pencil</title>
    <desc>Created with Sketch.</desc>
    <g id="login" stroke="none" stroke-width="1" fill="none" fill-rule="evenodd">
        <g id="verify" transform="translate(-972.000000, -232.000000)" fill="$primaryTextColor" fill-rule="nonzero">
            <g id="pencil" transform="translate(982.181981, 244.939340) rotate(45.000000) translate(-982.181981, -244.939340) translate(977.681981, 230.939340)">
                <path d="M0.0606601718,21.8698679 C0.0606601718,21.9929694 0.0983452323,22.1104754 0.168331773,22.2055993 L3.63535735,26.9282212 C3.73764537,27.0681093 3.89376919,27.1464466 4.06066017,27.1464466 C4.22755115,27.1464466 4.38367498,27.0681093 4.485963,26.9282212 L7.95298857,22.2055993 C8.02297511,22.1104754 8.06066017,21.9929694 8.06066017,21.8698679 L8.06066017,6.70040344 C8.06066017,6.39264965 7.82378265,6.14644661 7.52768574,6.14644661 C7.23158884,6.14644661 6.99471132,6.39264965 6.99471132,6.70040344 L6.99471132,21.6852156 L4.06066017,25.6804194 L1.12660903,21.6852156 L1.12660903,6.72838106 C1.12660903,6.42062726 0.889731504,6.17442423 0.5936346,6.17442423 C0.297537695,6.17442423 0.0606601718,6.42062726 0.0606601718,6.72838106 L0.0606601718,21.8698679 L0.0606601718,21.8698679 Z" id="Path"></path>
                <path d="M0.0606601718,2.09346244 L0.0606601718,4.47262463 C0.0606601718,4.76800594 0.297697209,5.00431099 0.593993505,5.00431099 L7.52732684,5.00431099 C7.82362313,5.00431099 8.06066017,4.76800594 8.06066017,4.47262463 L8.06066017,2.09346244 C8.06066017,0.94416061 7.12328643,0.00431098568 5.96503728,0.00431098568 L2.15628307,0.00431098568 C1.00342111,0.00431098568 0.0606601718,0.93879004 0.0606601718,2.09346244 Z M6.99938071,2.09346244 L6.99938071,3.94093827 L1.12732684,3.94093827 L1.12732684,2.09346244 C1.12732684,1.52955266 1.5906265,1.0676837 2.15628307,1.0676837 L5.96503728,1.0676837 C6.53608105,1.0676837 6.99938071,1.52418209 6.99938071,2.09346244 Z" id="Shape"></path>
            </g>
        </g>
    </g>
</svg>