<?xml version="1.0" encoding="UTF-8"?>
<svg width="26px" height="21px" viewBox="0 0 26 21" version="1.1" xmlns="http://www.w3.org/2000/svg" xmlns:xlink="http://www.w3.org/1999/xlink">
    <!-- Generator: Sketch 59.1 (86144) - https://sketch.com -->
    <title>exchange</title>
    <desc>Created with Sketch.</desc>
    <g id="Linked-accounts" stroke="none" stroke-width="1" fill="none" fill-rule="evenodd">
        <g id="account-linked-wizard-tab" transform="translate(-704.000000, -403.000000)">
            <g id="exchange" transform="translate(704.000000, 403.000000)">
                <path d="M24.9270475,14.6251279 C24.9270475,16.0676432 23.8088411,17.2368309 22.4296792,17.2368309 L1.99751524,17.2368309 L3.8453402,15.4770628 L3.30364756,14.6251279 L0.264857548,17.4745934 C-0.0601173999,17.8146589 -0.10049369,17.7639324 0.224481259,18.1037854 L3.30364756,21.047619 L3.8453402,20.2562583 L1.99751524,18.3761212 L21.7973431,18.3761212 C24.0949301,18.3733581 25.9971547,17.0279031 26,14.6251279 L26,11.1428571 L24.9270475,11.1428571 L24.9270475,14.6251279 Z" id="Path" fill="#FFFFFF" fill-rule="nonzero"></path>
                <path d="M24.9270475,3.48227072 C24.9270475,4.92478607 23.8088411,6.09397376 22.4296792,6.09397376 L1.99751524,6.09397376 L3.8453402,4.33420563 L3.30364756,3.48227072 L0.264857548,6.33173622 C-0.0601173999,6.67180172 -0.10049369,6.62107526 0.224481259,6.96092823 L3.30364756,9.9047619 L3.8453402,9.11340115 L1.99751524,7.23326402 L21.7973431,7.23326402 C24.0949301,7.230501 25.9971547,5.885046 26,3.48227072 L26,0 L24.9270475,0 L24.9270475,3.48227072 Z" id="Path" fill="#FFFFFF" fill-rule="nonzero" transform="translate(13.000000, 4.952381) scale(-1, -1) translate(-13.000000, -4.952381) "></path>
                <circle id="Oval" stroke="#FFFFFF" cx="15.4761905" cy="11.7619048" r="3.0952381"></circle>
                <path d="M11.7619048,6.19047619 C13.0465083,6.19047619 14.2005563,6.66959707 14.9940887,7.43073014 C14.9480364,7.42910876 14.9026613,7.42857143 14.8571429,7.42857143 C14.4052496,7.42857143 13.9674927,7.48153064 13.5515363,7.58074286 C13.0393699,7.28861631 12.4237402,7.11904762 11.7619048,7.11904762 C9.96697933,7.11904762 8.51190476,8.36625439 8.51190476,9.9047619 C8.51190476,10.8609819 9.07398936,11.7046746 9.93040413,12.2063362 C9.97888332,12.6218561 10.094315,13.0198895 10.2671775,13.3921452 C8.61080115,12.8707176 7.42857143,11.5060789 7.42857143,9.9047619 C7.42857143,7.85341855 9.36867085,6.19047619 11.7619048,6.19047619 Z" id="Combined-Shape" fill="#FFFFFF" fill-rule="nonzero"></path>
            </g>
        </g>
    </g>
</svg>