<svg xmlns="http://www.w3.org/2000/svg" width="26" height="15" viewBox="0 0 26 15">
  <g transform="translate(.652)">
    <path d="M21.2758333,3.98375 C16.3220833,-0.97 8.2625,-0.97 3.30875,3.98375 L0,7.29208333 L3.39083333,10.6829167 C5.8675,13.1595833 9.12083333,14.3983333 12.3745833,14.3983333 C15.6283333,14.3983333 18.88125,13.16 21.3583333,10.6829167 L24.6670833,7.37416667 L21.2758333,3.98375 Z M20.76875,10.09375 C16.14,14.7220833 8.60875,14.7220833 3.98,10.09375 L1.17833333,7.29208333 L3.89791667,4.5725 C8.52666667,-0.0558333333 16.0579167,-0.0558333333 20.6866667,4.5725 L23.4883333,7.37416667 L20.76875,10.09375 Z"/>
    <path d="M11.905,3.9875 C10.2966667,3.9875 8.98833333,5.29583333 8.98833333,6.90416667 C8.98833333,7.13416667 9.175,7.32083333 9.405,7.32083333 C9.635,7.32083333 9.82166667,7.13416667 9.82166667,6.90416667 C9.82166667,5.75541667 10.75625,4.82083333 11.905,4.82083333 C12.135,4.82083333 12.3216667,4.63416667 12.3216667,4.40416667 C12.3216667,4.17416667 12.1354167,3.9875 11.905,3.9875 Z"/>
    <path d="M12.3216667,1.90416667 C9.335,1.90416667 6.905,4.33416667 6.905,7.32083333 C6.905,10.3075 9.335,12.7375 12.3216667,12.7375 C15.3083333,12.7375 17.7383333,10.3075 17.7383333,7.32083333 C17.7383333,4.33416667 15.30875,1.90416667 12.3216667,1.90416667 Z M12.3216667,11.9041667 C9.79458333,11.9041667 7.73833333,9.84791667 7.73833333,7.32083333 C7.73833333,4.79375 9.79458333,2.7375 12.3216667,2.7375 C14.84875,2.7375 16.905,4.79375 16.905,7.32083333 C16.905,9.84791667 14.8491667,11.9041667 12.3216667,11.9041667 Z"/>
  </g>
</svg>
