<svg xmlns="http://www.w3.org/2000/svg" width="48" height="48" viewBox="0 0 48 48">
  <g fill="none" fill-rule="evenodd">
    <path fill="#F26C63" fill-rule="nonzero" d="M24,0 C10.7667692,0 0,10.7658462 0,24 C0,37.2341538 10.7667692,48 24,48 C37.2332308,48 48,37.2341538 48,24 C48,10.7658462 37.2332308,0 24,0 Z M24,46.1538462 C11.7849231,46.1538462 1.84615385,36.2150769 1.84615385,24 C1.84615385,11.7849231 11.7849231,1.84615385 24,1.84615385 C36.2150769,1.84615385 46.1538462,11.7849231 46.1538462,24 C46.1538462,36.2150769 36.2150769,46.1538462 24,46.1538462 Z"/>
    <line x1="24" x2="24" y1="11.446" y2="25.85" stroke="#F26C63" stroke-linecap="square" stroke-width="2"/>
    <circle cx="24" cy="33.6" r="2.4" fill="#F26C63"/>
  </g>
</svg>
