<svg xmlns="http://www.w3.org/2000/svg" width="28" height="26" viewBox="0 0 28 26">
  <g fill="none" fill-rule="evenodd" transform="translate(1)">
    <path stroke="#ACACAC" stroke-width=".8" d="M0.214039709,6.40555556 L0.228327725,6.40555556 L0.206657882,6.41863149 L0.214039709,6.40555556 Z M0.4,6.40555556 L20.9571429,6.40555556 L20.9571429,6.30155444 L11.2113084,0.4 L10.1809237,0.4 L0.4,6.30196576 L0.4,6.40555556 Z M21.1288904,6.40555556 L21.1427644,6.40555556 L21.1499509,6.41830863 L21.1288904,6.40555556 Z"/>
    <polygon fill="#FAB909" fill-rule="nonzero" points="0 8.778 21.357 8.778 21.357 7.778 0 7.778"/>
    <polygon fill="#ACACAC" fill-rule="nonzero" stroke="#FFF" stroke-width=".3" points="0 19.472 14.562 19.472 14.562 18.472 0 18.472"/>
    <polygon fill="#ACACAC" fill-rule="nonzero" stroke="#FFF" stroke-width=".2" points="2.912 9.722 2.912 17.5 3.912 17.5 3.912 9.722"/>
    <polygon fill="#ACACAC" fill-rule="nonzero" stroke="#FFF" stroke-width=".2" points="7.766 9.722 7.766 17.5 8.766 17.5 8.766 9.722"/>
    <polygon fill="#ACACAC" fill-rule="nonzero" stroke="#FFF" stroke-width=".2" points="12.62 9.722 12.62 17.5 13.62 17.5 13.62 9.722"/>
    <polygon fill="#ACACAC" fill-rule="nonzero" stroke="#FFF" stroke-width=".2" points="16.503 9.722 16.503 13.611 17.503 13.611 17.503 9.722"/>
    <g stroke="#F26C63" transform="translate(15.786 14.815)">
      <path fill="#99D25C" fill-rule="nonzero" stroke-width=".4" d="M5.10714286,0 C2.29114286,0 0,2.28441952 0,5.09259259 C0,7.90076567 2.29114286,10.1851852 5.10714286,10.1851852 C7.92314286,10.1851852 10.2142857,7.90076567 10.2142857,5.09259259 C10.2142857,2.28441952 7.92314286,0 5.10714286,0 Z M5.10714286,9.79344729 C2.50780357,9.79344729 0.392857143,7.68452635 0.392857143,5.09259259 C0.392857143,2.50065883 2.50780357,0.391737892 5.10714286,0.391737892 C7.70648214,0.391737892 9.82142857,2.50065883 9.82142857,5.09259259 C9.82142857,7.68452635 7.70648214,9.79344729 5.10714286,9.79344729 Z"/>
      <polyline stroke-linecap="round" stroke-linejoin="round" stroke-width=".8" points="3.392 4.756 4.852 6.299 7.766 3.567"/>
    </g>
  </g>
</svg>
