<svg xmlns="http://www.w3.org/2000/svg" width="318" height="193" viewBox="0 0 318 193">
  <g fill="none" fill-rule="evenodd" transform="translate(.5 .585)">
    <polygon fill="#979797" fill-rule="nonzero" points="0 19.208 58.691 19.208 58.691 17.074 0 17.074" opacity=".3"/>
    <polygon fill="#979797" fill-rule="nonzero" points="42.685 32.013 58.691 32.013 58.691 29.879 42.685 29.879" opacity=".2"/>
    <polygon fill="#979797" fill-rule="nonzero" points="251.839 141.544 316.762 141.544 316.762 139.41 251.839 139.41" opacity=".2"/>
    <polygon fill="#979797" fill-rule="nonzero" points="251.839 154.35 274.077 154.35 274.077 152.216 251.839 152.216" opacity=".5"/>
    <rect width="23.477" height="3.201" x="136.591" y="11.738" fill="#888" fill-rule="nonzero"/>
    <rect width="6.403" height="6.403" x="106.711" y="145.128" fill="#FAB909" fill-rule="nonzero"/>
    <rect width="6.403" height="6.403" x="106.711" y="132.322" fill="#FAB909" fill-rule="nonzero"/>
    <rect width="6.403" height="6.403" x="123.785" y="145.128" fill="#FAB909" fill-rule="nonzero"/>
    <path fill="#E8E8E8" fill-rule="nonzero" d="M223.13343,66.6946309 C217.384374,66.6946309 213.301596,68.5095002 206.913452,74.517836 L206.80677,13.3389262 C206.80677,6.41409768 206.765835,0.80033557 199.87048,0.80033557 L98.1744966,1.06711409 C91.2791409,1.06711409 90.704698,4.81342654 90.704698,11.738255 L90.704698,58.6912752 L78.2194728,58.6912752 C71.3241171,58.6912752 65.7342477,64.3050373 65.7342477,71.2298658 L65.7342477,77.4545674 C65.7342477,80.6664057 66.9382916,83.5953421 68.9160293,85.8134972 C66.9382916,88.032044 65.7342477,90.9605886 65.7342477,94.172427 L66.1610738,104.398806 C66.1610738,107.610645 67.3651177,110.539581 69.3428554,112.757736 C67.3651177,114.976283 66.1610738,117.904828 66.1610738,121.116666 L66.1610738,129.475596 C66.1610738,132.687434 67.3651177,135.616371 69.3428554,137.834526 C67.3651177,140.053072 66.1610738,142.981617 66.1610738,146.193455 L66.1610738,154.552385 C66.1610738,161.477214 71.7509432,167.090976 78.646299,167.090976 L91.1315241,167.090976 L91.2382063,179.541946 C91.2382063,186.466775 91.2791409,192.080537 98.1744966,192.080537 L199.87048,191.813758 C206.765835,191.813758 207.020134,186.199996 207.020134,179.275168 L206.273164,85.102349 C206.939563,76.1537136 214.971162,71.5854315 224.09396,70.4295302 L224.307519,192.169332 L228.362416,191.635775 L228.362416,70.4295302 C228.362416,68.121254 225.431882,66.6946309 223.13343,66.6946309 Z M98.067912,4.62403046 L199.65731,4.62403046 C201.955372,4.62403046 203.818792,6.49541511 203.818792,8.80369128 L203.818792,25.6107383 L93.9060403,25.6107383 L93.9060403,8.80369128 C93.9060403,6.49541511 95.7694601,4.62403046 98.067912,4.62403046 Z M69.7891447,131.343829 L69.4690007,118.360869 C69.4690007,116.052593 71.3324206,114.181208 73.6308725,114.181208 L90.704698,114.181208 L90.704698,135.52349 L73.9510165,135.52349 C71.6525645,135.52349 69.7891447,133.652105 69.7891447,131.343829 Z M69.3624161,106.711409 L68.93559,93.1057047 C68.93559,90.7974285 71.2257384,88.8372483 73.5241903,88.8372483 L90.704698,88.5704698 L90.704698,110.979866 L74.6979866,110.979866 C72.3995347,110.979866 69.3624161,109.019686 69.3624161,106.711409 Z M68.93559,69.6291946 C68.93559,67.3209185 71.0698182,62.159396 76.939092,61.8038219 L90.704698,61.8926174 L90.704698,85.9026846 L73.0974617,85.5471105 C70.7990098,85.5471105 68.93559,81.5414976 68.93559,79.2332215 L68.93559,69.6291946 Z M77.2591659,163.357252 C74.3124534,163.357252 69.7892422,158.834041 69.7892422,155.887328 L69.3624161,144.060528 C69.3624161,141.113815 71.7513991,138.724832 74.6981116,138.724832 L90.704698,138.724832 L90.704698,163.268456 L77.2591659,163.357252 Z M199.65692,188.523621 L98.067912,188.523621 C95.7694601,188.523621 93.9060403,186.652236 93.9060403,184.34396 L93.9060403,170.738255 L203.818792,170.738255 L203.818792,184.34396 C203.818792,186.652236 201.955372,188.523621 199.65692,188.523621 Z M203.818792,167.536913 L93.9060403,167.536913 L93.9060403,138.191275 L93.9060403,113.114094 L93.9060403,88.0369128 L93.9060403,62.9597315 L93.9060403,29.5232287 L203.818792,29.5232287 L203.818792,167.536913 Z"/>
    <path fill="#ACACAC" fill-rule="nonzero" d="M207.020134,13.8724832 C207.020134,6.94765473 206.9792,0.266778523 200.083844,0.266778523 L98.1744966,4.26325641e-14 C91.2791409,4.26325641e-14 89.1040756,4.54664802 89.1040756,11.4714765 L89.5309017,166.824197 L89.6375839,179.275168 C89.6375839,186.199996 91.2791409,192.080537 98.1744966,192.080537 L200.083844,192.347315 C206.9792,192.347315 207.233499,186.733553 207.233499,179.808725 L207.020134,13.8724832 Z M98.067912,4.62403046 L198.590196,4.62403046 C200.888258,4.62403046 202.751678,6.49541511 202.751678,8.80369128 L202.751678,25.6107383 L93.9060403,25.6107383 L93.9060403,8.80369128 C93.9060403,6.49541511 95.7694601,4.62403046 98.067912,4.62403046 Z M198.589806,187.723285 L98.067912,187.723285 C95.7694601,187.723285 93.9060403,185.8519 93.9060403,183.543624 L93.9060403,170.738255 L202.751678,170.738255 L202.751678,183.543624 C202.751678,185.8519 200.888258,187.723285 198.589806,187.723285 Z M202.751678,166.469799 L93.9060403,166.469799 L93.9060403,138.191275 L93.9060403,113.114094 L93.9060403,88.0369128 L93.9060403,62.9597315 L93.9060403,29.5232287 L202.751678,29.5232287 L202.751678,166.469799 Z" opacity=".755"/>
    <rect width="6.403" height="6.403" x="185.678" y="40.55" fill="#FAB909" fill-rule="nonzero"/>
    <rect width="6.403" height="6.403" x="185.678" y="53.356" fill="#FAB909" fill-rule="nonzero"/>
    <rect width="6.403" height="6.403" x="168.604" y="40.55" fill="#FAB909" fill-rule="nonzero"/>
    <text fill="#F26C63" font-family="SourceSansPro-Regular, Source Sans Pro" font-size="80" letter-spacing="31.806">
      <tspan x="130.5" y="121.415">?</tspan>
    </text>
  </g>
</svg>
