<svg xmlns="http://www.w3.org/2000/svg" width="401" height="384" viewBox="0 0 401 384">
  <g fill="none" fill-rule="evenodd" transform="translate(1.5 -6.898)">
    <circle cx="284.155" cy="268.618" r="18.557" stroke="#FAB909" stroke-width="3"/>
    <path stroke="#ACACAC" stroke-width="2" d="M355.123319,344.921171 L355.123319,329.515102 C352.908531,323.110918 349.178827,319.908826 343.934208,319.908826 C336.067279,319.908826 331.806026,315.235623 329.577457,315.235623 C327.348887,315.235623 313.893801,304.48504 312.529984,303.148784 C311.166166,301.812528 300.116833,295.846872 283.299206,298.31267 C282.22692,294.093088 284.250088,290.408992 289.36871,287.260384 C316.087918,286.796754 329.447522,286.56494 329.447522,286.56494 C338.229569,283.066887 341.164902,276.607415 338.253521,267.186525 C331.50219,261.159348 320.901884,255.147755 306.452604,249.151749 C295.902664,249.31876 290.627694,249.402266 290.627694,249.402266 C280.496432,248.014988 274.590985,243.567857 272.911355,236.060872 C294.897807,236.203931 305.891032,236.275461 305.891032,236.275461 C292.357854,233.848709 284.752927,228.042846 283.07625,218.857872 C304.805458,222.388737 315.670062,224.15417 315.670062,224.15417 C340.167263,238.835428 353.512594,247.062629 355.706054,248.835772 C361.300118,250.231253 364.09715,250.928994 364.09715,250.928994 C347.334974,236.042662 338.953887,228.599496 338.953887,228.599496 L322.907006,227.363644"/>
    <path stroke="#ACACAC" stroke-width="2" d="M397.537502,362.122202 L397.537502,320.559482 C387.319945,289.774579 381.332962,272.585031 379.576552,268.99084 C375.664088,257.023763 366.120154,249.738422 350.944751,247.134815 C326.804277,239.877527 311.316212,236.33485 304.480554,236.506783"/>
    <path stroke="#979797" stroke-width="2" d="M74.2202458,43.5379448 C62.8979356,49.8393496 55.680685,60.0857514 52.5684938,74.2771504 C50.5312482,93.0821982 48.9092021,104.166461 47.7023556,107.529938 L40.2807545,124.259951 C85.5305212,124.232844 108.155405,124.21929 108.155405,124.21929 C113.779974,114.10205 110.908237,107.930696 99.5401952,105.705226 L89.6844419,105.562975 L90.9199312,94.9981334 C95.6236001,91.2476181 95.6236001,83.3402939 90.9199312,71.2761606 C87.7042411,60.7505521 86.096396,55.4877478 86.096396,55.4877478 L75.2044491,44.4759347"/>
    <path stroke="#979797" stroke-width="2" d="M86.0725672 54.2630898L89.5927369 50.0713799C91.907745 51.0182755 94.9643355 50.3476982 98.7625084 48.059648 100.521143 47.399902 101.40046 47.070029 101.40046 47.070029 103.719446 43.636991 104.878939 41.9204719 104.878939 41.9204719 107.678226 36.2626866 109.085331 33.1566332 109.100254 32.6023117 110.516987 28.8412059 110.259323 25.2830063 108.327261 21.9277128 92.9162586 15.3418061 83.7170019 14.3323297 80.729491 18.8992837 77.2485546 20.7596182 76.3614718 27.055848 78.0682427 37.7879731 75.684155 40.897998 74.4921112 42.4530104 74.4921112 42.4530104 73.9640256 43.1524712 73.6999827 43.5022015 73.6999827 43.5022015L84.913619 54.6143847M112.3074 115.352297L109.570693 121.162201 131.272269 121.162201C128.258282 117.288932 125.69632 115.352297 123.586385 115.352297L114.548755 115.357351 112.3074 115.352297z"/>
    <path fill="#F26C63" d="M109.570693,121.162201 L109.570693,124.21929 L135.328949,124.21929 L166.006385,86.8827227 C165.831159,83.5620894 164.585079,82.9930855 162.268145,85.1757112 L133.199517,120.948464 L109.570693,121.162201 Z"/>
    <path fill="#33A9FA" stroke="#33A9FA" stroke-width="3" d="M0,291.7632 C0,247.182366 0,224.89195 0,224.89195 C5.35771732,183.715379 27.9339547,158.294563 67.7287122,148.629502 C132.866775,147.262931 166.714847,175.590437 169.272926,233.612018 L170.750777,270.467875 C146.582016,255.81422 134.497636,248.487392 134.497636,248.487392 C131.199274,198.611513 108.00998,177.339701 64.9297527,184.671957 C43.6278052,192.818456 33.5128746,213.146705 34.5849609,245.656704 L32.7447723,321.58077" opacity=".191"/>
    <path fill="#D8D8D8" stroke="#979797" stroke-width="2" d="M191.994656,214.725065 L158.073217,222.350294 L131.272269,124.934379 C143.094263,122.033519 151.349151,127.958476 156.036934,142.709251 L191.661775,213.459248"/>
    <path fill="#D8D8D8" stroke="#979797" stroke-width="2" d="M49.4801316,124.934379 C45.4797745,140.224312 51.1341901,150.199209 66.4433784,154.859072 C103.592302,155.614855 122.166763,155.992747 122.166763,155.992747 C108.067791,197.853523 101.018305,218.783911 101.018305,218.783911 C123.07948,227.890861 134.110068,232.444336 134.110068,232.444336 C140.865905,182.583809 144.243824,157.653545 144.243824,157.653545 C146.139541,135.986148 138.827215,125.165447 122.306848,125.191442 C105.786481,125.217437 82.434216,125.131749 52.2500539,124.934379 L49.4801316,124.934379 Z"/>
    <path stroke="#979797" stroke-width="2" d="M180.918413,217.353141 C179.325972,224.025153 181.240945,228.549954 186.66333,230.927542 C191.968737,231.523986 196.941263,233.818534 201.580907,237.811189 C209.511819,237.725502 213.732413,235.422047 214.242687,230.900825 C207.236526,229.235213 202.858759,227.609797 201.109385,226.024578 L191.974273,213.974405 C184.6037,216.226895 180.918413,217.353141 180.918413,217.353141 Z"/>
    <path fill="#FAB909" fill-rule="nonzero" d="M288.985544,264.251412 L291.458352,264.251412 C292.145243,264.251412 292.707244,264.85719 292.707244,265.597584 C292.707244,266.337978 292.145243,266.943756 291.458352,266.943756 L288.985544,266.943756 C288.760743,268.38416 288.111319,269.703408 287.149671,270.726498 C285.900779,272.086132 284.202284,272.85345 282.428857,272.866911 L281.954277,272.866911 L288.710787,279.718926 C288.710787,279.732387 288.723276,279.732387 288.735765,279.745849 C289.210344,280.243933 289.222833,281.065098 288.760743,281.576643 C288.298653,282.128573 287.499361,282.155497 286.999804,281.643951 L277.95782,272.436137 C277.695553,272.180364 277.558175,271.803436 277.570664,271.426508 C277.595641,270.713037 278.157643,270.147645 278.819556,270.174568 L282.441345,270.174568 C283.55286,270.161106 284.614419,269.676484 285.388733,268.814935 C285.863312,268.289928 286.225491,267.643765 286.425314,266.943756 L278.819556,266.943756 C278.132665,266.943756 277.570664,266.337978 277.570664,265.597584 C277.570664,264.85719 278.132665,264.251412 278.819556,264.251412 L286.425314,264.251412 C285.850823,262.407157 284.25224,261.168679 282.441345,261.155217 L278.819556,261.155217 C278.132665,261.155217 277.570664,260.54944 277.570664,259.809045 C277.570664,259.068651 278.132665,258.462874 278.819556,258.462874 L291.458352,258.462874 C292.145243,258.462874 292.707244,259.068651 292.707244,259.809045 C292.707244,260.54944 292.145243,261.155217 291.445863,261.155217 L287.624251,261.155217 C288.33612,262.030229 288.810699,263.107166 288.985544,264.251412 Z"/>
    <path stroke="#979797" stroke-width="2" d="M122.007649,228.74964 C117.510016,230.316566 115.722853,233.299985 116.64616,237.699897 C118.031121,244.299764 121.237906,257.321865 127.797336,259.91271 C134.356766,262.503555 134.930102,261.145311 134.930102,257.868484 C133.535995,254.752442 132.838941,253.194421 132.838941,253.194421 L133.881633,233.404929 C125.965644,230.301403 122.007649,228.74964 122.007649,228.74964 Z"/>
    <g transform="translate(36.453 257.371)">
      <polygon fill="#979797" fill-rule="nonzero" points="0 9.482 49.088 9.482 49.088 6.321 0 6.321" opacity=".3"/>
      <polygon fill="#979797" fill-rule="nonzero" points="35.998 18.964 49.088 18.964 49.088 15.803 35.998 15.803" opacity=".2"/>
      <polygon fill="#979797" fill-rule="nonzero" points="209.442 104.3 261.802 104.3 261.802 101.14 209.442 101.14" opacity=".2"/>
      <polygon fill="#979797" fill-rule="nonzero" points="209.442 116.943 225.804 116.943 225.804 113.782 209.442 113.782" opacity=".5"/>
      <g transform="translate(49.088)">
        <path fill="#FFF" stroke="#ACACAC" stroke-width="2" d="M1,41.0731844 L126.62851,41.0731844 L126.62851,38.1174438 L67.377819,1 L60.4615332,1 L1,38.1184792 L1,41.0731844 Z"/>
        <polygon fill="#FAB909" fill-rule="nonzero" points="0 57.22 127.629 57.22 127.629 53.854 0 53.854"/>
        <polygon fill="#ACACAC" fill-rule="nonzero" points="17.483 57.22 17.483 104.341 20.98 104.341 20.98 57.22"/>
        <polygon fill="#ACACAC" fill-rule="nonzero" points="40.212 57.22 40.212 104.341 43.708 104.341 43.708 57.22"/>
        <polygon fill="#ACACAC" fill-rule="nonzero" points="61.192 57.22 61.192 104.341 64.688 104.341 64.688 57.22"/>
        <polygon fill="#ACACAC" fill-rule="nonzero" points="83.92 57.22 83.92 104.341 87.417 104.341 87.417 57.22"/>
        <path fill="#ACACAC" fill-rule="nonzero" d="M87.416,100.975643 L87.416,104.340643 L3.4966715,104.341497 L3.4966715,126.219553 L87.416,126.218643 L87.416,129.584643 L0,129.585408 L0,100.975643 L87.416,100.975643 Z"/>
      </g>
      <g stroke="#F26C63" stroke-linecap="round" stroke-width="1.5" transform="translate(147.264 69.534)">
        <path d="M27.6720839,14.7328493 L39.0175065,3.81166367 C44.2977195,-1.27055456 52.9376191,-1.27055456 58.2178321,3.81166367 L58.2178321,3.81166367 C63.4980451,8.8938819 63.4980451,17.209807 58.2178321,22.2920252 L43.3806558,36.5740326 C38.1004428,41.6562508 29.4605431,41.6562508 24.1803302,36.5740326 L24.1803302,36.5740326"/>
        <path d="M33.5306925,49.8829427 L23.7048763,59.3196581 C18.3005511,64.5099729 9.45756917,64.5099729 4.05324393,59.3196581 L4.05324393,59.3196581 C-1.35108131,54.1293433 -1.35108131,45.6365421 4.05324393,40.4462273 L18.3460293,26.719434 C23.7503545,21.5291192 32.5933364,21.5291192 37.9976617,26.719434 L37.9976617,26.719434"/>
        <line x1="38.861" x2="38.861" y1="52.677" y2="61.456"/>
        <line x1="44.906" x2="50.088" y1="52.677" y2="57.945"/>
        <line x1="46.633" x2="55.269" y1="48.287" y2="48.287"/>
        <line x1="18.135" x2="18.135" y1="12.291" y2="3.512"/>
        <line x1="12.09" x2="6.909" y1="12.291" y2="7.024"/>
        <line x1="12.09" x2="3.454" y1="18.437" y2="18.437"/>
      </g>
    </g>
    <path fill="#D8D8D8" d="M85.4077787,21.7316038 C99.8274503,25.3079007 108.752455,25.3079007 112.182793,21.7316038 C110.596262,9.53323066 100.939804,4.91042307 83.2134203,7.86318108 C74.8642222,11.7072835 70.417869,19.9198931 69.8743609,32.50101 C64.7945646,41.9793747 63.299082,50.0879654 65.3879129,56.8267821 C71.0735871,62.2472596 76.2491655,61.2478734 80.9146482,53.8286236 C83.3548192,45.8777696 83.3464426,40.9283865 80.8895186,38.9804742 C77.3142953,34.2067438 77.7495818,31.6537932 82.1953781,31.3216223 C85.2719684,32.3006893 86.4981362,29.4040047 85.8738815,22.6315686" transform="rotate(22 88.329 33.63)"/>
  </g>
</svg>
