<svg xmlns="http://www.w3.org/2000/svg" width="18" height="22" viewBox="0 0 18 22">
  <g fill="none" fill-rule="evenodd" transform="translate(1 1)">
    <g stroke="#079AFF" stroke-linecap="round" stroke-linejoin="round">
      <path d="M0,17.5 C0,16.1192881 1.11928813,15 2.5,15 L16,15"/>
      <path d="M2.5,0 L16,0 L16,20 L2.5,20 C1.11928813,20 0,18.8807119 0,17.5 L0,2.5 C0,1.11928813 1.11928813,0 2.5,0 Z"/>
    </g>
    <path fill="#079AFF" fill-rule="nonzero" d="M8.57777778,8.87435897 C8.56951567,8.82478632 8.56538462,8.75042735 8.56538462,8.65128205 C8.56538462,8.32079772 8.63974359,8.02336182 8.78846154,7.75897436 C8.93717949,7.49458689 9.16025641,7.19301994 9.45769231,6.8542735 C9.75512821,6.49900285 9.97820513,6.18917379 10.1269231,5.92478632 C10.275641,5.66039886 10.35,5.35883191 10.35,5.02008547 C10.35,4.38390313 10.1537749,3.88817664 9.76132479,3.53290598 C9.36887464,3.17763533 8.8462963,3 8.19358974,3 C7.35911681,3 6.62792023,3.3511396 6,4.0534188 L6,4.0534188 L6.70641026,4.69786325 C7.11125356,4.2517094 7.55740741,4.02863248 8.04487179,4.02863248 C8.39188034,4.02863248 8.66039886,4.12777778 8.85042735,4.32606838 C9.04045584,4.52435897 9.13547009,4.78461538 9.13547009,5.10683761 C9.13547009,5.33817664 9.07350427,5.55712251 8.94957265,5.76367521 C8.82564103,5.97022792 8.64387464,6.21809117 8.4042735,6.50726496 C8.0985755,6.87079772 7.86310541,7.20334758 7.69786325,7.50491453 C7.53262108,7.80648148 7.45,8.1514245 7.45,8.53974359 C7.45,8.59757835 7.45826211,8.70911681 7.47478632,8.87435897 L7.47478632,8.87435897 L8.57777778,8.87435897 Z M8.04487179,11.6008547 C8.28447293,11.6008547 8.48482906,11.5182336 8.64594017,11.3529915 C8.80705128,11.1877493 8.88760684,10.9770655 8.88760684,10.7209402 C8.88760684,10.4648148 8.80705128,10.2520655 8.64594017,10.0826923 C8.48482906,9.91331909 8.28447293,9.82863248 8.04487179,9.82863248 C7.80527066,9.82863248 7.60491453,9.91331909 7.44380342,10.0826923 C7.28269231,10.2520655 7.20213675,10.4648148 7.20213675,10.7209402 C7.20213675,10.9770655 7.28269231,11.1877493 7.44380342,11.3529915 C7.60491453,11.5182336 7.80527066,11.6008547 8.04487179,11.6008547 Z"/>
  </g>
</svg>
