<svg xmlns="http://www.w3.org/2000/svg" width="45" height="41" viewBox="0 0 45 41">
  <g fill="none" fill-rule="evenodd">
    <path fill="#FAB909" fill-rule="nonzero" d="M38.6621876,0.811320755 C39.3587668,1.07378739 40.031697,1.43135337 40.6624574,1.88693019 C42.5132506,3.22309337 43.7302756,5.20424205 44.0888618,7.46624449 C44.447448,9.72824692 43.9027443,11.9881768 42.5558015,13.8303593 L35.3851433,23.6383598 C34.9674215,24.2096682 34.4914242,24.7146047 33.9710954,25.1509434 C33.7844282,24.8243582 33.4423803,24.4894867 32.9464286,24.1446764 C33.4194919,23.7640586 33.8514328,23.3149701 34.2268516,22.8015184 L41.3960937,12.9937421 C42.5175517,11.4599498 42.9710924,9.57733603 42.6720846,7.69116101 C42.3730768,5.80498599 41.3593428,4.15383675 39.8183813,3.04135368 C39.3807273,2.72539335 38.9146851,2.46304182 38.4281915,2.25621657 C38.4001866,1.84955119 38.4759131,1.37818089 38.6520776,0.845994871 L38.6621876,0.811320755 Z"/>
    <path fill="#F26C63" fill-rule="nonzero" d="M34.289985,2.37405486 C36.1143891,3.66052271 37.3126233,5.56994736 37.6634913,7.7513799 C38.0143442,9.93281475 37.4739461,12.1134086 36.1425369,13.8920791 L29.0545728,23.3619331 C27.6754028,25.2044088 25.6556928,26.3334501 23.5082595,26.6683863 C21.3608238,27.0033078 19.0863636,26.5440152 17.1958148,25.2115076 C16.8798971,24.9887401 16.810904,24.5597836 17.0414536,24.2517853 C17.2720032,23.943787 17.7136494,23.8749048 18.029567,24.0976723 C21.1797464,26.3184011 25.6143769,25.6267452 27.9127971,22.5562149 L34.9993636,13.0865789 C36.1078885,11.6056664 36.5578454,9.78914308 36.2652797,7.97015045 C35.9727141,6.15115782 34.9746333,4.55978484 33.4556431,3.48867786 C31.936653,2.41757088 30.0695507,1.98797506 28.1960486,2.28017949 C26.3239441,2.57216594 24.6822264,3.54832603 23.5737015,5.02923856 L18.1537223,12.2699556 C17.9231727,12.5779539 17.4815265,12.6468361 17.1656089,12.4240686 C16.8496913,12.2013011 16.7806982,11.7723447 17.0112478,11.4643464 L22.431227,4.22362937 C25.1899384,0.536532703 30.5108747,-0.291966075 34.289985,2.37405486 Z"/>
    <path fill="#F26C63" fill-rule="nonzero" d="M24.8842827,30.3287435 C25.1108851,30.0244939 25.5440981,29.9558291 25.8546183,30.1764871 C26.1651385,30.3971451 26.2330464,30.8219103 26.0065515,31.126832 L21.5009819,37.1925119 C20.1936748,38.9533074 18.2582538,40.1140587 16.0504497,40.4604954 C13.8440166,40.8067016 11.6411545,40.2946039 9.84802747,39.0209899 C8.05490049,37.7473759 6.87687616,35.8563941 6.53152701,33.6962761 C6.18619267,31.5361557 6.71604139,29.3771897 8.02403522,27.6162865 L14.5784861,18.7922741 C17.28868,15.1420078 22.5175823,14.3229128 26.2321273,16.9636884 C26.5426475,17.1843464 26.6105554,17.6091116 26.3840605,17.9140333 C26.1575655,18.218955 25.7235584,18.2870555 25.4130382,18.0663975 C22.3175809,15.8679334 17.9601265,16.5502884 15.7014416,19.5902548 L9.14756997,28.4134874 C6.88967922,31.4540181 7.57144442,35.7184725 10.6671166,37.9182808 C12.1608417,38.9791375 13.9958267,39.4049673 15.8362368,39.1161865 C17.6766468,38.8274057 19.2896838,37.8605431 20.3787132,36.3944235 L24.8842827,30.3287435 Z"/>
    <path stroke="#ACACAC" d="M14.4642857 13.3867925L4.82142857 13.3867925M9.64285714 6.08490566L0 6.08490566"/>
  </g>
</svg>
