<?xml version="1.0" encoding="UTF-8"?>
<svg width="50px" height="44px" viewBox="0 0 50 44" version="1.1" xmlns="http://www.w3.org/2000/svg" xmlns:xlink="http://www.w3.org/1999/xlink">
    <!-- Generator: Sketch 59.1 (86144) - https://sketch.com -->
    <title>unlink copy</title>
    <desc>Created with Sketch.</desc>
    <g id="Linked-accounts" stroke="none" stroke-width="1" fill="none" fill-rule="evenodd">
        <g id="account-linked1-copy" transform="translate(-886.000000, -205.000000)">
            <g id="unlink-copy" style="mix-blend-mode: luminosity;" transform="translate(886.000000, 205.000000)">
                <path d="M43.1129446,0 C43.9797987,0.301938362 44.8172229,0.71327783 45.6021693,1.23736776 C47.9053785,2.7744733 49.4198985,5.05356218 49.8661391,7.65574172 C50.3123797,10.2579213 49.6345262,12.8577166 47.9583308,14.9769405 L39.034845,26.2599426 C38.5150134,26.9171687 37.9226612,27.4980414 37.2751409,28 C37.042844,27.6243005 36.6171844,27.2390684 36,26.8424029 C36.588701,26.404545 37.1262275,25.8879191 37.5934153,25.2972507 L46.5151388,14.0145064 C47.910731,12.2500507 48.4751372,10.0843152 48.1030386,7.9144829 C47.7309401,5.74465054 46.4694044,3.84518894 44.5517634,2.56540222 C44.0071273,2.20192537 43.4271637,1.90011943 42.8217494,1.66219023 C42.7868988,1.19436741 42.8811362,0.652108864 43.1003633,0.0398886733 L43.1129446,0 Z" id="Path" fill="#FAB909" fill-rule="nonzero"></path>
                <path d="M38.1713681,2.68539056 C40.179772,4.07283118 41.4988537,6.13212346 41.8851083,8.48477309 C42.2713465,10.8374252 41.6764467,13.1891703 40.2107586,15.1074457 L32.40794,25.3205732 C30.8896741,27.3076618 28.666267,28.5253197 26.3022549,28.8865445 C23.9382402,29.2477535 21.43439,28.7524117 19.3531704,27.3153178 C19.005391,27.0750656 18.9294397,26.6124411 19.1832413,26.2802685 C19.4370429,25.9480959 19.9232311,25.8738073 20.2710105,26.1140594 C23.7389004,28.5090895 28.6207841,27.7631467 31.1510109,24.4516155 L38.9522909,14.2387232 C40.1726158,12.6415762 40.6679529,10.682477 40.3458806,8.72071459 C40.0238083,6.75895219 38.9250664,5.04267492 37.2528789,3.8874985 C35.5806915,2.73232208 33.5252831,2.26900798 31.4628295,2.58414707 C29.4019145,2.89905106 27.5946218,3.95182836 26.374297,5.5489753 L20.4076874,13.3580044 C20.1538858,13.690177 19.6676976,13.7644656 19.3199182,13.5242135 C18.9721388,13.2839614 18.8961874,12.8213368 19.149989,12.4891643 L25.1165986,4.68013516 C28.153539,0.703644281 34.0111168,-0.189882017 38.1713681,2.68539056 Z" id="Path" fill="#F26C63" fill-rule="nonzero"></path>
                <path d="M28.2110545,32.6030423 C28.4592093,32.2643278 28.9336256,32.1878847 29.2736798,32.4335385 C29.6137339,32.6791923 29.6881006,33.1520742 29.4400635,33.4915369 L24.5059642,40.2443269 C23.0743177,42.2045823 20.9548166,43.4968216 18.5370258,43.882502 C16.1207364,44.2679258 13.7083576,43.6978186 11.7446843,42.2799317 C9.78101103,40.8620449 8.49094349,38.7568559 8.1127478,36.3520433 C7.73456833,33.9472281 8.31481155,31.5436981 9.74721012,29.5833227 L16.9250621,19.759741 C19.8930256,15.6959786 25.6192545,14.784098 29.6870941,17.7240162 C30.0271482,17.96967 30.1015149,18.4425519 29.8534778,18.7820146 C29.6054407,19.1214773 29.1301546,19.1972921 28.7901005,18.9516383 C25.4002308,16.5041359 20.6283341,17.263787 18.1548232,20.6481156 L10.9776055,30.4708291 C8.50496426,33.8557861 9.25157291,38.6033107 12.6416779,41.0523096 C14.2774729,42.2333384 16.2869854,42.7074054 18.3024388,42.385912 C20.3178923,42.0644187 22.084347,40.9880314 23.2769552,39.3558323 L28.2110545,32.6030423 Z" id="Path" fill="#F26C63" fill-rule="nonzero"></path>
                <line x1="18" y1="13.5" x2="6" y2="13.5" id="Path-9" stroke="#ACACAC"></line>
                <line x1="12" y1="6.5" x2="0" y2="6.5" id="Path-10" stroke="#ACACAC"></line>
            </g>
        </g>
    </g>
</svg>