<?xml version="1.0" encoding="UTF-8"?>
<svg width="522px" height="322px" viewBox="0 0 522 322" version="1.1" xmlns="http://www.w3.org/2000/svg" xmlns:xlink="http://www.w3.org/1999/xlink">
    <!-- Generator: Sketch 59.1 (86144) - https://sketch.com -->
    <title>link-account</title>
    <desc>Created with Sketch.</desc>
    <g id="Linked-accounts" stroke="none" stroke-width="1" fill="none" fill-rule="evenodd" opacity="0.229999989">
        <g id="account-linked--successfully" transform="translate(-759.000000, -458.000000)">
            <g id="link-account" transform="translate(759.000000, 458.000000)">
                <polygon id="Line-5" fill="#979797" fill-rule="nonzero" opacity="0.300000012" points="0 16.5071185 113.48644 16.5071185 113.48644 12.3803389 0 12.3803389"></polygon>
                <polygon id="Line-5" fill="#979797" fill-rule="nonzero" opacity="0.200000003" points="82.5355925 41.2677963 113.48644 41.2677963 113.48644 37.1410166 82.5355925 37.1410166"></polygon>
                <polygon id="Line-6" fill="#979797" fill-rule="nonzero" opacity="0.200000003" points="486.959996 253.058888 612.49631 253.058888 612.49631 248.932109 486.959996 248.932109"></polygon>
                <polygon id="Line-6" fill="#979797" fill-rule="nonzero" opacity="0.5" points="486.959996 277.819566 529.960717 277.819566 529.960717 273.692787 486.959996 273.692787"></polygon>
                <g id="bank-accounts" transform="translate(111.423050, 0.000000)">
                    <path d="M3.5,99.6694907 L297.754913,99.6694907 L297.754913,94.0101544 L158.67859,3.5 L143.072956,3.5 L3.5,94.0138022 L3.5,99.6694907 Z" id="Path-4" stroke="#ACACAC" stroke-width="7" fill="#FFFFFF"></path>
                    <polygon id="Path-5" fill="#FAB909" fill-rule="nonzero" points="0 140.310507 301.254913 140.310507 301.254913 132.056948 0 132.056948"></polygon>
                    <polygon id="Path-6" fill="#ACACAC" fill-rule="nonzero" points="41.2677963 140.310507 41.2677963 255.860337 49.5213555 255.860337 49.5213555 140.310507"></polygon>
                    <polygon id="Path-6" fill="#ACACAC" fill-rule="nonzero" points="94.9159314 140.310507 94.9159314 255.860337 103.169491 255.860337 103.169491 140.310507"></polygon>
                    <polygon id="Path-6" fill="#ACACAC" fill-rule="nonzero" points="144.437287 140.310507 144.437287 255.860337 152.690846 255.860337 152.690846 140.310507"></polygon>
                    <polygon id="Path-6" fill="#ACACAC" fill-rule="nonzero" points="198.085422 140.310507 198.085422 255.860337 206.338981 255.860337 206.338981 140.310507"></polygon>
                    <polygon id="Path-6" fill="#ACACAC" fill-rule="nonzero" points="251.733557 140.310507 251.733557 189.831863 259.987117 189.831863 259.987117 140.310507"></polygon>
                    <path d="M206.338,247.606778 L206.338,255.859778 L8.25355925,255.860337 L8.25355925,309.508472 L206.338,309.507778 L206.338,317.761778 L0,317.762031 L0,247.606778 L206.338,247.606778 Z" id="Combined-Shape" fill="#ACACAC" fill-rule="nonzero"></path>
                </g>
                <g id="unlink" transform="translate(338.395929, 164.368755)" fill="#F26C63" fill-rule="nonzero">
                    <path d="M146.255077,11.0491984 C132.126509,-2.89207641 109.125672,-2.89803549 94.9910621,11.0491984 L67.2233058,38.4371442 C66.0421491,39.602145 66.0421491,41.4852152 67.2233058,42.6502159 C68.4044626,43.8152167 70.3136469,43.8152167 71.4948036,42.6502159 L99.2625599,15.2622702 C104.941779,9.66073207 112.527161,6.57690659 120.620049,6.57690659 C128.718978,6.57690659 136.301339,9.66371162 141.980558,15.2652497 C147.659777,20.8667878 150.78939,28.3484166 150.78939,36.3335879 C150.78939,44.3187592 147.659777,51.7974085 141.980558,57.3989465 L105.672827,93.2189949 C93.8975104,104.833248 74.7271251,104.833248 62.9487872,93.2189949 C61.7676305,92.0539941 59.8584462,92.0539941 58.6772894,93.2189949 C57.4961327,94.3839956 57.4961327,96.2670658 58.6772894,97.4320666 C65.7461047,104.401214 75.0261904,107.887278 84.3092969,107.887278 C93.5924034,107.887278 102.87551,104.401214 109.941304,97.4320666 L146.255077,61.6120183 C153.076182,54.8842135 156.834133,45.9068548 156.834133,36.3306083 C156.834133,26.7543619 153.076182,17.7770032 146.255077,11.0491984 Z" id="Path"></path>
                    <path d="M79.4187355,120.304329 L56.4052263,143.039265 C50.8426913,148.534467 43.4131565,151.562674 35.4835854,151.562674 C27.5540142,151.562674 20.1274382,148.534467 14.5619444,143.039265 C3.02856065,131.645491 3.02856065,113.099184 14.5619444,101.702487 L48.0377535,68.6318947 C59.574096,57.2381199 78.3476517,57.2439659 89.8810354,68.6318947 C91.0379243,69.7747798 92.9078829,69.7747798 94.0647718,68.6318947 C95.2216608,67.4890097 95.2216608,65.6416865 94.0647718,64.4988014 C80.2264866,50.8221796 57.6982198,50.8163336 43.854017,64.4988014 L10.3752492,97.5723165 C3.69428957,104.172405 0.0165071185,112.979342 0.0165071185,122.373799 C0.0165071185,131.768256 3.69724837,140.575193 10.378208,147.172359 C17.0591676,153.769524 25.9740175,157.408633 35.4806266,157.408633 C44.9931532,157.408633 53.9080032,153.772447 60.586004,147.172359 L83.5995132,124.437423 C84.7564021,123.294538 84.7564021,121.447214 83.5995132,120.304329 C82.4426242,119.161444 80.5756245,119.164367 79.4187355,120.304329 Z" id="Path"></path>
                </g>
            </g>
        </g>
    </g>
</svg>