<svg xmlns="http://www.w3.org/2000/svg" width="22" height="33" viewBox="0 0 22 33">
  <g stroke="#FFF" transform="translate(1 1)">
    <path d="M17.1460843,11.4730798 L17.1460843,7.15949735 C17.1460843,3.21159639 13.9342527,0 9.98658699,0 C6.03868602,0 2.82708964,3.21159639 2.82708964,7.15949735 L2.82708964,11.4730798 L0,11.4730798 L0,30.8433735 L19.973174,30.8433735 L19.973174,11.4730798 L17.1460843,11.4730798 Z M4.63431855,7.15949735 C4.63431855,4.20816078 7.03525036,1.80722892 9.98658699,1.80722892 C12.9379236,1.80722892 15.3388554,4.20816078 15.3388554,7.15949735 L15.3388554,11.4730798 L4.63431855,11.4730798 L4.63431855,7.15949735 Z M18.1659451,29.0361446 L1.80722892,29.0361446 L1.80722892,13.2803087 L18.1659451,13.2803087 L18.1659451,29.0361446 Z"/>
    <path d="M9.08297253,22.9835749 L9.08297253,26.2441171 L10.8902014,26.2441171 L10.8902014,22.9835749 C12.4409356,22.5816548 13.5897496,21.1702278 13.5897496,19.4952466 C13.5897496,17.5087067 11.9733622,15.8923193 9.98658699,15.8923193 C7.99981175,15.8923193 6.38342434,17.5084714 6.38342434,19.4952466 C6.38342434,21.1702278 7.53200301,22.5816548 9.08297253,22.9835749 L9.08297253,22.9835749 Z M9.98658699,17.6995482 C10.9767978,17.6995482 11.7825207,18.5050358 11.7825207,19.4954819 C11.7825207,20.4856928 10.9767978,21.2911804 9.98658699,21.2911804 C8.99637614,21.2911804 8.19065325,20.4856928 8.19065325,19.4952466 C8.19065325,18.5050358 8.99637614,17.6995482 9.98658699,17.6995482 Z"/>
  </g>
</svg>
