<svg xmlns="http://www.w3.org/2000/svg" width="38" height="26" viewBox="0 0 38 26">
  <g fill="#079AFF">
    <path d="M35.6710874,13.8262328 L10.0856297,13.8262328 C9.59098527,13.8262328 9.18953786,13.4313882 9.18953786,12.9448793 C9.18953786,12.4583705 9.59098527,12.0635259 10.0856297,12.0635259 L35.6710874,12.0635259 C36.1657318,12.0635259 36.5671792,12.4583705 36.5671792,12.9448793 C36.5671792,13.4313882 36.1657318,13.8262328 35.6710874,13.8262328 Z" transform="matrix(-1 0 0 1 45.757 0)"/>
    <path d="M36.8939176,18.526713 C36.6644252,18.526713 36.4351518,18.4410737 36.2605714,18.2682888 L31.4814878,13.5678086 C31.131452,13.2233148 31.131452,12.6651529 31.4814878,12.3208742 L36.2605714,7.620394 C36.6106073,7.27611529 37.178103,7.27611529 37.5283576,7.620394 C37.8783935,7.9646727 37.8783935,8.52283453 37.5283576,8.86711323 L33.3824014,12.9448793 L37.5283576,17.0226455 C37.8783935,17.3669242 37.8783935,17.925086 37.5283576,18.2693647 C37.3526833,18.4410737 37.1231911,18.526713 36.8939176,18.526713 L36.8939176,18.526713 Z" transform="matrix(-1 0 0 1 69.01 0)"/>
    <path d="M13.1427533,25.8714689 C5.89635431,25.8714689 0,20.0720941 0,12.9448793 C0,5.81766459 5.89635431,0.0182897925 13.1427533,0.0182897925 C18.580123,0.0182897925 23.380865,3.23578952 25.3749757,8.21621132 C25.5565567,8.6685075 25.329471,9.17976137 24.8696114,9.35943178 C24.409533,9.53587462 23.8897297,9.31596662 23.7070547,8.86130357 C21.9853158,4.56018662 17.8382657,1.78099677 13.1427533,1.78099677 C6.88433057,1.78099677 1.79218368,6.7896064 1.79218368,12.9448793 C1.79218368,19.1001523 6.88433057,24.1087619 13.1427533,24.1087619 C17.8382657,24.1087619 21.9853158,21.3295721 23.7070547,17.0297462 C23.8886358,16.574868 24.4084391,16.3551751 24.8696114,16.5314028 C25.329471,16.7099973 25.5565567,17.2223271 25.3749757,17.6748384 C23.380865,22.6539692 18.580123,25.8714689 13.1427533,25.8714689 Z"/>
  </g>
</svg>
