<svg xmlns="http://www.w3.org/2000/svg" width="18" height="17" viewBox="0 0 18 17">
  <path fill="#FFF" d="M16.8316343 17L1.16875528 17C.523212778 17 0 16.5523333 0 16 0 15.4476667.523212778 15 1.16875528 15L16.8312447 15C17.4767872 15 18 15.4476667 18 16 18 16.5523333 17.4771768 17 16.8316343 17zM16.8316341 10L1.16875526 10C.523212772 10 0 9.55233333 0 9 0 8.44766667.523212772 8 1.16875526 8L16.8312445 8C17.476787 8 18 8.44766667 18 9 18.0003894 9.55233333 17.4771766 10 16.8316341 10zM16.8316343 2L1.16875528 2C.523212778 2 0 1.55233333 0 1 0 .447666667.523212778 0 1.16875528 0L16.8312447 0C17.4767872 0 18 .447666667 18 1 18 1.55233333 17.4771768 2 16.8316343 2z"/>
</svg>
