<svg xmlns="http://www.w3.org/2000/svg" width="44" height="39" viewBox="0 0 44 39">
  <g fill="none" fill-rule="evenodd">
    <path fill="#F26C63" fill-rule="nonzero" d="M43.140678,0 L13.5606873,0 C13.0860611,0 12.7014798,0.388835925 12.7014798,0.868712968 L12.7014798,18.1390743 L4.85920741,18.1390743 C4.38458124,18.1390743 4,18.5279102 4,19.0077872 L4,33.7322404 C4,36.6367532 6.33704415,39 9.20989005,39 C9.28389645,39 38.7898808,39 38.7898808,39 C41.6626122,39 44,36.6368691 44,33.7322404 L44,0.868712968 C44,0.388835925 43.6153042,0 43.140678,0 Z M5.2010182,34.3404183 L5.20084635,19.5 L12.7014798,19.5 L12.7016517,34.3404183 C12.7016517,36.2869145 11.1353739,37.870752 9.20994733,37.870752 C7.28486449,37.870752 5.2010182,36.2869145 5.2010182,34.3404183 Z M42.7642702,34.1623665 C42.7642702,36.1088627 41.1979924,37.6927002 39.2725658,37.6927002 L12.5097991,37.6927002 C13.3459797,36.757965 13.8561198,35.5190645 13.8561198,34.1623665 L13.8597532,1.32285156 L42.7679036,1.32285156 L42.7642702,34.1623665 Z"/>
    <path stroke="#ACACAC" d="M11 10.5L4 10.5M7 4.5L0 4.5"/>
    <g transform="translate(17 9)">
      <g fill="#F26C63" transform="translate(3.5 4.632)">
        <path fill-rule="nonzero" d="M16.5990741,6.75438596 L14.9618519,6.75438596 C14.6987037,6.75438596 14.4818981,6.61061404 14.3811111,6.36938596 C14.2803241,6.12815789 14.3315278,5.87406433 14.5172222,5.68944444 L15.6748148,4.54087719 C15.8449537,4.37201754 15.9386111,4.14719298 15.9386111,3.90853801 C15.9386111,3.6695614 15.8449537,3.44505848 15.6748148,3.27587719 L14.1993056,1.81146199 C13.8590278,1.47374269 13.2656481,1.47309942 12.9247222,1.81146199 L11.7674537,2.96002924 C11.5814352,3.14432749 11.3247685,3.19578947 11.0823611,3.0954386 C10.8393056,2.99540936 10.6944444,2.78023392 10.6944444,2.51906433 L10.6944444,0.894152047 C10.6944444,0.401081871 10.2903241,0 9.79351852,0 L7.70648148,0 C7.20967593,0 6.80555556,0.401081871 6.80555556,0.894152047 L6.80555556,2.51906433 C6.80555556,2.78023392 6.66069444,2.99540936 6.41763889,3.0954386 C6.17523148,3.19611111 5.91856481,3.14432749 5.7325463,2.96002924 L4.57527778,1.81146199 C4.23435185,1.47309942 3.64097222,1.47374269 3.30069444,1.81146199 L1.82518519,3.27587719 C1.6550463,3.44473684 1.56138889,3.6695614 1.56138889,3.90853801 C1.56138889,4.14719298 1.6550463,4.37169591 1.82518519,4.54087719 L2.98277778,5.68944444 C3.16847222,5.87406433 3.21935185,6.12815789 3.11888889,6.36938596 C3.01842593,6.61061404 2.8012963,6.75438596 2.53814815,6.75438596 L0.900925926,6.75438596 C0.40412037,6.75438596 0,7.15546784 0,7.64853801 L0,9.7195614 C0,10.2129532 0.40412037,10.6140351 0.900925926,10.6140351 L2.53814815,10.6140351 C2.8012963,10.6140351 3.01810185,10.757807 3.11888889,10.9990351 C3.21967593,11.2402632 3.16847222,11.4943567 2.98277778,11.6789766 L1.82518519,12.8275439 C1.6550463,12.9964035 1.56138889,13.2212281 1.56138889,13.459883 C1.56138889,13.6988596 1.6550463,13.9233626 1.82518519,14.0925439 L3.30069444,15.5569591 C3.6412963,15.895 4.23435185,15.8956433 4.57527778,15.5569591 L5.7325463,14.4080702 C5.91856481,14.2237719 6.17425926,14.1729532 6.41763889,14.2729825 C6.66069444,14.3730117 6.80555556,14.5881871 6.80555556,14.8493567 L6.80555556,16.474269 C6.80555556,16.9673392 7.20967593,17.3684211 7.70648148,17.3684211 L9.79319444,17.3684211 C10.29,17.3684211 10.6941204,16.9673392 10.6941204,16.474269 L10.6941204,14.8493567 C10.6941204,14.5881871 10.8389815,14.3730117 11.082037,14.2729825 C11.3254167,14.1726316 11.5811111,14.2237719 11.7671296,14.4080702 L12.9243981,15.5569591 C13.2653241,15.8953216 13.8587037,15.8946784 14.1989815,15.5569591 L15.6744907,14.0925439 C15.8446296,13.9236842 15.938287,13.6988596 15.938287,13.459883 C15.938287,13.2212281 15.8446296,12.9967251 15.6744907,12.8275439 L14.5168981,11.6789766 C14.3312037,11.4943567 14.2803241,11.2402632 14.380787,10.9990351 C14.48125,10.757807 14.6987037,10.6140351 14.9618519,10.6140351 L16.5990741,10.6140351 C17.0958796,10.6140351 17.5,10.2129532 17.5,9.71988304 L17.5,7.64853801 C17.5,7.15546784 17.0958796,6.75438596 16.5990741,6.75438596 Z M16.8518519,9.71988304 C16.8518519,9.85818713 16.7384259,9.97076023 16.5990741,9.97076023 L14.9618519,9.97076023 C14.4355556,9.97076023 13.9834722,10.2705263 13.7822222,10.7529825 C13.5806481,11.2354386 13.6866204,11.7648538 14.0589815,12.1340936 L15.2165741,13.2826608 C15.3154167,13.3807602 15.3154167,13.5399708 15.2165741,13.6377485 L13.7410648,15.1021637 C13.6425463,15.1999415 13.4821296,15.2005848 13.383287,15.1021637 L12.2260185,13.9532749 C11.8536574,13.5837135 11.3205556,13.4791813 10.8344444,13.6785965 C10.3483333,13.8783333 10.0462963,14.3270175 10.0462963,14.8493567 L10.0462963,16.474269 C10.0462963,16.6125731 9.93287037,16.7251462 9.79351852,16.7251462 L7.70648148,16.7251462 C7.56712963,16.7251462 7.4537037,16.6125731 7.4537037,16.474269 L7.4537037,14.8493567 C7.4537037,14.3270175 7.15166667,13.8783333 6.66555556,13.6785965 C6.5025463,13.6113743 6.33467593,13.5785673 6.16875,13.5785673 C5.84013889,13.5785673 5.52157407,13.7072222 5.27398148,13.9529532 L4.11671296,15.1018421 C4.0175463,15.2002632 3.85712963,15.1996199 3.75893519,15.1018421 L2.28342593,13.6374269 C2.18458333,13.5393275 2.18458333,13.380117 2.28342593,13.2823392 L3.44101852,12.1337719 C3.81305556,11.7645322 3.91935185,11.235117 3.71777778,10.7526608 C3.51652778,10.2705263 3.06444444,9.97076023 2.53814815,9.97076023 L0.900925926,9.97076023 C0.761574074,9.97076023 0.648148148,9.85818713 0.648148148,9.71988304 L0.648148148,7.64853801 C0.648148148,7.51023392 0.761574074,7.39766082 0.900925926,7.39766082 L2.53814815,7.39766082 C3.06444444,7.39766082 3.51652778,7.09789474 3.71777778,6.6154386 C3.91935185,6.13298246 3.81337963,5.60356725 3.44101852,5.23432749 L2.28342593,4.08576023 C2.18458333,3.98766082 2.18458333,3.82845029 2.28342593,3.73067251 L3.75893519,2.26625731 C3.8574537,2.16815789 4.01787037,2.16815789 4.11671296,2.26625731 L5.27398148,3.41482456 C5.64569444,3.78374269 6.1787963,3.8895614 6.66555556,3.68950292 C7.15166667,3.49008772 7.4537037,3.04140351 7.4537037,2.51906433 L7.4537037,0.894152047 C7.4537037,0.755847953 7.56712963,0.643274854 7.70648148,0.643274854 L9.79319444,0.643274854 C9.93287037,0.643274854 10.0462963,0.755847953 10.0462963,0.894152047 L10.0462963,2.51906433 C10.0462963,3.04140351 10.3483333,3.49008772 10.8344444,3.68982456 C11.3212037,3.88988304 11.8539815,3.78438596 12.2260185,3.4151462 L13.383287,2.26657895 C13.4824537,2.16847953 13.6428704,2.16847953 13.7410648,2.26657895 L15.2165741,3.73099415 C15.3154167,3.82909357 15.3154167,3.98830409 15.2165741,4.08608187 L14.0589815,5.23464912 C13.6869444,5.60388889 13.5806481,6.13330409 13.7822222,6.61576023 C13.9834722,7.09821637 14.4355556,7.39798246 14.9618519,7.39798246 L16.5990741,7.39798246 C16.7384259,7.39766082 16.8518519,7.51023392 16.8518519,7.64853801 L16.8518519,9.71988304 Z"/>
        <path fill-rule="nonzero" d="M8.75,5.78947368 C7.14162037,5.78947368 5.83333333,7.08792398 5.83333333,8.68421053 C5.83333333,10.2804971 7.14162037,11.5789474 8.75,11.5789474 C10.3583796,11.5789474 11.6666667,10.2804971 11.6666667,8.68421053 C11.6666667,7.08792398 10.3583796,5.78947368 8.75,5.78947368 Z M8.75,10.9356725 C7.49939815,10.9356725 6.48148148,9.92540936 6.48148148,8.68421053 C6.48148148,7.4430117 7.49939815,6.43274854 8.75,6.43274854 C10.0006019,6.43274854 11.0185185,7.4430117 11.0185185,8.68421053 C11.0185185,9.92540936 10.0006019,10.9356725 8.75,10.9356725 Z"/>
      </g>
      <rect width="14.583" height="8.684" y="1.737" fill="#FFF"/>
      <path fill="#FAB909" fill-rule="nonzero" d="M16.6985243,0.146097417 L9.65462044,7.65341921 L5.41104533,4.43729818 C5.21396819,4.28749911 4.92476893,4.31832732 4.76710722,4.50503342 C4.60898718,4.69260791 4.64106951,4.96571985 4.83860497,5.11551893 L9.42179441,8.58912068 C9.5061251,8.65294811 9.60741359,8.68421053 9.70824375,8.68421053 C9.83473978,8.68421053 9.96077749,8.6347117 10.0510663,8.53831925 L17.3841694,0.722715308 C17.5523725,0.543824817 17.5354147,0.268976079 17.346129,0.110058799 C17.1563849,-0.0497268821 16.8671857,-0.033661474 16.6985243,0.146097417 Z"/>
    </g>
  </g>
</svg>
