<svg xmlns="http://www.w3.org/2000/svg" width="30" height="18" viewBox="0 0 30 18">
  <path d="M24.3180469 8.55339844C22.8236133 8.55339844 21.607793 7.33757812 21.607793 5.84314453 21.607793 4.34871094 22.8236133 3.13289063 24.3180469 3.13289063 25.8124805 3.13289063 27.0283008 4.34871094 27.0283008 5.84314453 27.0283008 7.33757812 25.8124805 8.55339844 24.3180469 8.55339844zM24.3180469 4.03851563C23.3229492 4.03851563 22.5133594 4.84810547 22.5133594 5.84320313 22.5133594 6.83830078 23.3229492 7.64789063 24.3180469 7.64789063 25.3131445 7.64789063 26.1227344 6.83830078 26.1227344 5.84320313 26.1227344 4.84810547 25.3132031 4.03851563 24.3180469 4.03851563zM13.6368164 5.78958984L3.76921875 5.78958984C3.51914062 5.78958984 3.31646484 5.58691406 3.31646484 5.33683594 3.31646484 5.08675781 3.51919922 4.88408203 3.76921875 4.88408203L13.6368164 4.88408203C13.8868945 4.88408203 14.0895703 5.08675781 14.0895703 5.33683594 14.0895703 5.58691406 13.8868945 5.78958984 13.6368164 5.78958984zM17.9760938 7.89333984L3.76921875 7.89333984C3.51914062 7.89333984 3.31646484 7.69066406 3.31646484 7.44058594 3.31646484 7.19050781 3.51919922 6.98783203 3.76921875 6.98783203L17.9760938 6.98783203C18.2261719 6.98783203 18.4288477 7.19050781 18.4288477 7.44058594 18.4288477 7.69066406 18.2261719 7.89333984 17.9760938 7.89333984zM11.2523437 12.2851758L3.76921875 12.2851758C3.51914062 12.2851758 3.31646484 12.0825 3.31646484 11.8324219 3.31646484 11.5823438 3.51919922 11.379668 3.76921875 11.379668L11.2523437 11.379668C11.5024219 11.379668 11.7050977 11.5823438 11.7050977 11.8324219 11.7050977 12.0825 11.5024219 12.2851758 11.2523437 12.2851758zM28.5745898 17.4343945L22.1899805 17.4343945C21.9399023 17.4343945 21.7372266 17.2317187 21.7372266 16.9816406 21.7372266 16.7315625 21.9399609 16.5288867 22.1899805 16.5288867L28.5745898 16.5288867C28.8612891 16.5288867 29.0944336 16.2956836 29.0944336 16.009043L29.0944336 4.67894531C29.0944336 4.42886719 29.297168 4.22619141 29.5471875 4.22619141 29.797207 4.22619141 29.9999414 4.42886719 29.9999414 4.67894531L29.9999414 16.0089844C29.9999414 16.7949609 29.3605664 17.4343945 28.5745898 17.4343945L28.5745898 17.4343945z"/>
  <path d="M20.1869531,17.4343945 L1.42541016,17.4343945 C0.639433594,17.4343945 0,16.7949609 0,16.0089258 L0,1.45201172 C0,0.666035156 0.639433594,0.0266015625 1.42541016,0.0266015625 L28.5745312,0.0266015625 C29.3605078,0.0266015625 29.9999414,0.666035156 29.9999414,1.45201172 L29.9999414,2.67052734 C29.9999414,2.92060547 29.797207,3.12328125 29.5471875,3.12328125 C29.297168,3.12328125 29.0944336,2.92060547 29.0944336,2.67052734 L29.0944336,1.45201172 C29.0944336,1.16537109 28.8612305,0.932167969 28.5745898,0.932167969 L1.42541016,0.932167969 C1.13876953,0.932167969 0.905566406,1.16537109 0.905566406,1.45201172 L0.905566406,16.0089844 C0.905566406,16.295625 1.13876953,16.5288281 1.42541016,16.5288281 L20.1868945,16.5288281 C20.4369727,16.5288281 20.6396484,16.7315039 20.6396484,16.981582 C20.639707,17.2316602 20.4369727,17.4343945 20.1869531,17.4343945 Z"/>
  <path d="M24.3180469 8.55339844C22.8236133 8.55339844 21.607793 7.33757812 21.607793 5.84314453 21.607793 4.34871094 22.8236133 3.13289063 24.3180469 3.13289063 25.8124805 3.13289063 27.0283008 4.34871094 27.0283008 5.84314453 27.0283008 7.33757812 25.8124805 8.55339844 24.3180469 8.55339844zM24.3180469 4.03851563C23.3229492 4.03851563 22.5133594 4.84810547 22.5133594 5.84320313 22.5133594 6.83830078 23.3229492 7.64789063 24.3180469 7.64789063 25.3131445 7.64789063 26.1227344 6.83830078 26.1227344 5.84320313 26.1227344 4.84810547 25.3132031 4.03851563 24.3180469 4.03851563zM13.6368164 5.78958984L3.76921875 5.78958984C3.51914062 5.78958984 3.31646484 5.58691406 3.31646484 5.33683594 3.31646484 5.08675781 3.51919922 4.88408203 3.76921875 4.88408203L13.6368164 4.88408203C13.8868945 4.88408203 14.0895703 5.08675781 14.0895703 5.33683594 14.0895703 5.58691406 13.8868945 5.78958984 13.6368164 5.78958984zM17.9760938 7.89333984L3.76921875 7.89333984C3.51914062 7.89333984 3.31646484 7.69066406 3.31646484 7.44058594 3.31646484 7.19050781 3.51919922 6.98783203 3.76921875 6.98783203L17.9760938 6.98783203C18.2261719 6.98783203 18.4288477 7.19050781 18.4288477 7.44058594 18.4288477 7.69066406 18.2261719 7.89333984 17.9760938 7.89333984zM11.2523437 12.2851758L3.76921875 12.2851758C3.51914062 12.2851758 3.31646484 12.0825 3.31646484 11.8324219 3.31646484 11.5823438 3.51919922 11.379668 3.76921875 11.379668L11.2523437 11.379668C11.5024219 11.379668 11.7050977 11.5823438 11.7050977 11.8324219 11.7050977 12.0825 11.5024219 12.2851758 11.2523437 12.2851758z"/>
</svg>
