<svg xmlns="http://www.w3.org/2000/svg" width="161" height="48" viewBox="0 0 161 48">
  <g fill="#FFF" transform="translate(.5 .238)">
    <path d="M38.4964706 38.9411234L38.4964706 27.2490932C38.4964706 25.776767 38.1609412 24.6766395 37.4912941 23.9515342 36.8197647 23.2254877 35.7703529 22.8631703 34.3407059 22.8631703 32.4494118 22.8631703 31.0644706 23.3746495 30.1849412 24.3971375 29.3049412 25.4196255 28.8654118 27.1074601 28.8654118 29.4592295L28.8654118 38.9411234 26.1275294 38.9411234 26.1275294 20.8680718 28.9435294 20.8680718 28.9312941 23.3417116C29.4922353 22.4509754 30.2776471 21.7611607 31.2898824 21.2722674 32.3011765 20.7829036 33.4277647 20.5382217 34.6701176 20.5382217 36.8475294 20.5382217 38.4856471 21.0633467 39.5849412 22.1126556 40.6842353 23.1633761 41.2343529 24.8417998 41.2343529 27.1507499L41.2343529 38.9411234 38.4964706 38.9411234zM51.9341176 39.2705029C49.2630588 39.2705029 47.1543529 38.4578767 45.6094118 36.829801 44.0649412 35.2026664 43.2931765 32.9435938 43.2931765 30.0525831 43.2931765 27.1399275 44.0108235 24.8258014 45.4451765 23.1106754 46.88 21.39602 48.8065882 20.5382217 51.2254118 20.5382217 53.4898824 20.5382217 55.2823529 21.2830899 56.6014118 22.7723557 57.9209412 24.2625625 58.5807059 26.2266052 58.5807059 28.6682482L58.5807059 30.3998432 46.1294118 30.3998432C46.1844706 32.521988 46.7195294 34.1326537 47.7374118 35.2323106 48.7543529 36.3310264 50.1858824 36.8806195 52.0338824 36.8806195 53.9792941 36.8806195 55.9035294 36.4736006 57.8056471 35.6600333L57.8056471 38.1007352C56.8381176 38.5185766 55.9228235 38.8178414 55.0597647 38.9990001 54.1962353 39.1810999 53.1543529 39.2705029 51.9341176 39.2705029zM51.1924706 22.8302323C49.7416471 22.8302323 48.5844706 23.3035977 47.7214118 24.2484462 46.8578824 25.1947064 46.3491765 26.5018724 46.1952941 28.1737085L55.6451765 28.1737085C55.6451765 26.44776 55.2597647 25.1255367 54.4908235 24.2075091 53.7209412 23.2894814 52.6211765 22.8302323 51.1924706 22.8302323zM107.666824 33.6484658C107.182588 34.7754142 106.519529 35.7574355 105.679529 36.5987648 104.838588 37.4396236 103.841882 38.1021468 102.687059 38.5868052 101.533176 39.0705225 100.300235 39.3137928 98.9896471 39.3137928 97.6489412 39.3137928 96.4103529 39.0705225 95.2696471 38.5868052 94.1294118 38.1026174 93.1392941 37.4396236 92.2992941 36.5987648 91.4583529 35.7579061 90.8023529 34.7754142 90.3327059 33.6484658 89.8616471 32.5233997 89.6268235 31.3338692 89.6268235 30.079404 89.6268235 28.8254093 89.8696471 27.6358788 90.3538824 26.5098716 90.8376471 25.3848054 91.5011765 24.401843 92.3421176 23.5605137 93.1825882 22.7196549 94.1727059 22.0510146 95.3134118 21.5512989 96.4527059 21.0529948 97.6781176 20.8036075 98.9896471 20.8036075 100.300235 20.8036075 101.533176 21.0534653 102.687059 21.5512989 103.841882 22.0510146 104.838588 22.7196549 105.679529 23.5605137 106.519529 24.401843 107.182118 25.3848054 107.666824 26.5098716 108.151529 27.6358788 108.394353 28.8254093 108.394353 30.079404 108.394353 31.3338692 108.151529 32.5233997 107.666824 33.6484658zM105.145412 27.4057837C104.789176 26.5715126 104.304471 25.8426429 103.695059 25.217763 103.084706 24.5933536 102.378824 24.1021076 101.574588 23.7454367 100.771765 23.3887658 99.9232941 23.2104303 99.0310588 23.2104303 98.1675294 23.2104303 97.3355294 23.3887658 96.5317647 23.7454367 95.7289412 24.1021076 95.0207059 24.5933536 94.4122353 25.217763 93.8014118 25.8426429 93.3181176 26.5715126 92.9609412 27.4057837 92.6032941 28.2377022 92.4254118 29.1157338 92.4254118 30.0375257 92.4254118 30.9889619 92.6032941 31.8749926 92.9609412 32.6932654 93.3181176 33.5115381 93.8014118 34.2253505 94.4122353 34.8356436 95.0207059 35.4449956 95.7204706 35.9277718 96.5091765 36.2853838 97.2974118 36.6425252 98.1383529 36.8213312 99.0305882 36.8213312 99.9228235 36.8213312 100.771294 36.6425252 101.574118 36.2853838 102.378353 35.9277718 103.084235 35.4449956 103.694588 34.8356436 104.304 34.2253505 104.788706 33.5120086 105.144941 32.6932654 105.502588 31.8754632 105.680471 30.9894324 105.680471 30.0375257 105.680471 29.1157338 105.502588 28.2377022 105.145412 27.4057837zM136.165647 39.2705029C133.494588 39.2705029 131.386824 38.4578767 129.841882 36.829801 128.296471 35.2026664 127.524235 32.9435938 127.524235 30.0525831 127.524235 27.1399275 128.240941 24.8258014 129.675765 23.1106754 131.111059 21.39602 133.038118 20.5382217 135.456471 20.5382217 137.721412 20.5382217 139.513412 21.2830899 140.832941 22.7723557 142.152471 24.2625625 142.811765 26.2266052 142.811765 28.6682482L142.811765 30.3998432 130.360941 30.3998432C130.415529 32.521988 130.951529 34.1326537 131.968471 35.2323106 132.985412 36.3310264 134.417412 36.8806195 136.264471 36.8806195 138.211294 36.8806195 140.134588 36.4736006 142.037176 35.6600333L142.037176 38.1007352C141.069176 38.5185766 140.153882 38.8178414 139.291294 38.9990001 138.427765 39.1810999 137.386824 39.2705029 136.165647 39.2705029zM135.423529 22.8302323C133.972706 22.8302323 132.814588 23.3035977 131.952 24.2484462 131.089412 25.1947064 130.580706 26.5018724 130.427294 28.1737085L139.876706 28.1737085C139.876706 26.44776 139.491765 25.1255367 138.721882 24.2075091 137.952471 23.2894814 136.853176 22.8302323 135.423529 22.8302323z"/>
    <path d="M142.708235 20.8680718L145.643294 20.8680718C145.643294 20.8680718 151.224 34.8008234 151.432471 35.8458975 151.432471 35.8458975 154.196706 27.8598569 156.725647 20.8680718L159.661176 20.8680718 151.894118 41.4472307C151.123294 43.4818547 150.224471 44.9250074 149.196706 45.776218 148.169412 46.6283698 146.907294 47.0546809 145.412235 47.0546809 144.577412 47.0546809 143.752471 46.9605725 142.938824 46.7732967L142.938824 44.5805705C143.543529 44.7127929 144.219294 44.7786688 144.967059 44.7786688 146.846588 44.7786688 148.188235 43.7227723 148.991529 41.6128615L149.997176 39.0389962 142.708235 20.8680718zM11.7195294 15.9231448C13.3628235 15.9231448 14.8992941 16.2327615 16.3298824 16.8510538 17.7595294 17.4712283 19.0032941 18.3097343 20.0621176 19.3670424 21.1195294 20.4262327 21.9534118 21.659053 22.5614118 23.0655034 23.1694118 24.4728948 23.4734118 25.9762768 23.4734118 27.5737673 23.4734118 29.1726693 23.1694118 30.6755808 22.5614118 32.0820312 21.9534118 33.4898931 21.12 34.717067 20.0621176 35.7635526 19.0032941 36.8100382 17.7590588 37.6377218 16.3298824 38.2451916 14.8992941 38.853132 13.3628235 39.1571022 11.7195294 39.1571022 10.0757647 39.1571022 8.53882353 38.853132 7.10917647 38.2451916 5.67905882 37.6377218 4.44141176 36.8048623 3.39388235 35.7461425 2.34682353 34.6883639 1.51952941 33.4560141.911058824 32.0481521.304 30.6431134 0 29.1402019 0 27.5403588 0 25.9423978.304 24.4394863.911529412 23.0320949 1.51952941 21.6242329 2.35247059 20.3928242 3.41129412 19.3331634 4.46917647 18.2758553 5.70776471 17.4425252 7.12658824 16.8345848 8.54494118 16.2275855 10.0757647 15.9231448 11.7195294 15.9231448zM11.7529412 36.43831C12.9397647 36.43831 14.0616471 36.2044505 15.1204706 35.740496 16.1788235 35.2756004 17.1096471 34.6351926 17.912 33.8202137 18.7148235 33.0071169 19.3543529 32.0594452 19.8315294 30.9771983 20.3082353 29.8963631 20.5472941 28.7388295 20.5472941 27.5050681 20.5472941 26.2736594 20.3204706 25.1151848 19.8668235 24.033879 19.4131765 22.9521027 18.7901176 22.0100774 17.9995294 21.2082737 17.2084706 20.4050583 16.2898824 19.7712381 15.2428235 19.305872 14.1962353 18.8405058 13.0795294 18.6075875 11.8927059 18.6075875 10.7063529 18.6075875 9.57788235 18.8405058 8.50823529 19.305872 7.43811765 19.7712381 6.48941176 20.4050583 5.66447059 21.2082737 4.83811765 22.0100774 4.18682353 22.9521027 3.71011765 24.033879 3.23341176 25.1151848 2.99435294 26.2736594 2.99435294 27.5050681 2.99435294 28.7388295 3.22729412 29.8963631 3.69270588 30.9771983 4.15764706 32.0594452 4.79152941 33.0071169 5.59482353 33.8202137 6.39717647 34.6351926 7.32752941 35.2807764 8.38682353 35.7583766 9.44517647 36.2345652 10.5670588 36.4731301 11.7538824 36.4731301L11.7538824 36.43831 11.7529412 36.43831z"/>
    <path d="M7.65176471,36.3983139 C7.65176471,36.3983139 5.42635294,14.4738751 20.7727059,1.2036467 L15.9261176,0 C15.9261176,0 3.74070588,10.8822272 4.94258824,34.1095971 L7.65176471,36.3983139 Z"/>
    <path d="M11.6884706,37.3648074 C11.6884706,37.3648074 10.9444706,16.2553475 31.1877647,1.50055877 L26.4767059,0.25503382 C26.4767059,0.25503382 9.31435294,13.0782472 8.93882353,36.1272816 L11.6884706,37.3648074 Z"/>
    <path d="M16.1934118,36.6773454 C16.1934118,36.6773454 19.4743529,16.4412116 42.1708235,3.92620331 L37.3416471,1.9960396 C37.3416471,1.9960396 16.7783529,12.4336045 13.3468235,36.376669 L16.1934118,36.6773454 Z"/>
    <path d="M20.3411765 29.3990001C20.2225882 29.9415351 20.0555294 30.4680718 19.8310588 30.9771983 19.3543529 32.0594452 18.7143529 33.0071169 17.9115294 33.8202137 17.1091765 34.6351926 16.1783529 35.2756004 15.12 35.740496 14.0611765 36.2044505 13.1807059 36.4326635 11.7524706 36.43831 11.7524706 36.43831 9.79247059 36.3931379 8.38541176 35.7583766 7.32705882 35.2798353 6.39576471 34.6351926 5.59341176 33.8202137 4.79011765 33.0071169 4.15670588 32.0594452 3.69129412 30.9771983 3.472 30.4685423 3.30917647 29.9420057 3.19341176 29.3990001L.157647059 29.3990001C.303529412 30.3156161.545411765 31.2021174.911529412 32.0486227 1.51952941 33.4564847 2.34729412 34.6888344 3.39435294 35.7466131 4.44141176 36.8053328 5.67905882 37.6381923 7.10964706 38.2456622 8.53929412 38.8536026 10.0762353 39.1575728 11.72 39.1575728 13.3632941 39.1575728 14.8997647 38.8536026 16.3303529 38.2456622 17.76 37.6381923 19.0037647 36.8100382 20.0625882 35.7640231 21.12 34.717067 21.9538824 33.4903637 22.5618824 32.0825017 22.9322353 31.225174 23.176 30.3278502 23.3204706 29.3994706L20.3411765 29.3994706 20.3411765 29.3990001zM84.6668235 38.9354769L84.6668235 27.1780414C84.6668235 25.7372414 84.3590588 24.6578179 83.7435294 23.9378884 83.1275294 23.2184296 82.1712941 22.8579943 80.8734118 22.8579943 79.1694118 22.8579943 77.9105882 23.3473581 77.0974118 24.3256151 76.2828235 25.3043427 75.8767059 26.810548 75.8767059 28.8447015L75.8767059 38.9359475 73.1392941 38.9359475 73.1392941 27.1780414C73.1392941 25.7372414 72.8305882 24.6578179 72.216 23.9378884 71.5995294 23.2184296 70.6381176 22.8579943 69.3294118 22.8579943 67.6145882 22.8579943 66.3581176 23.3722968 65.5614118 24.3990197 64.7637647 25.4280953 64.3656471 27.1121655 64.3656471 29.4545241L64.3656471 38.9354769 61.6282353 38.9354769 61.6282353 20.8624253 64.4409412 20.8624253 64.4310588 23.3360651C64.9482353 22.4552103 65.6762353 21.7686893 66.6169412 21.2746201 67.5567059 20.7800804 68.6094118 20.5330458 69.7750588 20.5330458 72.5995294 20.5330458 74.4465882 21.5545927 75.3157647 23.6000392L75.4484706 23.6000392C75.9868235 22.6542496 76.7670588 21.9070287 77.7901176 21.356965 78.8117647 20.8073718 79.9774118 20.5335163 81.2870588 20.5335163 83.3322353 20.5335163 84.8625882 21.0586413 85.8790588 22.1074797 86.8955294 23.1577296 87.4042353 24.8375649 87.4042353 27.145574L87.4042353 38.9359475 84.6668235 38.9359475 84.6668235 38.9354769zM122.892706 38.9411234L122.892706 27.2490932C122.892706 25.776767 122.557176 24.6766395 121.887529 23.9515342 121.216471 23.2254877 120.166118 22.8631703 118.736941 22.8631703 116.845176 22.8631703 115.461176 23.3746495 114.581647 24.3971375 113.701647 25.4196255 113.262118 27.1074601 113.262118 29.4592295L113.262118 38.9411234 110.524235 38.9411234 110.524235 20.8680718 113.340706 20.8680718 113.328 23.3417116C113.888471 22.4509754 114.673882 21.7611607 115.686588 21.2722674 116.697412 20.7829036 117.824471 20.5382217 119.067294 20.5382217 121.244235 20.5382217 122.882353 21.0633467 123.981176 22.1126556 125.081412 23.1633761 125.631529 24.8417998 125.631529 27.1507499L125.631529 38.9411234 122.892706 38.9411234z"/>
  </g>
</svg>
