<svg xmlns="http://www.w3.org/2000/svg" width="398" height="218" viewBox="0 0 398 218">
  <g fill="none" fill-rule="evenodd" transform="translate(1)">
    <line x1="94" x2="137.5" y1="1" y2="1" stroke="#979797" stroke-linecap="square" opacity=".2"/>
    <polygon fill="#979797" fill-rule="nonzero" stroke="#979797" stroke-width="2" points="0 51.356 63.591 51.356 63.591 48.465 0 48.465" opacity=".3"/>
    <polygon fill="#979797" fill-rule="nonzero" stroke="#979797" stroke-width="2" points="46.248 62.918 60.701 62.918 60.701 60.027 46.248 60.027" opacity=".2"/>
    <polygon fill="#979797" fill-rule="nonzero" stroke="#979797" stroke-width="2" points="329.518 204.553 396 204.553 396 201.662 329.518 201.662" opacity=".2"/>
    <polygon fill="#EBEBEB" fill-rule="nonzero" stroke="#EBEBEB" stroke-width="2" points="329.518 216.115 352.642 216.115 352.642 213.224 329.518 213.224"/>
    <g fill-rule="nonzero" transform="translate(102.168 13.779)">
      <rect width="24.406" height="3.335" x="74.437" y="12.229" fill="#888"/>
      <rect width="6.656" height="6.67" x="43.375" y="151.196" fill="#FAB909"/>
      <rect width="6.656" height="6.67" x="43.375" y="137.855" fill="#FAB909"/>
      <rect width="6.656" height="6.67" x="61.124" y="151.196" fill="#FAB909"/>
      <path fill="#E8E8E8" d="M164.406122,69.4834363 C158.429442,69.4834363 154.185013,71.3741935 147.543943,77.6337652 L147.433037,13.8966873 C147.433037,6.68230024 147.390481,0.833801235 140.222117,0.833801235 L34.4996654,1.11173498 C27.3313005,1.11173498 26.7341136,5.01469776 26.7341136,12.2290848 L26.7341136,61.1454239 L13.7545586,61.1454239 C6.5861937,61.1454239 0.77500355,66.9939229 0.77500355,74.2083099 L0.77500355,80.6932946 C0.77500355,84.0394345 2.02671939,87.090843 4.08276202,89.4017492 C2.02671939,91.7130636 0.77500355,94.7640639 0.77500355,98.1102038 L1.21872909,108.764195 C1.21872909,112.110335 2.47044492,115.161743 4.52648756,117.472649 C2.47044492,119.783964 1.21872909,122.834964 1.21872909,126.181104 L1.21872909,134.889558 C1.21872909,138.235698 2.47044492,141.287107 4.52648756,143.598013 C2.47044492,145.909327 1.21872909,148.960328 1.21872909,152.306468 L1.21872909,161.014922 C1.21872909,168.229309 7.02991923,174.077808 14.1982841,174.077808 L27.1778391,174.077808 L27.2887452,187.04941 C27.2887452,194.263797 27.3313005,200.112296 34.4996654,200.112296 L140.222117,199.834363 C147.390481,199.834363 147.654849,193.985864 147.654849,186.771477 L146.878304,88.6608647 C147.571088,79.3380462 155.920683,74.5787435 165.404681,73.3745087 L165.626696,200.204805 L169.84214,199.648937 L169.84214,73.3745087 C169.84214,70.969713 166.795577,69.4834363 164.406122,69.4834363 Z M34.3888608,4.81738218 L140.000507,4.81738218 C142.389557,4.81738218 144.326755,6.76701791 144.326755,9.17181359 L144.326755,26.6816395 L30.0622072,26.6816395 L30.0622072,9.17181359 C30.0622072,6.76701791 31.9994058,4.81738218 34.3888608,4.81738218 Z M4.99044685,136.835911 L4.65762735,123.310074 C4.65762735,120.905279 6.59482593,118.955643 8.98428089,118.955643 L26.7341136,118.955643 L26.7341136,141.190343 L9.31710039,141.190343 C6.92764544,141.190343 4.99044685,139.240707 4.99044685,136.835911 Z M4.54682272,111.173498 L4.10309718,96.998877 C4.10309718,94.5940814 6.4839199,92.5519371 8.87337486,92.5519371 L26.7341136,92.2740034 L26.7341136,115.620438 L10.0936454,115.620438 C7.70419048,115.620438 4.54682272,113.578294 4.54682272,111.173498 Z M4.10309718,72.5407075 C4.10309718,70.1359118 6.32182627,64.7585626 12.4234834,64.3881204 L26.7341136,64.4806289 L26.7341136,89.4946659 L8.42975072,89.1242237 C6.04029577,89.1242237 4.10309718,84.951118 4.10309718,82.5463223 L4.10309718,72.5407075 Z M12.7562301,170.187961 C9.69284781,170.187961 4.99054825,165.475613 4.99054825,162.405685 L4.54682272,150.084353 C4.54682272,147.014425 7.03039318,144.525547 10.0937754,144.525547 L26.7341136,144.525547 L26.7341136,170.095452 L12.7562301,170.187961 Z M140.000102,196.406649 L34.3888608,196.406649 C31.9994058,196.406649 30.0622072,194.457014 30.0622072,192.052218 L30.0622072,177.877597 L144.326755,177.877597 L144.326755,192.052218 C144.326755,194.457014 142.389557,196.406649 140.000102,196.406649 Z M144.326755,174.542392 L30.0622072,174.542392 L30.0622072,143.96968 L30.0622072,117.843908 L30.0622072,91.7181359 L30.0622072,65.5923638 L30.0622072,30.757729 L144.326755,30.757729 L144.326755,174.542392 Z"/>
      <path fill="#ACACAC" stroke="#BABABA" d="M147.654849,14.4525547 C147.654849,7.23816773 147.612293,0.277933745 140.443929,0.277933745 L34.4996654,0 C27.3313005,0 25.0701175,4.73676402 25.0701175,11.951151 L25.513843,173.799875 L25.624749,186.771477 C25.624749,193.985864 27.3313005,200.112296 34.4996654,200.112296 L140.443929,200.39023 C147.612293,200.39023 147.876661,194.541731 147.876661,187.327344 L147.654849,14.4525547 Z M34.3888608,4.81738218 L138.891143,4.81738218 C141.280192,4.81738218 143.217391,6.76701791 143.217391,9.17181359 L143.217391,26.6816395 L30.0622072,26.6816395 L30.0622072,9.17181359 C30.0622072,6.76701791 31.9994058,4.81738218 34.3888608,4.81738218 Z M138.890737,195.572848 L34.3888608,195.572848 C31.9994058,195.572848 30.0622072,193.623212 30.0622072,191.218417 L30.0622072,177.877597 L143.217391,177.877597 L143.217391,191.218417 C143.217391,193.623212 141.280192,195.572848 138.890737,195.572848 Z M143.217391,173.430657 L30.0622072,173.430657 L30.0622072,143.96968 L30.0622072,117.843908 L30.0622072,91.7181359 L30.0622072,65.5923638 L30.0622072,30.757729 L143.217391,30.757729 L143.217391,173.430657 Z"/>
      <rect width="6.656" height="6.67" x="125.468" y="42.246" fill="#FAB909"/>
      <rect width="6.656" height="6.67" x="125.468" y="55.587" fill="#FAB909"/>
      <rect width="6.656" height="6.67" x="107.718" y="42.246" fill="#FAB909"/>
      <g fill="#F26C63" stroke="#F16D5E" transform="translate(52.25 77.821)">
        <path d="M63.1351688,25.9404829 L56.9079358,25.9404829 C55.9070425,25.9404829 55.0824148,25.3883212 54.6990677,24.4618754 C54.3157207,23.5354295 54.5104758,22.5595733 55.2167712,21.8505334 L59.6197158,17.4394161 C60.2668451,16.790904 60.6230744,15.9274565 60.6230744,15.0108928 C60.6230744,14.0930938 60.2668451,13.2308815 59.6197158,12.5811342 L54.0075638,6.95699045 C52.7133052,5.65996631 50.4563647,5.65749579 49.1596408,6.95699045 L44.7579288,11.3681078 C44.0504008,12.0759124 43.07416,12.2735542 42.1521548,11.8881527 C41.2276843,11.5039865 40.6766999,10.6775969 40.6766999,9.67456485 L40.6766999,3.43402583 C40.6766999,1.54037058 39.1396137,0 37.2499961,0 L29.3118765,0 C27.4222589,0 25.8851727,1.54037058 25.8851727,3.43402583 L25.8851727,9.67456485 C25.8851727,10.6775969 25.3341883,11.5039865 24.4097178,11.8881527 C23.4877126,12.2747894 22.5114718,12.0759124 21.8039438,11.3681078 L17.4022318,6.95699045 C16.1055079,5.65749579 13.8485674,5.65996631 12.5543087,6.95699045 L6.94215679,12.5811342 C6.29502747,13.2296463 5.93879819,14.0930938 5.93879819,15.0108928 C5.93879819,15.9274565 6.29502747,16.7896687 6.94215679,17.4394161 L11.3451014,21.8505334 C12.0513968,22.5595733 12.2449193,23.5354295 11.8628048,24.4618754 C11.4806904,25.3883212 10.6548301,25.9404829 9.65393678,25.9404829 L3.42670381,25.9404829 C1.53708621,25.9404829 0,27.4808535 0,29.3745087 L0,37.3283549 C0,39.2232454 1.53708621,40.7636159 3.42670381,40.7636159 L9.65393678,40.7636159 C10.6548301,40.7636159 11.4794578,41.3157777 11.8628048,42.2422235 C12.2461519,43.1686693 12.0513968,44.1445255 11.3451014,44.8535654 L6.94215679,49.2646828 C6.29502747,49.9131948 5.93879819,50.7766423 5.93879819,51.6932061 C5.93879819,52.6110051 6.29502747,53.4732173 6.94215679,54.1229646 L12.5543087,59.7471084 C13.8498,61.0453678 16.1055079,61.0478383 17.4022318,59.7471084 L21.8039438,55.3347558 C22.5114718,54.6269512 23.4840148,54.4317799 24.4097178,54.8159461 C25.3341883,55.2001123 25.8851727,56.026502 25.8851727,57.029534 L25.8851727,63.270073 C25.8851727,65.1637282 27.4222589,66.7040988 29.3118765,66.7040988 L37.2487635,66.7040988 C39.1383811,66.7040988 40.6754673,65.1637282 40.6754673,63.270073 L40.6754673,57.029534 C40.6754673,56.026502 41.2264517,55.2001123 42.1509221,54.8159461 C43.0766252,54.4305446 44.0491681,54.6269512 44.7566962,55.3347558 L49.1584082,59.7471084 C50.4551321,61.046603 52.7120726,61.0441325 54.0063312,59.7471084 L59.6184832,54.1229646 C60.2656125,53.4744526 60.6218418,52.6110051 60.6218418,51.6932061 C60.6218418,50.7766423 60.2656125,49.9144301 59.6184832,49.2646828 L55.2155386,44.8535654 C54.5092431,44.1445255 54.3157207,43.1686693 54.6978351,42.2422235 C55.0799496,41.3157777 55.9070425,40.7636159 56.9079358,40.7636159 L63.1351688,40.7636159 C65.0247864,40.7636159 66.5618726,39.2232454 66.5618726,37.3295901 L66.5618726,29.3745087 C66.5618726,27.4808535 65.0247864,25.9404829 63.1351688,25.9404829 Z M64.0966181,37.3295901 C64.0966181,37.8607524 63.6651985,38.2930938 63.1351688,38.2930938 L56.9079358,38.2930938 C54.9061491,38.2930938 53.1866341,39.4443571 52.4211726,41.2972487 C51.6544784,43.1501404 52.0575475,45.1833801 53.4738362,46.6014599 L57.8767809,51.0125772 C58.2527322,51.3893318 58.2527322,52.0007861 57.8767809,52.3763054 L52.2646289,58.0004492 C51.8899102,58.3759686 51.2797597,58.3784391 50.9038084,58.0004492 L46.5020964,53.5880966 C45.0858077,52.1687816 43.0581358,51.7673217 41.2091949,52.5331836 C39.360254,53.3002807 38.2114454,55.02347 38.2114454,57.029534 L38.2114454,63.270073 C38.2114454,63.8012353 37.7800258,64.2335766 37.2499961,64.2335766 L29.3118765,64.2335766 C28.7818468,64.2335766 28.3504272,63.8012353 28.3504272,63.270073 L28.3504272,57.029534 C28.3504272,55.02347 27.2016186,53.3002807 25.3526777,52.5331836 C24.7326662,52.275014 24.0941653,52.1490174 23.4630601,52.1490174 C22.213176,52.1490174 21.0015034,52.6431218 20.0597762,53.5868613 L15.6580642,57.9992139 C15.2808803,58.3772038 14.6707298,58.3747333 14.2972437,57.9992139 L8.68509175,52.3750702 C8.30914043,51.9983156 8.30914043,51.3868613 8.68509175,51.0113419 L13.0880364,46.6002246 C14.5030925,45.1821449 14.9073942,43.1489051 14.1407,41.2960135 C13.3752385,39.4443571 11.6557235,38.2930938 9.65393678,38.2930938 L3.42670381,38.2930938 C2.89667409,38.2930938 2.46525454,37.8607524 2.46525454,37.3295901 L2.46525454,29.3745087 C2.46525454,28.8433464 2.89667409,28.4110051 3.42670381,28.4110051 L9.65393678,28.4110051 C11.6557235,28.4110051 13.3752385,27.2597417 14.1407,25.4068501 C14.9073942,23.5539585 14.5043251,21.5207187 13.0880364,20.102639 L8.68509175,15.6915216 C8.30914043,15.314767 8.30914043,14.7033127 8.68509175,14.3277934 L14.2972437,8.70364964 C14.6719624,8.326895 15.2821129,8.326895 15.6580642,8.70364964 L20.0597762,13.114767 C21.4735997,14.5316115 23.5012715,14.9380124 25.3526777,14.16968 C27.2016186,13.4038181 28.3504272,11.6806289 28.3504272,9.67456485 L28.3504272,3.43402583 C28.3504272,2.90286356 28.7818468,2.47052218 29.3118765,2.47052218 L37.2487635,2.47052218 C37.7800258,2.47052218 38.2114454,2.90286356 38.2114454,3.43402583 L38.2114454,9.67456485 C38.2114454,11.6806289 39.360254,13.4038181 41.2091949,14.1709152 C43.0606011,14.9392476 45.0870403,14.534082 46.5020964,13.1160022 L50.9038084,8.7048849 C51.2809923,8.32813026 51.8911428,8.32813026 52.2646289,8.7048849 L57.8767809,14.3290286 C58.2527322,14.7057833 58.2527322,15.3172375 57.8767809,15.6927569 L53.4738362,20.1038742 C52.0587801,21.521954 51.6544784,23.5551937 52.4211726,25.4080853 C53.1866341,27.260977 54.9061491,28.4122403 56.9079358,28.4122403 L63.1351688,28.4122403 C63.6651985,28.4110051 64.0966181,28.8433464 64.0966181,29.3745087 L64.0966181,37.3295901 Z"/>
        <path d="M33.2809363,22.2346996 C27.1634072,22.2346996 22.1872909,27.2214486 22.1872909,33.3520494 C22.1872909,39.4826502 27.1634072,44.4693992 33.2809363,44.4693992 C39.3984654,44.4693992 44.3745817,39.4826502 44.3745817,33.3520494 C44.3745817,27.2214486 39.3984654,22.2346996 33.2809363,22.2346996 Z M33.2809363,41.998877 C28.5242277,41.998877 24.6525454,38.118922 24.6525454,33.3520494 C24.6525454,28.5851769 28.5242277,24.7052218 33.2809363,24.7052218 C38.0376449,24.7052218 41.9093272,28.5851769 41.9093272,33.3520494 C41.9093272,38.118922 38.0376449,41.998877 33.2809363,41.998877 Z"/>
      </g>
      <path fill="#FAB909" stroke="#F9BB00" stroke-width="1.5" d="M102.450555,60.5947818 L75.6588159,89.4269441 L59.518227,77.0753058 C58.7686371,76.4999966 57.6686574,76.6183935 57.0689855,77.3354456 C56.4675703,78.0558327 56.5895965,79.1047298 57.3409297,79.680039 L74.7732538,93.0205421 C75.0940086,93.2656738 75.4792629,93.3857383 75.8627741,93.3857383 C76.3439062,93.3857383 76.8232951,93.1956362 77.1667119,92.8254372 L105.05843,62.8093053 C105.698197,62.1222694 105.633697,61.0667021 104.913742,60.456374 C104.192044,59.8427109 103.092064,59.9044107 102.450555,60.5947818 Z"/>
    </g>
  </g>
</svg>
