<?xml version="1.0" encoding="UTF-8"?>
<svg width="80px" height="49px" viewBox="0 0 80 49" version="1.1" xmlns="http://www.w3.org/2000/svg" xmlns:xlink="http://www.w3.org/1999/xlink">
    <!-- Generator: Sketch 59.1 (86144) - https://sketch.com -->
    <title>OTP-infographic</title>
    <desc>Created with Sketch.</desc>
    <g id="Linked-accounts" stroke="none" stroke-width="1" fill="none" fill-rule="evenodd">
        <g id="account-linked1-copy" transform="translate(-447.000000, -199.000000)" fill-rule="nonzero">
            <g id="OTP-infographic" transform="translate(447.000000, 199.000000)">
                <polygon id="Line-5" fill="#979797" opacity="0.300000012" points="0 5.18103448 15 5.18103448 15 4.18103448 0 4.18103448"></polygon>
                <polygon id="Line-5" fill="#979797" opacity="0.200000003" points="10 8.18103448 15 8.18103448 15 7.18103448 10 7.18103448"></polygon>
                <polygon id="Line-6" fill="#979797" opacity="0.200000003" points="64 36.1810345 80 36.1810345 80 35.1810345 64 35.1810345"></polygon>
                <polygon id="Line-6" fill="#979797" opacity="0.5" points="64 40.1810345 70 40.1810345 70 39.1810345 64 39.1810345"></polygon>
                <g id="online-payment" transform="translate(16.000000, 0.181034)">
                    <rect id="Rectangle" fill="#888888" x="18.5122388" y="2.96153846" width="5.98925373" height="1"></rect>
                    <polygon id="Rectangle" fill="#F26C63" points="12.5229851 17.7692308 29.401791 17.7692308 29.401791 18.8461538 12.5229851 18.8461538"></polygon>
                    <polygon id="Rectangle" fill="#F26C63" points="12.5229851 22.0769231 23.9570149 22.0769231 23.9570149 23.1538462 12.5229851 23.1538462"></polygon>
                    <rect id="Rectangle" fill="#FAB909" x="10.8895522" y="36.6153846" width="1.63343284" height="1.61538462"></rect>
                    <rect id="Rectangle" fill="#FAB909" x="10.8895522" y="33.3846154" width="1.63343284" height="1.61538462"></rect>
                    <rect id="Rectangle" fill="#FAB909" x="15.2453731" y="36.6153846" width="1.63343284" height="1.61538462"></rect>
                    <path d="M40.5907736,16.8269231 C39.1240925,16.8269231 38.0825067,17.284811 36.4527836,18.8007022 L36.4255672,3.36538462 C36.4255672,1.61826412 36.4151241,0.201923077 34.6560025,0.201923077 L8.71164179,0.269230769 C6.95252023,0.269230769 6.80597015,1.21441797 6.80597015,2.96153846 L6.80597015,14.8076923 L3.62077861,14.8076923 C1.86165704,14.8076923 0.435587066,16.2240334 0.435587066,17.9711538 L0.435587066,19.5416337 C0.435587066,20.3519742 0.742758976,21.090939 1.24731322,21.6505751 C0.742758976,22.2103101 0.435587066,22.9491761 0.435587066,23.7595165 L0.544477612,26.3396118 C0.544477612,27.1499522 0.851649521,27.8889171 1.35620377,28.4485532 C0.851649521,29.0082882 0.544477612,29.7471541 0.544477612,30.5574946 L0.544477612,32.666436 C0.544477612,33.4767764 0.851649521,34.2157413 1.35620377,34.7753774 C0.851649521,35.3351124 0.544477612,36.0739784 0.544477612,36.8843188 L0.544477612,38.9932602 C0.544477612,40.7403807 1.97054759,42.1567218 3.72966915,42.1567218 L6.91486069,42.1567218 L6.94207711,45.2980769 C6.94207711,47.0451974 6.95252023,48.4615385 8.71164179,48.4615385 L34.6560025,48.3942308 C36.4151241,48.3942308 36.48,46.9778897 36.48,45.2307692 L36.2894353,21.4711538 C36.4594449,19.2134309 38.5084413,18.0608624 40.8358209,17.7692308 L40.8903035,48.4839414 L41.9247761,48.349326 L41.9247761,17.7692308 C41.9247761,17.1868573 41.1771475,16.8269231 40.5907736,16.8269231 Z M8.68445026,1.16663371 L34.6016194,1.16663371 C35.1878937,1.16663371 35.6632836,1.63878035 35.6632836,2.22115385 L35.6632836,6.46153846 L7.62268657,6.46153846 L7.62268657,2.22115385 C7.62268657,1.63878035 8.0980764,1.16663371 8.68445026,1.16663371 Z M1.47005969,33.1377876 L1.38838556,29.8622124 C1.38838556,29.2798389 1.8637754,28.8076923 2.45014925,28.8076923 L6.80597015,28.8076923 L6.80597015,34.1923077 L2.53182338,34.1923077 C1.94544953,34.1923077 1.47005969,33.7201611 1.47005969,33.1377876 Z M1.36119403,26.9230769 L1.25230348,23.4903846 C1.25230348,22.9080111 1.83655898,22.4134615 2.42293284,22.4134615 L6.80597015,22.3461538 L6.80597015,28 L2.72238806,28 C2.1360142,28 1.36119403,27.5054504 1.36119403,26.9230769 Z M1.25230348,17.5673077 C1.25230348,16.9849342 1.7967811,15.6826923 3.29413186,15.5929817 L6.80597015,15.6153846 L6.80597015,21.6730769 L2.31406718,21.5833663 C1.72769332,21.5833663 1.25230348,20.5727581 1.25230348,19.9903846 L1.25230348,17.5673077 Z M3.37578812,41.2147106 C2.62403205,41.2147106 1.47008458,40.0735134 1.47008458,39.3300637 L1.36119403,36.3461854 C1.36119403,35.6027357 1.9706639,35 2.72241996,35 L6.80597015,35 L6.80597015,41.1923077 L3.37578812,41.2147106 Z M34.6015199,47.5641355 L8.68445026,47.5641355 C8.0980764,47.5641355 7.62268657,47.0919889 7.62268657,46.5096154 L7.62268657,43.0769231 L35.6632836,43.0769231 L35.6632836,46.5096154 C35.6632836,47.0919889 35.1878937,47.5641355 34.6015199,47.5641355 Z M35.6632836,42.2692308 L7.62268657,42.2692308 L7.62268657,34.8653846 L7.62268657,28.5384615 L7.62268657,22.2115385 L7.62268657,15.8846154 L7.62268657,7.44865204 L35.6632836,7.44865204 L35.6632836,42.2692308 Z" id="Shape" fill="#E8E8E8"></path>
                    <path d="M36.48,3.5 C36.48,1.75287951 36.4695569,0.0673076923 34.7104353,0.0673076923 L8.71164179,-7.10542736e-15 C6.95252023,-7.10542736e-15 6.39762438,1.14711028 6.39762438,2.89423077 L6.50651493,42.0894141 L6.53373134,45.2307692 C6.53373134,46.9778897 6.95252023,48.4615385 8.71164179,48.4615385 L34.7104353,48.5288462 C36.4695569,48.5288462 36.5344328,47.1125051 36.5344328,45.3653846 L36.48,3.5 Z M8.68445026,1.16663371 L34.3293806,1.16663371 C34.9156549,1.16663371 35.3910448,1.63878035 35.3910448,2.22115385 L35.3910448,6.46153846 L7.62268657,6.46153846 L7.62268657,2.22115385 C7.62268657,1.63878035 8.0980764,1.16663371 8.68445026,1.16663371 Z M34.3292811,47.3622124 L8.68445026,47.3622124 C8.0980764,47.3622124 7.62268657,46.8900658 7.62268657,46.3076923 L7.62268657,43.0769231 L35.3910448,43.0769231 L35.3910448,46.3076923 C35.3910448,46.8900658 34.9156549,47.3622124 34.3292811,47.3622124 Z M35.3910448,42 L7.62268657,42 L7.62268657,34.8653846 L7.62268657,28.5384615 L7.62268657,22.2115385 L7.62268657,15.8846154 L7.62268657,7.44865204 L35.3910448,7.44865204 L35.3910448,42 Z" id="Shape" fill="#ACACAC"></path>
                    <rect id="Rectangle" fill="#FAB909" x="31.0352239" y="10.2307692" width="1.63343284" height="1.61538462"></rect>
                    <rect id="Rectangle" fill="#FAB909" x="31.0352239" y="13.4615385" width="1.63343284" height="1.61538462"></rect>
                    <rect id="Rectangle" fill="#FAB909" x="26.679403" y="10.2307692" width="1.63343284" height="1.61538462"></rect>
                </g>
            </g>
        </g>
    </g>
</svg>