<svg xmlns="http://www.w3.org/2000/svg" width="25" height="25" viewBox="0 0 25 25">
  <g fill="#FFF" transform="translate(0 .06)">
    <path d="M12.4998939,-4.79616347e-14 C5.60746969,-4.79616347e-14 -5.32907052e-15,5.57825327 -5.32907052e-15,12.4347903 C-5.32907052e-15,19.2914328 5.60746969,24.8697917 12.4998939,24.8697917 C19.3924242,24.8697917 25,19.2914328 25,12.4347903 C25,5.57825327 19.3924242,-4.79616347e-14 12.4998939,-4.79616347e-14 Z M12.4998939,23.2863202 C6.48504618,23.2863202 1.59173486,18.4184122 1.59173486,12.4347903 C1.59173486,6.45127387 6.48504618,1.58347146 12.4998939,1.58347146 C18.5148477,1.58347146 23.4082651,6.45127387 23.4082651,12.4347903 C23.4082651,18.4184122 18.5147416,23.2863202 12.4998939,23.2863202 Z"/>
    <path d="M14.5833333 8.28993056C14.1997222 8.28993056 13.8888889 8.61763366 13.8888889 9.0220644L13.8888889 17.2293824C13.8888889 17.6338131 14.1997222 17.9615162 14.5833333 17.9615162 14.9669444 17.9615162 15.2777778 17.6338131 15.2777778 17.2293824L15.2777778 9.0220644C15.2777778 8.61763366 14.9669444 8.28993056 14.5833333 8.28993056zM10.4166667 8.28993056C10.0330556 8.28993056 9.72222222 8.61763366 9.72222222 9.0220644L9.72222222 17.2293824C9.72222222 17.6338131 10.0330556 17.9615162 10.4166667 17.9615162 10.8002778 17.9615162 11.1111111 17.6338131 11.1111111 17.2293824L11.1111111 9.0220644C11.1111111 8.61763366 10.8001852 8.28993056 10.4166667 8.28993056z"/>
  </g>
</svg>
