<?xml version="1.0" encoding="utf-8"?>
<!-- Generator: Adobe Illustrator 16.0.0, SVG Export Plug-In . SVG Version: 6.00 Build 0)  -->
<!DOCTYPE svg PUBLIC "-//W3C//DTD SVG 1.1//EN" "http://www.w3.org/Graphics/SVG/1.1/DTD/svg11.dtd">
<svg version="1.1" id="Layer_1" xmlns="http://www.w3.org/2000/svg" xmlns:xlink="http://www.w3.org/1999/xlink" x="0px" y="0px"
	 width="54.35px" height="54.102px" viewBox="0 0 54.35 54.102" enable-background="new 0 0 54.35 54.102" xml:space="preserve">
<g>
	<path fill-rule="evenodd" clip-rule="evenodd" fill="#FFFFFF" d="M27.175,0.801c14.564,0,26.374,11.753,26.374,26.25
		c0,14.498-11.81,26.25-26.374,26.25c-14.565,0-26.374-11.752-26.374-26.25C0.801,12.554,12.609,0.801,27.175,0.801z"/>
</g>
<g>
	<path fill="#4C5867" d="M5.151,11.346C13.85-0.854,30.809-3.734,42.953,4.926c6.775,4.833,10.89,12.391,11.285,20.739
		c0.02,0.44-0.32,0.817-0.763,0.837c-0.44,0.02-0.817-0.32-0.838-0.763c-0.371-7.853-4.24-14.965-10.615-19.511
		C30.598-1.917,14.642,0.795,6.455,12.276c-8.187,11.481-5.553,27.45,5.872,35.597c11.425,8.146,27.382,5.435,35.568-6.046
		c0.257-0.359,0.757-0.444,1.117-0.187c0.36,0.257,0.444,0.757,0.188,1.117c-8.7,12.199-25.658,15.079-37.802,6.419
		C-0.748,40.517-3.55,23.546,5.151,11.346z"/>
</g>
<circle fill-rule="evenodd" clip-rule="evenodd" fill="#8CD6C1" cx="27.186" cy="19.042" r="6.75"/>
<path fill="#8CD6C1" d="M27.665,41.562H16.603c0,0-4.582,0.396-3.979-3.146c0,0,0.229-4.832,4.229-5.812l9.552-2.345
	c0,0,9.719,0.781,12.656,3.344s2.344,1.719,2.469,3.031s0.281,2.562,0.281,2.562l-0.625,1.438l-1.094,1.062L27.665,41.562z"/>
<g>
	<path fill="#4C5867" d="M27.114,26.409c4.131,0,7.491-3.361,7.491-7.49c0-4.131-3.36-7.492-7.491-7.492
		c-4.13,0-7.49,3.361-7.49,7.492C19.624,23.048,22.984,26.409,27.114,26.409z M27.114,12.906c3.308,0,6.005,2.691,6.013,5.998
		c0,3.329-2.697,6.025-6.013,6.025c-3.319-0.006-6.012-2.703-6.012-6.011C21.103,15.603,23.8,12.906,27.114,12.906z"/>
</g>
<g>
	<path fill="#4C5867" d="M39.032,32.609c-2.795-1.45-7.13-3.178-11.918-3.178c-4.787,0-9.122,1.728-11.917,3.178
		c-2.129,1.103-3.451,3.277-3.451,5.674v1.03c0,1.57,1.27,2.85,2.83,2.85h25.076c1.562,0,2.83-1.279,2.83-2.85v-1.03
		C42.482,35.887,41.161,33.712,39.032,32.609z M41.003,39.313c0,0.755-0.605,1.37-1.351,1.37H14.576
		c-0.744,0-1.351-0.615-1.351-1.37v-1.03c0-1.843,1.017-3.514,2.651-4.362c2.651-1.374,6.752-3.011,11.237-3.011
		s8.586,1.637,11.238,3.011c1.635,0.849,2.65,2.52,2.65,4.362V39.313z"/>
</g>
</svg>
