<svg xmlns="http://www.w3.org/2000/svg" width="33" height="38" viewBox="0 0 33 38">
  <path stroke="#666" stroke-width=".8" d="M29.9472474,8.409148 C29.9472474,8.69958157 30.1830201,8.93521636 30.4736237,8.93521636 C30.7645014,8.93521636 31,8.69958157 31,8.409148 C31,3.77234855 27.2196861,0 22.5730444,0 C19.9428079,0 17.5902896,1.20913524 16.0437851,3.09941944 C15.3586735,2.39032312 14.3497856,2.0607084 13.3436392,2.26181998 C12.5710723,2.41717456 11.9054256,2.86296265 11.4689719,3.51726018 C11.0322441,4.17210573 10.8773469,4.95709834 11.0325182,5.72866528 C11.0887199,6.00731709 11.1843997,6.27309125 11.314623,6.51995977 C7.18339152,7.69785973 4.26200306,11.5033615 4.26200306,15.8579472 C4.26200306,16.1483808 4.49777585,16.3840156 4.78837936,16.3840156 C5.07925714,16.3840156 5.31475566,16.1483808 5.31475566,15.8579472 C5.31475566,11.7343384 8.25286758,8.16227948 12.300482,7.36358713 C12.3010303,7.36358713 12.3015786,7.36331308 12.3021269,7.36331308 C12.8570152,7.25426353 13.4261596,7.19919076 13.9936591,7.19919076 C14.0737121,7.19919076 14.1537652,7.20056072 14.2335441,7.20275267 C14.17652,7.59675599 14.146363,7.99952704 14.146363,8.409148 C14.146363,13.0459474 17.926677,16.818296 22.5730444,16.818296 C22.6062171,16.818296 22.6391156,16.816652 22.6722883,16.816378 L22.6722883,19.3601378 C22.6722883,21.4131743 23.5789167,23.3451056 25.1596905,24.6605505 L25.7929869,25.1874408 C26.4303958,25.7176191 26.7961176,26.4965839 26.7961176,27.3240455 L26.7961176,27.3569248 C26.7961176,28.8710154 25.5613265,30.1026181 24.0436082,30.1026181 L3.80526199,30.1026181 C2.28754366,30.1026181 1.0527526,28.8710154 1.0527526,27.3569248 C1.0527526,26.943468 1.14706168,26.5286412 1.32526196,26.1573794 C1.50401065,25.7847476 1.76856955,25.451023 2.09070083,25.1918247 L2.7404466,24.6682223 C4.3765996,23.3519554 5.31475566,21.3937207 5.31475566,19.2962971 L5.31475566,18.1430566 C5.31475566,17.8526231 5.07925714,17.6169883 4.78837936,17.6169883 C4.49777585,17.6169883 4.26200306,17.8526231 4.26200306,18.1430566 L4.26200306,19.2962971 C4.26200306,21.0736958 3.46695559,22.7330031 2.08000886,23.8489804 L1.43026308,24.3725828 C0.98695556,24.729049 0.62205614,25.1890848 0.37613973,25.7022755 C0.129949114,26.2146441 0,26.7870174 0,27.3569248 C0,29.4510605 1.70715898,31.1547548 3.80553613,31.1547548 L9.31576387,31.1547548 C9.31411898,31.2068137 9.31247402,31.2585985 9.31247402,31.3103833 C9.31247402,33.8483892 11.3815167,35.9132075 13.9245722,35.9132075 C16.4676277,35.9132075 18.5363962,33.8483892 18.5363962,31.3103833 C18.5363962,31.2585985 18.5350254,31.2068137 18.5331063,31.1547548 L24.0438824,31.1547548 C26.1419854,31.1547548 27.8491444,29.4510605 27.8491444,27.3569248 L27.8491444,27.3240455 C27.8491444,26.1828608 27.3452487,25.1096266 26.4668583,24.3788847 L25.8335618,23.8519944 C24.4937696,22.737113 23.725315,21.0999992 23.725315,19.3601378 L23.725315,16.7393857 C25.1561265,16.545946 26.5022242,15.9922043 27.6687508,15.1072038 C29.0962724,14.0243797 30.1588945,12.4869998 30.6608711,10.7783735 C30.7428432,10.4997217 30.5830112,10.2073702 30.3041963,10.125446 C30.0251072,10.0435218 29.7325846,10.2032603 29.6508865,10.4819121 C29.2119655,11.9762751 28.2817599,13.3210373 27.0321644,14.2690564 C25.741446,15.2483107 24.1996021,15.7658852 22.5733185,15.7658852 C18.5070616,15.7658852 15.1991156,12.4656282 15.1991156,8.40887395 C15.1991156,4.3523937 18.5070616,1.05213673 22.5730444,1.05213673 C26.6393013,1.05213673 29.9472474,4.3523937 29.9472474,8.409148 Z M17.4836436,31.3103833 C17.4836436,33.2680701 15.8869688,34.8607968 13.9245722,34.8607968 C11.9619014,34.8607968 10.3652266,33.2680701 10.3652266,31.3103833 C10.3652266,31.2585985 10.3665974,31.2065397 10.3687906,31.1547548 L17.4800796,31.1547548 C17.482547,31.2065397 17.4836436,31.2585985 17.4836436,31.3103833 Z M13.9936591,6.14705404 C13.4609772,6.14705404 12.9274729,6.19116705 12.4024674,6.27692713 C12.2360557,6.05471803 12.1203625,5.79743777 12.0647093,5.52097791 C11.9649171,5.02559686 12.0647093,4.52144802 12.344895,4.1008673 C12.625629,3.68001261 13.0538581,3.39314094 13.5506257,3.29340715 C14.2631527,3.15065632 14.9786955,3.42191029 15.4148751,3.97702204 C14.9967898,4.64721118 14.670272,5.37987101 14.4534159,6.15773975 C14.3012602,6.15061594 14.1474596,6.14705404 13.9936591,6.14705404 Z" opacity=".8" transform="translate(1 1)"/>
</svg>
