<svg xmlns="http://www.w3.org/2000/svg" width="20" height="20" viewBox="0 0 20 20">
  <g fill="none" fill-rule="evenodd" transform="translate(.394 .161)">
    <path fill="#FFF" fill-rule="nonzero" d="M9.75806452,0 C4.37761787,0 0,4.37724256 0,9.75806452 C0,15.1388865 4.37761787,19.516129 9.75806452,19.516129 C15.1385112,19.516129 19.516129,15.1388865 19.516129,9.75806452 C19.516129,4.37724256 15.1385112,0 9.75806452,0 Z M9.75806452,18.296371 C5.0502558,18.296371 1.21975806,14.4658732 1.21975806,9.75806452 C1.21975806,5.0502558 5.0502558,1.21975806 9.75806452,1.21975806 C14.4658732,1.21975806 18.296371,5.0502558 18.296371,9.75806452 C18.296371,14.4658732 14.4658732,18.296371 9.75806452,18.296371 Z"/>
    <line x1="13.644" x2="6.099" y1="5.735" y2="14.033" stroke="#FFF" stroke-linecap="round"/>
    <line x1="13.644" x2="6.099" y1="5.735" y2="14.033" stroke="#FFF" stroke-linecap="round" transform="matrix(-1 0 0 1 19.743 0)"/>
  </g>
</svg>
