<svg xmlns="http://www.w3.org/2000/svg" width="25" height="25" viewBox="0 0 25 25">
  <g fill="none" fill-rule="evenodd">
    <path fill="#079AFF" fill-rule="nonzero" d="M12.5,6.57252031e-14 C19.375,6.57252031e-14 25,5.59570313 25,12.4348958 C25,19.2740885 19.375,24.8697917 12.5,24.8697917 C5.625,24.8697917 -5.32907052e-15,19.2740885 -5.32907052e-15,12.4348958 C-5.32907052e-15,5.59570313 5.625,6.57252031e-14 12.5,6.57252031e-14 Z M12.5610352,1.61226073 C6.52042071,1.61226073 1.62353516,6.48364167 1.62353516,12.4927946 C1.62353516,18.5019475 6.52042071,23.3733284 12.5610352,23.3733284 C18.6016496,23.3733284 23.4985352,18.5019475 23.4985352,12.4927946 C23.4985352,6.48364167 18.6016496,1.61226073 12.5610352,1.61226073 Z"/>
    <line x1="4.5" x2="20" y1="20.073" y2="4.573" stroke="#079AFF" stroke-linecap="square" stroke-width="1.7"/>
  </g>
</svg>
