<svg xmlns="http://www.w3.org/2000/svg" width="21" height="22" viewBox="0 0 21 22">
  <g fill="#666" opacity=".7">
    <path d="M20.2687852,20.360722 L14.4416912,14.525658 C15.9279747,13.0903976 16.8487645,11.1117698 16.8487645,8.92961522 C16.8487645,4.55699883 13.1546246,0.771728516 8.61342073,0.771728516 C4.07221686,0.771728516 0.378076923,4.55699883 0.378076923,8.92961522 C0.378076923,13.3022316 4.07221686,17.0529785 8.61342073,17.0529785 C10.6067661,17.0529785 12.4361889,16.1731299 13.8620798,15.0346637 L19.7032916,20.8840766 C19.7801548,20.9614847 19.8829005,21 19.9860384,21 C20.0840782,21 20.1817258,20.9648831 20.2578047,20.8946494 C20.4138841,20.7500283 20.41859,20.5110071 20.2687852,20.360722 Z M8.56030273,16.043457 C4.70035537,16.043457 1.39208984,12.7895626 1.39208984,8.92961522 C1.39208984,5.06966786 4.70035537,1.80029297 8.56030273,1.80029297 C12.4202501,1.80029297 15.7285156,5.06966786 15.7285156,8.92961522 C15.7285156,12.7895626 12.4198817,16.043457 8.56030273,16.043457 Z"/>
    <path d="M20.5040349,20.1222954 L14.6769409,14.2872314 L13.7230835,15.1467896 L19.5642952,20.9962024 C19.7064819,21.0768127 19.9156189,21.0768127 20.0102234,21.0768127 C20.1048279,21.0768127 20.301998,20.8459906 20.3780769,20.7757568 C20.5341563,20.6311358 20.6538397,20.2725805 20.5040349,20.1222954 Z"/>
  </g>
</svg>
