<svg xmlns="http://www.w3.org/2000/svg" width="50" height="50" viewBox="0 0 50 50">
  <g fill="#F27B72" stroke="#FFF" stroke-width="2" transform="translate(1 1)">
    <path d="M24,0 C10.767,0 0,10.767 0,24 C0,37.233 10.767,48 24,48 C37.233,48 48,37.233 48,24 C48,10.767 37.233,0 24,0 Z M24,44 C12.972,44 4,35.028 4,24 C4,12.972 12.972,4 24,4 C35.028,4 44,12.972 44,24 C44,35.028 35.028,44 24,44 Z"/>
    <path d="M16.8783141,14.0029438 C16.0959616,13.2082968 14.8113206,13.1902138 14.0086736,13.9657732 C13.2060266,14.740328 13.1887763,16.0121651 13.9711288,16.8068122 L20.4795708,23.4603485 L13.9711288,30.0767143 C13.1887763,30.8713613 13.2060266,32.144203 14.0086736,32.9177532 C14.4023867,33.2995053 14.9138077,33.4883721 15.4242141,33.4883721 C15.9528855,33.4883721 16.4805421,33.2854407 16.8783141,32.8815873 L23.368491,26.2843091 C24.951461,24.7171165 24.951461,22.1684192 23.3877708,20.6203142 L16.8783141,14.0029438 Z"/>
    <path d="M26.9248257,14.0029438 C26.1434879,13.2082968 24.8578322,13.1902138 24.0551852,13.9657732 C23.2525383,14.740328 23.235288,16.0121651 24.0176404,16.8068122 L30.5260824,23.4603485 L24.0176404,30.0767143 C23.235288,30.8713613 23.2525383,32.144203 24.0551852,32.9177532 C24.4488983,33.2995053 24.9603194,33.4883721 25.4707257,33.4883721 C25.9993971,33.4883721 26.5270538,33.2854407 26.9248257,32.8815873 L33.4150026,26.2843091 C34.9979726,24.7171165 34.9979726,22.1684192 33.4342824,20.6203142 L26.9248257,14.0029438 Z"/>
  </g>
</svg>
