<?xml version="1.0" encoding="UTF-8"?>
<svg width="23px" height="23px" viewBox="0 0 23 23" version="1.1" xmlns="http://www.w3.org/2000/svg" xmlns:xlink="http://www.w3.org/1999/xlink">
    <!-- Generator: Sketch 59.1 (86144) - https://sketch.com -->
    <title>success copy</title>
    <desc>Created with Sketch.</desc>
    <g id="login" stroke="none" stroke-width="1" fill="none" fill-rule="evenodd">
        <g id="onemoney-id" transform="translate(-932.000000, -214.000000)" fill="#99D25C" fill-rule="nonzero">
            <g id="success-copy" transform="translate(932.000000, 214.000000)">
                <path d="M11.5,0 C17.8409231,0 23,5.15863462 23,11.5 C23,17.8413654 17.8409231,23 11.5,23 C5.15907692,23 0,17.8413654 0,11.5 C0,5.15863462 5.15907692,0 11.5,0 Z M17.0349739,6.47977472 L10.0916973,14.4329859 L5.90874469,11.0258468 C5.71448293,10.8671506 5.42941509,10.8998098 5.27400569,11.0976051 C5.11814451,11.2963204 5.14976852,11.5856535 5.34448204,11.7443497 L9.86219735,15.4242624 C9.94532331,15.4918808 10.0451648,15.525 10.1445546,15.525 C10.2692435,15.525 10.3934807,15.4725612 10.4824797,15.3704437 L17.7108242,7.09064022 C17.8766243,6.90112472 17.8599088,6.60995163 17.6733271,6.44159562 C17.4862937,6.27231964 17.2012259,6.28933924 17.0349739,6.47977472 Z" id="Combined-Shape"></path>
            </g>
        </g>
    </g>
</svg>