<svg xmlns="http://www.w3.org/2000/svg" width="35" height="35" viewBox="0 0 35 35">
  <g fill="none">
    <path fill="#FFF" d="M17.5,0 C7.85076923,0 0,7.85009615 0,17.5 C0,27.1499038 7.85076923,35 17.5,35 C27.1492308,35 35,27.1499038 35,17.5 C35,7.85009615 27.1492308,0 17.5,0 Z"/>
    <path fill="#99D25C" d="M25.9227864,9.86052674 L15.3569307,21.9632394 L8.991568,16.7784625 C8.69595228,16.5369683 8.2621534,16.5866671 8.02566083,16.8876599 C7.78848077,17.1900528 7.83660426,17.6303423 8.13290746,17.8718366 L15.0076916,23.4717036 C15.1341876,23.5746012 15.2861204,23.625 15.4373656,23.625 C15.6271097,23.625 15.8161662,23.5452019 15.9515995,23.3898056 L26.9512541,10.7901047 C27.2035587,10.5017115 27.178122,10.058622 26.8941934,9.80242812 C26.6095774,9.54483424 26.1757785,9.57073362 25.9227864,9.86052674 Z"/>
  </g>
</svg>
