<svg xmlns="http://www.w3.org/2000/svg" width="678" height="439" viewBox="0 0 678 439">
  <g fill="none" fill-rule="evenodd" transform="translate(0 .448)">
    <polygon fill="#B5CEDF" fill-rule="nonzero" points="0 413.869 678 413.869 678 438.324 0 438.324"/>
    <path fill="#FFF" stroke="#000" stroke-linejoin="round" stroke-width=".66" d="M425.5,383.052064 L425.5,401.552064 C400.5,407.552064 375.166667,407.718731 349.5,402.052064 C349.5,402.052064 349.5,395.718731 349.5,383.052064 C362,390.052064 417,388.052064 425.5,383.052064 Z"/>
    <ellipse cx="387.5" cy="383.052" fill="#FFF" stroke="#000" stroke-width=".66" rx="37.812" ry="4.67"/>
    <rect width="6.34" height="107.34" x="384.33" y="261.882" fill="#FFF" stroke="#000" stroke-width=".66"/>
    <path fill="#FFF" stroke="#000" stroke-linejoin="round" stroke-width=".66" d="M354.5,263.552064 C391.5,267.218731 417.5,264.718731 432.5,256.052064 C432,256.052064 434,250.052064 432.5,247.552064 C431.5,245.885397 405.833333,248.718731 355.5,256.052064 L354.5,263.552064 Z"/>
    <ellipse cx="372.931" cy="247.552" fill="#D8D8D8" stroke="#000" stroke-width=".66" rx="59.17" ry="12.17"/>
    <rect width="5.84" height="197.796" x="191.33" y="219.574" fill="#FFF" stroke="#000" stroke-width=".66"/>
    <circle cx="160.668" cy="120.818" r="5.5" fill="#FFE8A7"/>
    <path fill="#FFF" stroke="#000" stroke-width=".6" d="M265.618967,228.392481 L270.038295,235.406584 C302.597881,249.027248 319.428845,257.364941 320.900008,260.678687 C321.397246,261.798699 320.947849,263.589093 319.477686,267.16103 C319.054976,268.188057 317.169837,272.578963 317.238025,272.418609 C316.201236,274.85677 315.372363,276.897738 314.568557,279.034827 C308.828345,294.296409 306.536503,309.317271 309.097318,326.596445 C312.820876,351.721262 315.80291,374.28071 318.043418,394.274936 L330.364825,396.226455 C344.697087,298.814572 351.667357,247.455102 351.241996,242.449176 C350.824782,237.539141 338.689622,226.732198 314.962051,210.244538 L287.11678,192.839499 L268.446453,213.135942 L265.618967,228.392481 Z" transform="scale(-1 1) rotate(-9 0 4213.5)"/>
    <path fill="#000" d="M300.443052,221.552064 C310.610535,230.760705 319.68457,240.972329 332.241585,247.989128 C337.504101,251.275856 347.85875,256.606561 346.943052,260.052064 C337.703279,280.765511 338.943052,302.052064 339.551852,316.13875 C336.835493,305.094877 336.835493,292.646259 339.551852,278.792898 C342.268211,264.939537 343.626391,259.683558 343.626391,263.02496 L343.626391,260.029332 L332.241585,254.030024 L327.869417,252.495541 L297.443052,223.052064 L300.443052,221.552064 Z" transform="matrix(-1 0 0 1 644.443 0)"/>
    <path fill="#FFF" stroke="#000" stroke-width=".66" d="M318.055959,221.378049 C313.885727,240.037653 321.016594,250.750164 339.599444,253.683198 C342.222403,254.604357 345.191992,255.078425 351.608547,255.77819 C355.332071,256.184263 355.540645,256.207508 356.978361,256.386052 C369.919657,257.993174 376.703374,260.85641 379.004282,267.729685 C380.013865,270.745514 379.992073,273.04627 379.091301,275.570982 C378.620762,276.889821 376.079535,281.927394 375.67523,282.837551 C371.439965,292.371842 370.230068,304.763386 373.349435,326.491071 C377.995567,358.8533 379.891673,384.715669 379.036565,404.08233 L393.904189,404.08233 C408.85307,305.856421 415.839944,254.371815 414.791867,250.349096 C413.753118,246.362178 401.600462,235.539654 378.523059,218.116127 L356.301093,204.941533 L331.919906,221.113505 L331.74255,221.168463 L318.055959,221.378049 Z" transform="matrix(-1 0 0 1 731.791 0)"/>
    <g fill="#FFF" transform="translate(300.099 92.793)">
      <path fill-rule="nonzero" stroke="#000" stroke-width=".66" d="M34.527712,116.258867 C33.6715503,130.979945 35.0872161,148.13389 42.027712,153.758867 C44.115411,152.858744 46.527712,137.758867 53.926868,137.195841 C128.027712,133.258867 113.704142,118.197845 123.527712,111.758867 C123.527712,111.871448 113.527712,103.758867 100.027712,89.7588671 C93.9367537,73.6788899 91.4367537,58.6788899 92.527712,44.7588671 C93.027712,41.2588671 93.527712,40.2588671 96.527712,37.2588671 C96.4503543,34.889106 122.966379,74.3706122 121.527712,70.2588671 C120.413351,67.0739964 163.317071,98.6066933 146.527712,65.7588671 C145.192082,63.1457508 129.39147,40.0128275 99.027712,8.2588671 C96.6199601,5.74087642 92.7866267,3.74087642 87.527712,2.2588671 C72.40764,-1.02070109 57.9712474,-0.902345497 41.527712,3.7588671 C25.0841765,8.42007969 3.52771196,51.7588671 0.0277119595,66.2588671 C-0.897524238,69.7391355 21.527712,100.258867 40.027712,107.258867 C38.527712,99.2588671 40.5446901,88.6293777 44.527712,87.2588671 C40.527712,83.2588671 25.027712,64.7588671 25.027712,64.7588671 C28.527712,60.2588671 35.027712,51.7588671 39.027712,46.2588671 C37.9087443,55.0299389 36.4087443,78.3632722 34.527712,116.258867 Z" transform="matrix(-1 0 0 1 150.429 0)"/>
      <polygon points="114.901 77.759 111.401 81.759 113.901 105.259 117.401 103.259"/>
    </g>
    <path fill="#FFF" fill-rule="nonzero" stroke="#000" stroke-width=".66" d="M371.316819,200.725279 C375.103878,200.454775 372.338097,200.450909 377.071921,197.34011 C381.805746,194.229311 384.476975,192.538659 385.08561,192.268155 C388.331661,188.413469 390.529508,184.964539 391.679152,181.921367 C393.403616,177.356607 396.155628,182.222895 395.486803,185.735384 C395.056879,188.763609 390.7662,190.442251 393.200737,191.355203 C404.844819,183.49527 410.783845,185.304192 410.783845,187.332974 C413.097299,190.006535 409.192145,199.358009 397.531936,205.626057 C394.150633,207.99297 387.824465,210.019996 377.071921,209.411362 L377.223767,209.172643 C374.240433,206.786268 372.170069,204.013398 371.316819,200.725279 Z" transform="scale(-1 1) rotate(49 0 -663.986)"/>
    <path fill="#A2A0A0" fill-rule="nonzero" stroke="#000" d="M409.102737,199.811635 C410.033287,199.578062 410.832242,199.070563 411.298062,197.869617 L408.342816,194.070016 C408.422002,196.223011 408.637794,198.188402 409.102737,199.811635 Z" transform="matrix(-1 0 0 1 819.64 0)"/>
    <path fill="#A2A0A0" fill-rule="nonzero" stroke="#000" d="M408.239919,180.05371 C407.209621,181.060745 406.425031,182.187537 405.706851,183.346698 L408.577661,184.613231 C408.774324,182.972687 408.989039,181.325097 408.239919,180.05371 Z" transform="matrix(-1 0 0 1 814.472 0)"/>
    <path fill="#FFF" fill-rule="nonzero" stroke="#000" stroke-width=".66" d="M335.918425,397.305708 C330.593604,397.715311 327.225769,399.604029 325.814919,402.971865 C325.746652,403.176665 324.790915,406.726546 327.316791,409.52549 C329.842668,412.324434 330.593604,411.846566 331.003206,414.099375 C331.412807,416.352184 328.545596,419.697264 331.890676,424.88555 C335.235756,430.073839 338.171234,436.013061 339.946174,436.559197 C341.129468,436.923287 341.925916,435.60346 342.335517,432.599715 C341.925916,419.492463 341.721115,412.369946 341.721115,411.232164 C341.721115,409.52549 341.652848,405.566008 341.994183,404.542004 C341.038389,403.251159 339.923362,400.543237 338.649103,396.418239 L335.918425,397.305708 Z" transform="scale(-1 1) rotate(-65 0 940.728)"/>
    <path fill="#FFF" fill-rule="nonzero" stroke="#000" stroke-width=".66" d="M268.318425,385.199799 C262.993604,385.609401 259.625769,387.498119 258.214919,390.865955 C258.146652,391.070756 257.190915,394.620637 259.716791,397.419581 C262.242668,400.218525 262.993604,399.740657 263.403206,401.993466 C263.812807,404.246275 260.945596,407.591354 264.290676,412.779641 C267.635756,417.967929 270.571234,423.907152 272.346174,424.453288 C273.529468,424.817378 274.325916,423.497551 274.735517,420.493806 C274.325916,407.386553 274.121115,400.264036 274.121115,399.126255 C274.121115,397.419581 274.052848,393.460099 274.394183,392.436094 C273.438389,391.145249 272.323362,388.437328 271.049103,384.31233 L268.318425,385.199799 Z" transform="scale(-1 1) rotate(-65 0 822.511)"/>
    <rect width="297.689" height="11.458" x="136.33" y="210.941" fill="#FFF" stroke="#000" stroke-width=".66"/>
    <rect width="5.84" height="197.796" x="366.142" y="222.118" fill="#FFF" stroke="#000" stroke-width=".66"/>
    <path fill="#FFF" stroke="#000" stroke-width=".66" d="M378.83,342.299462 L378.83,382.786517 C384.610527,384.033913 390.389473,384.033913 396.17,382.786517 L396.17,342.283066 C390.806601,340.357867 385.190241,340.460512 378.83,342.299463 Z"/>
    <path fill="#FFF" stroke="#000" d="M222.241673,151.792728 L245.837076,210.11088 L354.758327,210.11088 L331.162924,151.792728 L222.241673,151.792728 Z"/>
    <ellipse cx="285.175" cy="178.506" fill="#FFF" stroke="#000" rx="5" ry="6.552" transform="rotate(-20 285.175 178.506)"/>
    <path fill="#FFF" stroke="#000" stroke-linejoin="round" d="M292.106521,151.418716 C287.794415,142.402495 280.934247,142.402495 271.526016,151.418716 C270.938002,152.00673 263.881829,154.358788 262.117785,170.235177 C262.117785,174.939293 264.273838,179.643408 268.585944,184.347523 C271.330011,188.26762 271.330011,193.559749 268.585944,200.223913 C264.469843,210.220158 252.12154,210.808172 246.82941,207.280086 C243.301324,204.928028 236.833165,204.340014 227.424935,205.516043 L217.428689,210.808172 C209.196488,210.808172 204.296367,207.280086 202.728329,200.223913 C201.160291,193.16774 199.592252,187.87561 198.024214,184.347523 C195.672156,182.779485 193.712108,183.367499 192.144069,186.111567 C190.576031,188.855634 190.576031,191.991711 192.144069,195.519797 C197.632204,201.007932 199.592252,204.928028 198.024214,207.280086 C196.456175,209.632144 191.556055,210.416163 183.323853,209.632144 C177.835719,208.064105 174.503637,206.104057 173.327608,203.751999 C171.563565,200.223913 170.387536,198.45987 168.623493,200.223913 C166.859449,201.987956 170.387536,204.928028 167.447464,207.280086 C164.507392,209.632144 159.215262,210.808172 157.451219,207.280086 C155.994894,204.367436 152.935523,199.450979 151.250783,200.140332 C150.894801,200.285991 150.600191,200.681932 150.395046,201.399942 C149.219017,205.516043 150.395046,210.808172 146.278945,210.808172 C143.534878,210.808172 139.810786,210.808172 135.106671,210.808172 C131.186575,206.496067 130.206551,203.35999 132.166599,201.399942 C134.126647,199.439894 139.614781,198.45987 148.631002,198.45987 C152.551099,198.06786 155.491171,199.831903 157.451219,203.751999 C160.391291,209.632144 162.743349,207.280086 162.743349,205.516043 C162.743349,203.751999 161.56732,191.991711 166.271435,193.755754 C170.97555,195.519797 178.031723,206.104057 182.147824,203.751999 C186.263925,201.399942 184.499882,196.695826 183.323853,192.579725 C182.147824,188.463624 180.383781,175.527307 186.263925,174.351278 C192.144069,173.17525 199.200242,172.587235 202.728329,181.407451 C206.256416,190.227668 212.724574,201.987956 222.132805,200.223913 C231.541036,198.45987 236.833165,196.695826 236.833165,189.051639 C236.833165,181.407451 228.600963,176.703336 228.600963,168.471134 C228.600963,160.238932 229.776992,144.950557 243.889338,144.950557 C277.994175,141.422471 294.066569,143.578524 292.106521,151.418716 Z"/>
    <g transform="translate(55.082 99.552)">
      <path fill="#E9EFF4" d="M27.8145695,0 L67.6688742,0 L67.6688742,0 L59.4039735,9.0397351 L59.4039735,60 C59.4039735,69.9411255 51.345099,78 41.4039735,78 L9.55629139,78 C4.27849739,78 6.46343353e-16,73.7215026 0,68.4437086 L0,68.4437086 L0,68.4437086 L9.81456954,68.4437086 L9.81456954,18 C9.81456954,8.0588745 17.873444,5.37886881e-15 27.8145695,0 Z"/>
      <path fill="#F0F8FF" d="M50.6225166,77.7417219 C45.4569536,77.9139073 42.8741722,74.8145695 42.8741722,68.4437086 C42.8741722,68.4437086 28.5827815,68.4437086 0,68.4437086 C0.516556291,73.4370861 3.18543046,76.5364238 8.00662252,77.7417219 C8.00662252,77.7417219 22.2119205,77.7417219 50.6225166,77.7417219 Z"/>
      <path fill="#D6DDE3" d="M59.1401077,0.199817723 C59.1401077,5.7097515 61.6367965,8.46471839 66.630174,8.46471839 C66.630174,8.46471839 75.4116309,9.75610911 75.1533528,0.199817723 C75.1533528,0.199817723 69.8156044,0.199817723 59.1401077,0.199817723 Z" transform="rotate(-180 67.15 4.361)"/>
      <g stroke="#D6DDE3" stroke-linecap="round" stroke-width="2" transform="translate(17.487 7.508)">
        <line x2="34.286" y1=".429" y2=".429"/>
        <line x2="34.286" y1="9" y2="9"/>
        <line x2="34.286" y1="17.571" y2="17.571"/>
        <line x2="34.286" y1="26.143" y2="26.143"/>
        <line x2="34.286" y1="34.714" y2="34.714"/>
        <line x2="34.286" y1="43.286" y2="43.286"/>
      </g>
      <path fill="#00B0C7" fill-rule="nonzero" stroke="#33AFCA" stroke-width="2" d="M29.2129137,57.7051053 C29.04177,57.5011564 28.7407381,57.4770509 28.5403164,57.6512064 C28.3398947,57.8250912 28.316206,58.1316916 28.4873497,58.3353697 L31.0068613,61.3377251 C31.1750772,61.5381529 31.4697211,61.5655087 31.670409,61.3992077 L37.538268,56.5412694 C37.7426822,56.3722599 37.7735573,56.066472 37.6072045,55.8584604 C37.441118,55.6507196 37.1406185,55.6190303 36.9362043,55.7883106 L31.4297964,60.3466905 L29.2129137,57.7051053 Z"/>
    </g>
    <g transform="translate(261.359)">
      <path fill="#F26C63" d="M0,56.8922414 L0,5.48706897 C-3.32054708e-16,2.77563651 2.1980503,0.577586207 4.90948276,0.577586207 C7.62091522,0.577586207 9.81896552,2.77563651 9.81896552,5.48706897 L9.81896552,56.8922414 L9.81896552,56.8922414 L4.90948276,66.7112069 L0,56.8922414 Z"/>
      <path stroke="#FFF" stroke-linecap="round" stroke-width="3" d="M0,56.8922414 C2.59679817,58.5827172 5.68732262,59.0388774 9.81896552,56.8922414"/>
      <line x2="9.819" y1="28.591" y2="28.591" stroke="#FFF"/>
      <line x2="9.819" y1="22.815" y2="22.815" stroke="#FFF"/>
      <path fill="#E9EFF4" d="M4.92495475,0.0154719916 L4.89401077,0.0154719916 C2.19112325,0.0154719916 -3.31008254e-16,2.20659525 0,4.90948276 L0,4.90948276 L0,4.90948276 L9.81896552,4.90948276 C9.81896552,2.20659525 7.62784226,0.0154719916 4.92495475,0.0154719916 Z"/>
    </g>
    <g transform="translate(488.243 176.729)">
      <path fill="#FDD66F" d="M0.267475954,8.42253521 C-0.895517807,25.0844976 1.17691607,39.7831215 17.7604337,45.6760563 C30.388179,41.0933794 37.2997737,29.9212425 35.2533914,8.42253521 L17.7604337,0 L0.267475954,8.42253521 Z"/>
      <path fill="#F26C63" fill-rule="nonzero" stroke="#EB6E60" stroke-width="2" d="M12.6947292,21.6527217 C12.4664431,21.3806772 12.064901,21.3485232 11.7975613,21.5808268 C11.5302216,21.8127692 11.4986237,22.2217391 11.7269098,22.4934224 L15.0876503,26.4982212 C15.312031,26.7655691 15.7050522,26.8020585 15.972747,26.580232 L23.7998,20.1002977 C24.0724651,19.8748584 24.113649,19.4669723 23.8917535,19.1895085 C23.670213,18.9124061 23.269381,18.8701362 22.9967158,19.0959368 L15.6517973,25.1762943 L12.6947292,21.6527217 Z"/>
    </g>
    <line x1="236.5" x2="261.5" y1="152.552" y2="152.552" stroke="#000" stroke-linecap="round"/>
    <line x1="233.5" x2="258.5" y1="160.552" y2="160.552" stroke="#000" stroke-linecap="round"/>
    <line x1="232.5" x2="257.5" y1="169.552" y2="169.552" stroke="#000" stroke-linecap="round"/>
    <line x1="235.5" x2="260.5" y1="177.552" y2="177.552" stroke="#000" stroke-linecap="round"/>
    <line x1="240.5" x2="265.5" y1="186.552" y2="186.552" stroke="#000" stroke-linecap="round"/>
    <line x1="238.5" x2="263.5" y1="195.552" y2="195.552" stroke="#000" stroke-linecap="round"/>
    <line x1="233.5" x2="258.5" y1="201.552" y2="201.552" stroke="#000" stroke-linecap="round"/>
    <g transform="translate(79.755 9.793)">
      <path stroke="#9F9F9F" stroke-linecap="round" d="M1.70530257e-13,71.5386366 C3.664257,80.6524286 18.95693,91.4491526 33.838853,84.1948556 C48.720776,76.9405586 49.054885,29.4134035 78.499419,15.8281656 C107.943952,2.2429276 142.196302,19.984334 143.756583,44.412679 C145.316864,68.8410236 126.223273,70.6879336 123.965423,84.9434366 C121.707573,99.1989406 133.981411,122.663298 150.464204,125.273915 C166.946996,127.884533 172.49685,113.205066 184.68254,106.462632 C196.868229,99.7201976 217.458755,110.848604 211.941929,132.882563"/>
      <polygon fill="#00B0C7" fill-rule="nonzero" points="87.885 0 88.883 11.479 96.597 20.037 73.887 17.999 73.885 18 73.886 17.999 73.885 18 73.886 17.998"/>
      <line x1="90.885" x2="95.385" y1="6.5" y2="4.5" stroke="#FFC98A" stroke-linecap="round"/>
      <line x1="93.823" x2="98.323" y1="13.484" y2="11.484" stroke="#FFC98A" stroke-linecap="round"/>
      <line x1="91.843" x2="100.626" y1="10.043" y2="6.198" stroke="#FFC98A" stroke-linecap="round"/>
    </g>
    <circle cx="322.074" cy="25.094" r="5.5" fill="#9DD7DF"/>
    <g transform="translate(365.014 32.044)">
      <path fill="#000" d="M27.3680356,22.2826626 C15.3769153,18.2012672 6.93871954,33.6198719 2.94167944,20.4687091 C1.60933273,14.1198719 -0.167129535,7.3175463 2.0534483,3.68963933 C4.27402614,0.0617323501 7.82695068,-1.75222114 12.2681063,2.32917421 C13.1563375,4.1431277 19.0299324,8.75402173 24.7033422,10.4919649 C30.3767521,12.2299081 36.250347,9.13149979 39.3591559,11.85243 C42.4679649,14.5733603 43.6670255,16.0437257 44.2444272,18.6547556 C44.8218289,21.2657856 45.5767739,20.9221975 44.2444272,25.4570812 C41.5797338,31.35243 40.2473871,28.1780114 37.5826937,31.8059184 C35.8062314,34.224523 34.6219232,34.8291742 34.0297691,33.6198719 C29.6583985,35.9722548 27.4378206,32.193185 27.3680356,22.2826626 Z"/>
      <g stroke="#000" transform="matrix(-1 0 0 1 40.907 16.908)">
        <path fill="#FFF" fill-rule="nonzero" stroke-width=".66" d="M14.2349018,25.2946232 L16.5351181,45.0727162 L10.3742941,46.8544537 C13.3018142,55.0395623 16.3259879,57.5869681 20.8666319,58.3636573 C25.407276,59.1403464 29.1114858,58.1545487 31.9792614,55.406264 C34.4885641,52.3592527 34.2821163,48.307308 31.3545949,42.9899746 C31.4143408,42.8704839 30.3565628,42.9894293 27.249806,43.10892 C24.2625399,39.7034368 22.3005192,34.4954023 22.3005192,27.9831626 C22.360265,27.8039266 19.6717259,26.9077468 14.2349018,25.2946232 Z" transform="rotate(8 22.046 41.957)"/>
        <path fill="#FFF" fill-rule="nonzero" stroke-width=".66" d="M9.53395552,25.4739789 C10.7448168,28.4766243 12.0837002,30.1680242 13.9946401,31.9616331 C18.6270645,34.316261 22.4413823,35.765176 25.4375959,36.3083781 C29.9319168,37.1231813 31.4522729,38.3275249 34.2153012,34.559096 C36.0573208,32.0468101 37.1344254,27.8905784 37.4466149,22.0904009 C36.2572265,15.6744182 35.3266804,8.9851343 33.1582792,3.60285608 C32.3612815,1.97499113 29.7709654,1.99940969 25.3873307,3.67611176 C15.0189587,2.70633897 9.59878192,4.64398144 9.12680045,9.48903918 C8.41882825,16.7566258 9.3405215,18.3665663 9.21429309,18.1441454 C9.08806479,17.9217245 5.72485304,12.1015691 4.3476409,13.8625853 C2.97042876,15.6236016 0.711665218,19.0807108 2.33031897,22.179829 C3.40942159,24.2459076 5.81063366,25.3439577 9.53395552,25.4739789 Z" transform="rotate(6 19.608 19.78)"/>
        <path stroke-linecap="round" d="M15.9711334,14.6304559 C17.4693267,12.5447353 19.4561416,11.3806326 21.9315769,11.1381478" transform="rotate(6 18.951 12.884)"/>
        <path stroke-linecap="round" d="M26.8501257,11.7452492 C29.0747753,10.5640885 31.3197201,10.6461502 33.5849581,11.9914343" transform="rotate(6 30.218 11.454)"/>
        <path fill="#FFF" fill-rule="nonzero" stroke-width=".66" d="M20.0777882,26.4935681 C25.3265939,26.8961465 29.3205608,25.5554383 32.0596888,22.4714436 C32.0625567,22.3893114 32.5331867,27.7508428 29.5162007,29.3723646 C27.5048763,30.4533792 24.3587388,29.4937804 20.0777882,26.4935681 Z" transform="rotate(6 26.083 26.136)"/>
        <path stroke-linecap="round" d="M27.5926084,18.1867411 L28.8970745,20.8637261 C28.5303043,21.9473483 27.4256493,22.1828805 25.5831097,21.5703225" transform="rotate(6 27.24 20.044)"/>
        <circle cx="19.703" cy="16.601" r="1.075" fill="#000" fill-rule="nonzero" transform="rotate(8 19.703 16.601)"/>
        <circle cx="29.694" cy="14.685" r="1.075" fill="#000" fill-rule="nonzero" transform="rotate(8 29.694 14.685)"/>
      </g>
    </g>
  </g>
</svg>
