<svg xmlns="http://www.w3.org/2000/svg" width="25" height="26" viewBox="0 0 25 26">
  <g fill="#FFF" transform="translate(0 .52)">
    <path d="M24.0021242,7.59160816 C22.6840686,4.53301704 20.444281,2.30859083 17.3457108,0.993223846 C15.797018,0.33580464 14.1745098,-9.23705556e-14 12.4794526,-9.23705556e-14 C10.7846814,-9.23705556e-14 9.17414216,0.33263322 7.62716503,0.993223846 C4.55424837,2.30509413 2.30453431,4.52809727 0.984150327,7.59160816 C0.32250817,9.12641304 -5.32907052e-15,10.7343639 -5.32907052e-15,12.4212343 C-5.32907052e-15,14.10843 0.32250817,15.7297171 0.984150327,17.2648473 C2.30453431,20.3283582 4.55453431,22.5646975 7.62716503,23.8768931 C9.1744281,24.5374837 10.7846405,24.8697917 12.4794526,24.8697917 C14.1742647,24.8697917 15.797018,24.533987 17.3454657,23.8768931 C20.4440359,22.5614855 22.6838235,20.3231538 24.002165,17.2648473 C24.6658088,15.7247974 25,14.10843 25,12.4212343 C25,10.7343639 24.6660948,9.13161742 24.0021242,7.59160816 Z M22.0066993,17.9179159 C21.0254493,19.5928732 19.6811683,20.9216578 17.9881127,21.9041069 C16.3053105,22.8807824 14.4614788,23.3733284 12.4797386,23.3733284 C10.989951,23.3733284 9.56838235,23.087738 8.21503268,22.5026109 C6.86172386,21.9177684 5.6932598,21.1489022 4.71580882,20.1762926 C3.73835784,19.2033984 2.96037582,18.0290376 2.37863562,16.6797202 C1.79861111,15.3353225 1.51752451,13.904402 1.51752451,12.421275 C1.51752451,10.4484888 2.00449346,8.62256378 2.98022876,6.95224165 C3.95943627,5.27582064 5.30400327,3.94561304 6.98508987,2.96601004 C8.66589052,1.98644769 10.4977533,1.49650388 12.4794526,1.49650388 C14.4614788,1.49650388 16.3049837,1.9893345 17.9878268,2.96601004 C19.6808824,3.94849984 21.0222631,5.27866679 22.0064134,6.95220099 C22.9905637,8.62545058 23.4825163,10.4484888 23.4825163,12.4212343 C23.4825163,14.3940612 22.9937908,16.2324279 22.0066993,17.9179159 Z"/>
    <path d="M13.3872317,12.3523243 L13.3872317,5.16570714 C13.3872317,4.73566028 12.9994612,4.38878676 12.554364,4.38878676 C12.1381018,4.38878676 11.7647059,4.73566028 11.7647059,5.16570714 L11.7647059,12.4632773 C11.7647059,12.4772087 11.793498,12.5328511 11.793498,12.5743134 C11.7647059,12.8240822 11.8367075,13.0321814 12.0088593,13.1988184 L16.3020542,17.3469545 C16.5893313,17.6245446 17.1204615,17.6245446 17.4075241,17.3469545 C17.7376675,17.0279022 17.7159555,16.5649758 17.4075241,16.2648303 L13.3872317,12.3523243 Z"/>
  </g>
</svg>
