<svg xmlns="http://www.w3.org/2000/svg" width="318" height="193" viewBox="0 0 318 193">
  <g fill="none" transform="translate(.5 .585)">
    <polygon fill="#979797" points="0 19.208 58.691 19.208 58.691 17.074 0 17.074" opacity=".3"/>
    <polygon fill="#979797" points="42.685 32.013 58.691 32.013 58.691 29.879 42.685 29.879" opacity=".2"/>
    <polygon fill="#979797" points="251.839 141.544 316.762 141.544 316.762 139.41 251.839 139.41" opacity=".2"/>
    <polygon fill="#979797" points="251.839 154.35 274.077 154.35 274.077 152.216 251.839 152.216" opacity=".5"/>
    <g transform="translate(64.027)">
      <rect width="23.477" height="3.201" x="72.564" y="11.738" fill="#888"/>
      <polygon fill="#F26C63" points="49.087 70.43 115.248 70.43 115.248 74.698 49.087 74.698"/>
      <polygon fill="#F26C63" points="49.087 87.503 93.906 87.503 93.906 91.772 49.087 91.772"/>
      <rect width="6.403" height="6.403" x="42.685" y="145.128" fill="#FAB909"/>
      <rect width="6.403" height="6.403" x="42.685" y="132.322" fill="#FAB909"/>
      <rect width="6.403" height="6.403" x="59.758" y="145.128" fill="#FAB909"/>
      <path fill="#E8E8E8" d="M159.106585,66.6946309 C153.357529,66.6946309 149.27475,68.5095002 142.886606,74.517836 L142.779924,13.3389262 C142.779924,6.41409768 142.73899,0.80033557 135.843634,0.80033557 L34.147651,1.06711409 C27.2522953,1.06711409 26.6778523,4.81342654 26.6778523,11.738255 L26.6778523,58.6912752 L14.1926272,58.6912752 C7.29727145,58.6912752 1.70740206,64.3050373 1.70740206,71.2298658 L1.70740206,77.4545674 C1.70740206,80.6664057 2.91144596,83.5953421 4.88918365,85.8134972 C2.91144596,88.032044 1.70740206,90.9605886 1.70740206,94.172427 L2.13422819,104.398806 C2.13422819,107.610645 3.33827209,110.539581 5.31600978,112.757736 C3.33827209,114.976283 2.13422819,117.904828 2.13422819,121.116666 L2.13422819,129.475596 C2.13422819,132.687434 3.33827209,135.616371 5.31600978,137.834526 C3.33827209,140.053072 2.13422819,142.981617 2.13422819,146.193455 L2.13422819,154.552385 C2.13422819,161.477214 7.72409758,167.090976 14.6194533,167.090976 L27.1046785,167.090976 L27.2113606,179.541946 C27.2113606,186.466775 27.2522953,192.080537 34.147651,192.080537 L135.843634,191.813758 C142.73899,191.813758 142.993289,186.199996 142.993289,179.275168 L142.246318,85.102349 C142.912717,76.1537136 150.944316,71.5854315 160.067114,70.4295302 L160.280673,192.169332 L164.33557,191.635775 L164.33557,70.4295302 C164.33557,68.121254 161.405037,66.6946309 159.106585,66.6946309 Z M34.0410664,4.62403046 L135.630465,4.62403046 C137.928526,4.62403046 139.791946,6.49541511 139.791946,8.80369128 L139.791946,25.6107383 L29.8791946,25.6107383 L29.8791946,8.80369128 C29.8791946,6.49541511 31.7426145,4.62403046 34.0410664,4.62403046 Z M5.76229906,131.343829 L5.44215508,118.360869 C5.44215508,116.052593 7.30557493,114.181208 9.60402685,114.181208 L26.6778523,114.181208 L26.6778523,135.52349 L9.92417083,135.52349 C7.62571891,135.52349 5.76229906,133.652105 5.76229906,131.343829 Z M5.33557047,106.711409 L4.90874434,93.1057047 C4.90874434,90.7974285 7.19889278,88.8372483 9.4973447,88.8372483 L26.6778523,88.5704698 L26.6778523,110.979866 L10.6711409,110.979866 C8.37268902,110.979866 5.33557047,109.019686 5.33557047,106.711409 Z M4.90874434,69.6291946 C4.90874434,67.3209185 7.04297253,62.159396 12.9122464,61.8038219 L26.6778523,61.8926174 L26.6778523,85.9026846 L9.07061611,85.5471105 C6.77216419,85.5471105 4.90874434,81.5414976 4.90874434,79.2332215 L4.90874434,69.6291946 Z M13.2323203,163.357252 C10.2856078,163.357252 5.7623966,158.834041 5.7623966,155.887328 L5.33557047,144.060528 C5.33557047,141.113815 7.72455348,138.724832 10.671266,138.724832 L26.6778523,138.724832 L26.6778523,163.268456 L13.2323203,163.357252 Z M135.630075,188.523621 L34.0410664,188.523621 C31.7426145,188.523621 29.8791946,186.652236 29.8791946,184.34396 L29.8791946,170.738255 L139.791946,170.738255 L139.791946,184.34396 C139.791946,186.652236 137.928526,188.523621 135.630075,188.523621 Z M139.791946,167.536913 L29.8791946,167.536913 L29.8791946,138.191275 L29.8791946,113.114094 L29.8791946,88.0369128 L29.8791946,62.9597315 L29.8791946,29.5232287 L139.791946,29.5232287 L139.791946,167.536913 Z"/>
      <path fill="#ACACAC" d="M142.993289,13.8724832 C142.993289,6.94765473 142.952354,0.266778523 136.056998,0.266778523 L34.147651,-7.10542736e-15 C27.2522953,-7.10542736e-15 25.07723,4.54664802 25.07723,11.4714765 L25.5040561,166.824197 L25.6107383,179.275168 C25.6107383,186.199996 27.2522953,192.080537 34.147651,192.080537 L136.056998,192.347315 C142.952354,192.347315 143.206653,186.733553 143.206653,179.808725 L142.993289,13.8724832 Z M34.0410664,4.62403046 L134.563351,4.62403046 C136.861412,4.62403046 138.724832,6.49541511 138.724832,8.80369128 L138.724832,25.6107383 L29.8791946,25.6107383 L29.8791946,8.80369128 C29.8791946,6.49541511 31.7426145,4.62403046 34.0410664,4.62403046 Z M134.56296,187.723285 L34.0410664,187.723285 C31.7426145,187.723285 29.8791946,185.8519 29.8791946,183.543624 L29.8791946,170.738255 L138.724832,170.738255 L138.724832,183.543624 C138.724832,185.8519 136.861412,187.723285 134.56296,187.723285 Z M138.724832,166.469799 L29.8791946,166.469799 L29.8791946,138.191275 L29.8791946,113.114094 L29.8791946,88.0369128 L29.8791946,62.9597315 L29.8791946,29.5232287 L138.724832,29.5232287 L138.724832,166.469799 Z" opacity=".755"/>
      <rect width="6.403" height="6.403" x="121.651" y="40.55" fill="#FAB909"/>
      <rect width="6.403" height="6.403" x="121.651" y="53.356" fill="#FAB909"/>
      <rect width="6.403" height="6.403" x="104.577" y="40.55" fill="#FAB909"/>
    </g>
  </g>
</svg>
